<?xml version="1.0" encoding="utf-8"?>
<!-- Generator: Adobe Illustrator 23.0.3, SVG Export Plug-In . SVG Version: 6.00 Build 0)  -->
<svg version="1.1" id="Layer_1" xmlns="http://www.w3.org/2000/svg" xmlns:xlink="http://www.w3.org/1999/xlink" x="0px" y="0px"
	 viewBox="0 0 161.92 270.11" style="enable-background:new 0 0 161.92 270.11;" xml:space="preserve">
<style type="text/css">
	.st0{clip-path:url(#SVGID_2_);}
	.st1{fill:#B7B7B7;stroke:#545454;stroke-width:1.6817;stroke-miterlimit:10;}
	.st2{fill:#B7B7B7;stroke:#545454;stroke-width:2.6714;stroke-miterlimit:10;}
	.st3{fill:#B7B7B7;stroke:#545454;stroke-width:2.3649;stroke-miterlimit:10;}
	.st4{fill:#B7B7B7;stroke:#545454;stroke-width:1.7327;stroke-miterlimit:10;}
	.st5{fill:none;stroke:#B7B7B7;stroke-width:2.6714;stroke-miterlimit:10;}
	.st6{fill:none;stroke:#545454;stroke-width:2.6714;stroke-linecap:round;stroke-miterlimit:10;}
	.st7{fill:#545454;}
	.st8{fill:#B7B7B7;}
	.st9{fill:#F44027;}
	.st10{fill:none;stroke:#545454;stroke-width:4;stroke-miterlimit:10;}
	.st11{fill:#B4CADD;}
	.st12{fill:#D7E2EA;}
	.st13{fill:#D63E26;}
	.st14{fill:#D9F7EF;}
	.st15{fill:#FFFFFF;}
</style>
<g id="IV_Hanger_1_">
	<g>
		<g>
			<g>
				<defs>
					<rect id="SVGID_1_" x="16.03" y="-9.47" width="146.25" height="279.31"/>
				</defs>
				<clipPath id="SVGID_2_">
					<use xlink:href="#SVGID_1_"  style="overflow:visible;"/>
				</clipPath>
				<g class="st0">
					<g>
						<rect x="119.55" y="220.9" class="st1" width="8.39" height="314.91"/>
						<path class="st2" d="M181.66,555.36H65.83c-1.79,0-3.26-1.47-3.26-3.26l0,0c0-1.79,1.47-3.26,3.26-3.26l56.41-7.52l59.42,7.52
							c1.79,0,3.26,1.47,3.26,3.26l0,0C184.92,553.89,183.45,555.36,181.66,555.36z"/>
						<path class="st3" d="M131.65,531.77v10.21c0,0.2-0.16,0.36-0.36,0.36H116.2c-0.2,0-0.36-0.16-0.36-0.36v-10.21
							c0-0.2,0.16-0.36,0.36-0.36h15.09C131.49,531.41,131.65,531.57,131.65,531.77z"/>
						<path class="st4" d="M126.91,214.33h-6.33c-0.2,0-0.36-0.16-0.36-0.36V13.78c0-0.2,0.16-0.36,0.36-0.36h6.33
							c0.2,0,0.36,0.16,0.36,0.36v200.19C127.27,214.17,127.1,214.33,126.91,214.33z"/>
						<path class="st1" d="M130.07,15.97h-12.24c-0.2,0-0.36-0.16-0.36-0.36V1.88c0-0.2,0.16-0.36,0.36-0.36h12.25
							c0.2,0,0.36,0.16,0.36,0.36v13.74C130.43,15.81,130.27,15.97,130.07,15.97z"/>
						<line class="st5" x1="43.99" y1="34.49" x2="43.99" y2="24.71"/>
						<path class="st6" d="M65.8,8.26c0,0-12.03,12.01-14.29,13.78c-2.26,1.77-5.27,2.47-7.9,1.41s-1.5-10.95-1.5-12.37
							S42.48,4.02,47,4.02s69.71-0.37,69.71-0.37"/>
						
							<ellipse transform="matrix(0.6212 -0.7837 0.7837 0.6212 -421.6669 265.3384)" class="st7" cx="63.62" cy="568.82" rx="8.84" ry="9.21"/>
						
							<ellipse transform="matrix(0.0568 -0.9984 0.9984 0.0568 -507.918 599.9524)" class="st8" cx="63.57" cy="568.79" rx="6.05" ry="6.14"/>
						<path class="st7" d="M64.44,570.81l-2.77-1.23c-0.42-0.19-0.62-0.69-0.43-1.12l6.07-13.63c0.19-0.42,0.69-0.62,1.12-0.43
							l2.77,1.23c0.42,0.19,0.62,0.69,0.43,1.12l-6.07,13.63C65.36,570.81,64.86,571,64.44,570.81z"/>
						<path class="st7" d="M183.39,570.81l2.77-1.23c0.42-0.19,0.62-0.69,0.43-1.12l-6.07-13.63c-0.19-0.42-0.69-0.62-1.12-0.43
							l-2.77,1.23c-0.42,0.19-0.62,0.69-0.43,1.12l6.07,13.63C182.46,570.81,182.96,571,183.39,570.81z"/>
						<path class="st1" d="M129.66,221.4h-11.83c-0.2,0-0.36-0.16-0.36-0.36v-16.83c0-0.2,0.16-0.36,0.36-0.36h11.84
							c0.2,0,0.36,0.16,0.36,0.36v16.83C130.02,221.24,129.86,221.4,129.66,221.4z"/>
					</g>
				</g>
			</g>
		</g>
	</g>
</g>
<g id="Tube_1_">
	<g>
		<path class="st9" d="M161.23,243.99c-47.5,0-81.98-11.08-102.49-32.92c-20.22-21.54-18.91-45.46-18.85-46.47l0.05-0.81h4.63
			l-0.06,0.92c-0.01,0.23-1.09,23.17,17.72,43.17c19.58,20.82,52.88,31.37,98.99,31.37h1.55l0.01,4.73L161.23,243.99z"/>
		<path class="st7" d="M40.75,164.67h2.9c-0.01,0.23-1.15,23.5,17.95,43.82c19.75,21,53.27,31.64,99.62,31.64c0.23,0,0.45,0,0.69,0
			l0.01,3c-0.23,0-0.46,0-0.69,0c-47.26,0-81.52-10.98-101.86-32.65C39.39,189.2,40.69,165.66,40.75,164.67 M39.14,162.94
			l-0.11,1.62c-0.07,1.02-1.39,25.3,19.08,47.11c20.67,22.02,55.36,33.19,103.11,33.19h0.7l1.72-0.01v-1.72l-0.01-3v-1.73
			l-1.73,0.01h-0.68c-45.86,0-78.95-10.46-98.36-31.1c-18.49-19.66-17.5-42.31-17.49-42.54l0.1-1.82l-1.82-0.01h-2.9L39.14,162.94
			L39.14,162.94z"/>
	</g>
</g>
<g id="A_Bag_2_">
	<path class="st10" d="M59.87,37.67H24.59c-10.9,0-19.81,8.92-19.81,19.81v51.37c-0.01,7.67,6.5,13.16,10.86,17.62
		c2.48,1.97,5.83,5.87,6.35,12.76v1.83c0,0.84,0.69,1.52,1.52,1.52H25v10.34c0,0.55,0.45,1,1,1h6.19c0.55,0,1-0.45,1-1v-10.34h6.75
		v22.52h4.62v-22.52h6.61v10.34c0,0.55,0.45,1,1,1h6.19c0.55,0,1-0.45,1-1v-10.34h1.53c0.84,0,1.52-0.69,1.52-1.52
		c0-8.09,3.78-12.5,6.48-14.62c4.74-4.85,10.79-9.94,10.79-17.6V57.48C79.68,46.58,70.76,37.67,59.87,37.67z"/>
	<g>
		<path class="st11" d="M52.17,135.45h6.19c0.55,0,1,0.45,1,1v16.47c0,0.55-0.45,1-1,1h-6.19c-0.55,0-1-0.45-1-1v-16.47
			C51.17,135.89,51.62,135.45,52.17,135.45z"/>
		<path class="st11" d="M26,135.45h6.19c0.55,0,1,0.45,1,1v16.47c0,0.55-0.45,1-1,1H26c-0.55,0-1-0.45-1-1v-16.47
			C25,135.89,25.45,135.45,26,135.45z"/>
		<path class="st12" d="M15.64,126.47c2.48,1.97,5.83,5.87,6.35,12.76v1.83c0,0.84,0.69,1.52,1.52,1.52h37.38
			c0.84,0,1.52-0.69,1.52-1.52c0-8.09,3.78-12.5,6.48-14.62c4.74-4.85,10.79-9.94,10.79-17.6V57.48c0-10.9-8.92-19.81-19.81-19.81
			H24.59c-10.9,0-19.81,8.92-19.81,19.81v51.37C4.77,116.52,11.28,122.01,15.64,126.47z"/>
		<path class="st13" d="M73.59,57.48c0-7.56-6.15-13.72-13.72-13.72H24.59c-7.56,0-13.72,6.15-13.72,13.72v51.37
			c0,3.29,2.37,6.4,5.07,9.26h52.61c2.8-2.95,5.04-5.89,5.04-9.26C73.59,108.85,73.59,57.48,73.59,57.48z"/>
		<path class="st14" d="M53.6,151.93h3.34c0.42,0,0.76-0.34,0.76-0.76v-5.44h-4.87v5.44C52.83,151.59,53.17,151.93,53.6,151.93z"/>
		<path class="st14" d="M27.43,151.93h3.34c0.42,0,0.76-0.34,0.76-0.76v-5.44h-4.86v5.44C26.67,151.59,27.01,151.93,27.43,151.93z"
			/>
		<g>
			<path class="st9" d="M18.54,120.46c3.52,2.85,7.64,5.58,8.13,10.24v15.03h4.86v-14.49v2.72c0.01-0.47,0.24-2.72,3.77-2.72
				c4.64,0,4.64,2.81,4.64,2.81v31.05h4.62v-33.86v2.72c0.01-0.47,0.24-2.72,3.74-2.72c3.48,0,4.33,1.6,4.54,2.39v12.1h4.86v-14.89
				c0-1.9,1.48-3.65,2.68-4.97c1.75-1.93,3.84-3.53,5.68-5.37c0.81-0.81,1.7-1.6,2.45-2.4H15.92
				C16.7,118.93,17.6,119.7,18.54,120.46z"/>
			<path class="st13" d="M44.56,134.06v-0.09C44.55,134.02,44.56,134.06,44.56,134.06z"/>
			<path class="st13" d="M31.53,134.06v-0.09C31.53,134.02,31.53,134.06,31.53,134.06z"/>
		</g>
		<path class="st15" d="M22.6,55.46h38.86c1.98,0,3.6,1.62,3.6,3.6v29.66c0,1.98-1.62,3.6-3.6,3.6H22.6c-1.98,0-3.6-1.62-3.6-3.6
			V59.06C19,57.08,20.62,55.46,22.6,55.46z"/>
	</g>
</g>
<path class="st5" d="M44.31,21.45c0,0,5.27-2.63,4.51,7.15c-0.75,9.78,1.13,10.15-1.88,10.91"/>
</svg>
