<?xml version="1.0" encoding="utf-8"?>
<!-- Generator: Adobe Illustrator 23.0.3, SVG Export Plug-In . SVG Version: 6.00 Build 0)  -->
<svg version="1.1" id="Layer_1" xmlns="http://www.w3.org/2000/svg" xmlns:xlink="http://www.w3.org/1999/xlink" x="0px" y="0px"
	 viewBox="0 0 21 20.7" style="enable-background:new 0 0 21 20.7;" xml:space="preserve">
<style type="text/css">
	.st0{fill:#8BC1D7;}
</style>
<g>
	<g id="m67jpc_4_">
		<g>
			<path class="st0" d="M20.94,20.7c-6.96,0-13.9,0-20.87,0c0.02-0.28,0.02-0.56,0.05-0.84c0.16-1.6,0.69-3.09,1.63-4.46
				c0.96-1.41,2.23-2.53,3.81-3.35c0.16-0.08,0.26-0.09,0.41,0.03c1.25,0.95,2.69,1.46,4.32,1.51c1.81,0.05,3.4-0.47,4.79-1.52
				c0.13-0.1,0.21-0.11,0.35-0.03c2.75,1.45,4.46,3.6,5.22,6.4C20.85,19.17,20.94,19.92,20.94,20.7z"/>
			<path class="st0" d="M4.73,5.78C4.7,2.61,7.34-0.07,10.64,0c2.95,0.06,5.64,2.44,5.65,5.78c0,3.3-2.66,5.83-5.87,5.79
				C7.13,11.52,4.69,8.82,4.73,5.78z"/>
		</g>
	</g>
</g>
</svg>
