<?xml version="1.0" encoding="utf-8"?>
<!-- Generator: Adobe Illustrator 23.0.3, SVG Export Plug-In . SVG Version: 6.00 Build 0)  -->
<svg version="1.1" id="Layer_1" xmlns="http://www.w3.org/2000/svg" xmlns:xlink="http://www.w3.org/1999/xlink" x="0px" y="0px"
	 viewBox="0 0 75 125" style="enable-background:new 0 0 75 125;" xml:space="preserve">
<style type="text/css">
	.st0{fill:#B4CADD;}
	.st1{fill:#D7E2EA;}
	.st2{fill:#D63E26;}
	.st3{fill:#D9F7EF;}
	.st4{fill:#F44027;}
	.st5{fill:#FFFFFF;}
</style>
<g id="A_Bag_2_">
	<g>
		<path class="st0" d="M47.44,98.11h6.19c0.55,0,1,0.45,1,1v16.47c0,0.55-0.45,1-1,1h-6.19c-0.55,0-1-0.45-1-1V99.11
			C46.44,98.55,46.89,98.11,47.44,98.11z"/>
		<path class="st0" d="M21.27,98.11h6.19c0.55,0,1,0.45,1,1v16.47c0,0.55-0.45,1-1,1h-6.19c-0.55,0-1-0.45-1-1V99.11
			C20.27,98.55,20.72,98.11,21.27,98.11z"/>
		<path class="st1" d="M10.91,89.13c2.48,1.97,5.83,5.87,6.35,12.76v1.83c0,0.84,0.69,1.52,1.52,1.52h37.38
			c0.84,0,1.52-0.69,1.52-1.52c0-8.09,3.78-12.5,6.48-14.62c4.74-4.85,10.79-9.94,10.79-17.6V20.14c0-10.9-8.92-19.81-19.81-19.81
			H19.86c-10.9,0-19.81,8.92-19.81,19.81v51.37C0.04,79.18,6.55,84.67,10.91,89.13z"/>
		<path class="st2" d="M68.86,20.14c0-7.56-6.15-13.72-13.72-13.72H19.86c-7.56,0-13.72,6.15-13.72,13.72v51.37
			c0,3.29,2.37,6.4,5.07,9.26h52.61c2.8-2.95,5.04-5.89,5.04-9.26V20.14z"/>
		<path class="st3" d="M48.87,114.59h3.34c0.42,0,0.76-0.34,0.76-0.76v-5.44H48.1v5.44C48.1,114.25,48.44,114.59,48.87,114.59z"/>
		<path class="st3" d="M22.7,114.59h3.34c0.42,0,0.76-0.34,0.76-0.76v-5.44h-4.86v5.44C21.94,114.25,22.28,114.59,22.7,114.59z"/>
		<g>
			<path class="st4" d="M13.81,83.12c3.52,2.85,7.64,5.58,8.13,10.24v15.03h4.86c0,0,0-14.49,0-14.49v2.72
				c0.01-0.47,0.24-2.72,3.77-2.72c4.64,0,4.64,2.81,4.64,2.81v28.05h4.62c0,0,0-30.86,0-30.86v2.72c0.01-0.47,0.24-2.72,3.74-2.72
				c3.48,0,4.33,1.6,4.54,2.39v12.1h4.86c0,0,0-14.89,0-14.89c0-1.9,1.48-3.65,2.68-4.97c1.75-1.93,3.84-3.53,5.68-5.37
				c0.81-0.81,1.7-1.6,2.45-2.4c0,0-52.59,0-52.59,0C11.97,81.59,12.87,82.36,13.81,83.12z"/>
			<path class="st2" d="M39.83,96.72v-0.09C39.82,96.68,39.83,96.72,39.83,96.72z"/>
			<path class="st2" d="M26.8,96.72v-0.09C26.8,96.68,26.8,96.72,26.8,96.72z"/>
		</g>
		<path class="st5" d="M17.87,18.12h38.86c1.98,0,3.6,1.62,3.6,3.6v29.66c0,1.98-1.62,3.6-3.6,3.6H17.87c-1.98,0-3.6-1.62-3.6-3.6
			V21.72C14.27,19.74,15.89,18.12,17.87,18.12z"/>
	</g>
</g>
</svg>
