<?xml version="1.0" encoding="utf-8"?>
<!-- Generator: Adobe Illustrator 23.0.3, SVG Export Plug-In . SVG Version: 6.00 Build 0)  -->
<svg version="1.1" id="Layer_1" xmlns="http://www.w3.org/2000/svg" xmlns:xlink="http://www.w3.org/1999/xlink" x="0px" y="0px"
	 viewBox="0 0 216 291" style="enable-background:new 0 0 216 291;" xml:space="preserve">
<style type="text/css">
	.st0{clip-path:url(#SVGID_2_);}
	.st1{fill:#F1BA70;stroke:#545454;stroke-width:1.6902;stroke-miterlimit:10;}
	.st2{fill:#FFFFFF;stroke:#545454;stroke-width:1.7312;stroke-miterlimit:10;}
	.st3{fill:#F1BA70;stroke:#545454;stroke-width:1.7235;stroke-miterlimit:10;}
	.st4{fill:#82D880;stroke:#545454;stroke-width:1.6902;stroke-miterlimit:10;}
	.st5{fill:none;stroke:#545454;stroke-width:1.6902;stroke-miterlimit:10;}
	.st6{fill:#82D880;stroke:#545454;stroke-width:1.6736;stroke-miterlimit:10;}
	.st7{fill:#82D880;}
	.st8{opacity:0.6;fill:#A97529;enable-background:new    ;}
	.st9{fill:#545454;}
	.st10{clip-path:url(#SVGID_4_);}
	.st11{fill:#62356D;stroke:#545454;stroke-width:1.7312;stroke-miterlimit:10;}
	.st12{fill:#F1BA70;stroke:#545454;stroke-width:1.7653;stroke-miterlimit:10;}
	.st13{fill:#D67161;}
	.st14{fill:none;stroke:#545454;stroke-width:2.164;stroke-miterlimit:10;}
	.st15{fill:#B579C4;}
	.st16{fill:#8BC1D7;stroke:#545454;stroke-width:2.164;stroke-miterlimit:10;}
	.st17{fill:#F1BA70;stroke:#545454;stroke-width:1.9506;stroke-miterlimit:10;}
	.st18{opacity:0.45;fill:#F08FB8;enable-background:new    ;}
	.st19{opacity:0.81;fill:#FFFFFF;enable-background:new    ;}
	.st20{fill:#FFFFFF;}
	.st21{fill:none;stroke:#9F215A;stroke-width:2.164;stroke-linecap:round;stroke-miterlimit:10;}
	.st22{fill:none;stroke:#545454;stroke-width:2.164;stroke-linecap:round;stroke-miterlimit:10;}
	.st23{display:none;}
	.st24{display:inline;}
	.st25{clip-path:url(#SVGID_6_);}
	.st26{fill:#82D880;stroke:#545454;stroke-width:1.8365;stroke-miterlimit:10;}
	.st27{fill:none;stroke:#D63E26;stroke-width:2.1732;stroke-linecap:round;stroke-miterlimit:10;}
	.st28{fill:#F1BA70;stroke:#545454;stroke-width:1.7728;stroke-miterlimit:10;}
	.st29{fill:#82D880;stroke:#545454;stroke-width:1.7385;stroke-miterlimit:10;}
	.st30{fill:none;stroke:#545454;stroke-width:1.7385;stroke-miterlimit:10;}
	.st31{fill:none;stroke:#545454;stroke-width:1.7342;stroke-miterlimit:10;}
	.st32{fill:#F1BA70;stroke:#545454;stroke-width:1.7385;stroke-miterlimit:10;}
	.st33{fill:#FFFFFF;stroke:#545454;stroke-width:1.7808;stroke-miterlimit:10;}
	.st34{fill:#F1BA70;stroke:#545454;stroke-width:1.7703;stroke-miterlimit:10;}
	.st35{fill:#62356D;stroke:#545454;stroke-width:1.7361;stroke-miterlimit:10;}
	.st36{fill:none;stroke:#545454;stroke-width:2.1701;stroke-miterlimit:10;}
	.st37{fill:#8BC1D7;stroke:#545454;stroke-width:2.1701;stroke-miterlimit:10;}
	.st38{fill:#F1BA70;stroke:#545454;stroke-width:1.9562;stroke-miterlimit:10;}
	.st39{fill:none;stroke:#9F215A;stroke-width:2.1701;stroke-linecap:round;stroke-miterlimit:10;}
	.st40{fill:none;stroke:#545454;stroke-width:1.8755;stroke-linecap:round;stroke-miterlimit:10;}
</style>
<g>
	<g id="Nurse_1_">
		<g>
			<g>
				<g>
					<g>
						<defs>
							<rect id="SVGID_1_" x="13.8" y="17.2" width="202.1" height="380.8"/>
						</defs>
						<clipPath id="SVGID_2_">
							<use xlink:href="#SVGID_1_"  style="overflow:visible;"/>
						</clipPath>
						<g class="st0">
							<path class="st1" d="M132.3,188.1l9.6,13.8l32.5-0.7l-2.5,5.6l-30.2,0.2c0,0-3.3,0.5-6.3-4.2c-3.5-5.4-8.2-12.9-8.2-12.9
								L132.3,188.1z"/>
							<circle class="st2" cx="74.1" cy="218.7" r="3.4"/>
							<polygon class="st3" points="104.1,185.3 104.5,165.9 95.9,165.7 95.9,148 87,148 87.1,165.4 79.1,165.6 							"/>
							<path class="st4" d="M70.8,241.6c0,0-12.7-0.4-14.7,16.7c-1.6,13.4,7.5,17.4,7.5,17.4L62,355l-1.6,118.2l16.3,0.4l1.2-119
								l3.6-78.5l13.5,0.4l7.5,84.1l-12.7,111l15.5,0.4L118,359.4l-6.3-115L70.8,241.6z"/>
							<path class="st1" d="M79.9,165.5l-13.1,1.2c0,0-34.5,30.5-34.9,34.5s8.7,9.1,33.3,25.4l4.4-4c0,0-30-18.7-30.5-21
								c-0.4-1.6,25-23.4,25-23.4s5.5-0.8,7.5,7.9C73.5,194.8,79.9,165.5,79.9,165.5z"/>
							<path class="st4" d="M43,182.5l8.7,11.1c0,0,14.7-11.1,16.7-11.9c2-0.8,3.6,5.9,5.2,18.2s4,21,3.6,23.4s-12.7,19-12.7,19
								l50,2.8l-0.8-42.8c0,0,2.4-12.3,2.4-16.3c0-5.2,2.3-4.3,3.2-3.6c1.6,1.4,7,11.7,7,11.7l10.8-5.6c0,0-12.9-19.7-16.9-21.1
								c-5.4-1.9-15.6-1.6-15.6-1.6l-4,13.9c-1.1,0.7-12.5-9.1-19.5-14.3c0,0-11.4,0.4-14.2,1.2S43,182.5,43,182.5z"/>
							<path class="st5" d="M76.3,165.9c0,0,24.8,18.7,25.6,18.4s5.8-18.4,5.8-18.4"/>
							<path class="st6" d="M113.2,203.1H87.4c-3.3,0-5.9-2.7-5.9-5.9v-1.6c0-3.3,2.7-5.9,5.9-5.9h25.8c3.3,0,5.9,2.7,5.9,5.9v1.6
								C119.1,200.5,116.5,203.1,113.2,203.1z"/>
							<rect x="77.5" y="187.4" class="st7" width="37.3" height="8.5"/>
							<line class="st5" x1="45" y1="180.1" x2="54.1" y2="191.6"/>
							<polygon class="st8" points="95,153 87.9,153 87.9,150.3 95.3,150.9 							"/>
							<line class="st5" x1="67.6" y1="238.8" x2="113.6" y2="241.2"/>
							<polygon class="st8" points="45.6,187.4 43.8,189 46.7,192.2 48.3,190.9 							"/>
							<path class="st2" d="M77.6,219.4h-7.2c-3.5,0-6.3,2.9-6.3,6.4v1.6c0,3.5,2.9,6.4,6.3,6.4h7.2c3.5,0,6.3-2.9,6.3-6.4v-1.6
								C83.9,222.3,81.1,219.4,77.6,219.4z"/>
							<path class="st2" d="M182.3,197.1h-7.2c-3.5,0-6.4,2.9-6.4,6.4v1.6c0,3.5,2.9,6.4,6.4,6.4h7.2c3.5,0,6.4-2.9,6.4-6.4v-1.6
								C188.6,200,185.8,197.1,182.3,197.1z"/>
							<line class="st5" x1="123.9" y1="191.6" x2="135.1" y2="185.9"/>
							<polygon class="st8" points="133.6,190.8 134.7,192.8 131.1,194.5 130.1,192.9 							"/>
							<path class="st2" d="M117.7,471.2H93.2c-0.4,0-0.8,0-1.2,0.1v8.6h33.1l0,0C125.1,475.1,121.8,471.2,117.7,471.2z"/>
							<path class="st2" d="M88.9,473.4H64.4c-0.4,0-0.8,0-1.2,0.1v8.6h33.1l0,0C96.3,477.3,93,473.4,88.9,473.4z"/>
							
								<ellipse transform="matrix(0.6212 -0.7837 0.7837 0.6212 -316.3952 298.67)" class="st9" cx="150.7" cy="476.6" rx="7.4" ry="7.8"/>
							<circle class="st2" cx="172" cy="197.3" r="3.4"/>
						</g>
					</g>
				</g>
			</g>
		</g>
		<g>
			<g>
				<g>
					<g>
						<defs>
							<rect id="SVGID_3_" x="13.8" y="17.2" width="202.1" height="380.8"/>
						</defs>
						<clipPath id="SVGID_4_">
							<use xlink:href="#SVGID_3_"  style="overflow:visible;"/>
						</clipPath>
						<g class="st10">
							<path class="st11" d="M85.5,48.1L85.5,48.1L85.5,48.1c-3.7-11.6-12.9-19-25-20c-10.4-0.9-21.6,2.8-28.9,10.4
								c-1,1-1.9,2.2-2.7,3.3c-7.4,10.8-10.3,27.7-6.5,40.3c2.7,9.1,9.1,29.2,11.5,42.5c0,0.1,0,0.2,0,0.3c0.7,4.2,1,7.6,0.5,9.6
								c0,0-1.2,9.8-6.1,13.4c0,0,11.6-1.8,18.3-8.5s12.2-21.9,12.2-21.9S54.6,75.8,69,57.3c0.2,0.2,0.4,0.3,0.5,0.2l0,0
								c3.7-4.6,8.6-7.7,15-8.2c0.4-0.2,0.8-0.5,1.2-0.7C85.6,48.5,85.6,48.3,85.5,48.1z"/>
							<path class="st12" d="M100.2,59H92c-14.5,0-26.4,11.9-26.4,26.4v37.4c0,14.5,11.9,26.4,26.4,26.4h8.2
								c14.5,0,26.4-11.9,26.4-26.4V85.4C126.6,70.9,114.7,59,100.2,59z"/>
							<polygon class="st13" points="105.6,121.8 97.9,121.3 100.8,102.9 101.4,102.9 							"/>
							<path class="st14" d="M97.1,105.7c0,0,3.4-4.6,8.1,0"/>
							<path class="st11" d="M68.4,73.6c0,0,38.4,31.4,75.1,27.3c0,0,7.2-1.7,10.2-2.9c0,0-14-40.8-48.7-47.5
								C81.3,45.9,53.9,53,44.7,77.9c-11.4,30.7,23.2,58.5,22.5,52.4C65.3,110.8,64.2,96.8,68.4,73.6z"/>
							<g>
								<path class="st15" d="M84,48.6l0.7-0.1l0,0C81.1,37,72.1,29.7,60.3,28.7c-10.1-0.9-21,2.7-28.1,10.3c-1,1-1.8,2.1-2.6,3.3
									c-7.2,10.7-10,27.5-6.4,40.1c2.2,7.4,6.8,22.3,9.7,34.7c1.2-18.5-7.1-36.8-3.1-55c2.2-10,10.1-19.1,20.7-21
									c10.8-2,14.9,2.2,20.8,10.4c2.8-0.9,5-1.6,8-2C81.3,48.9,84.1,48.8,84,48.6z"/>
							</g>
							<path class="st15" d="M43.5,93.7c0,0,6.7-27.1,25.6-32.9s42.7-2.4,63.7,14.6c0,0,10.1,10.4,8.8,14.6c0,0-1.2,2.7-16.5,4
								c0,0,10.8-0.3,11.7,2.7c0.6,2,0.5,3.5,0.5,3.5s5.8,0.8,14.9-2.9c0.8-0.3-4.9-12.2-8.8-17.8c-8.9-12.7-21.6-24.7-37.5-28
								c-9-1.9-18.7-2.1-27.4-0.5c-8.8,1.6-16.7,5.8-23.1,12.2c-3.6,3.5-6.8,8.1-8.8,12.8C44.2,82,43.1,87.6,43.5,93.7z"/>
							<path class="st16" d="M105.1,105.7c-0.8-2.6,0.4-5,4.7-7.2c4.1-2.2,7-2.8,13.1-3.7c2.8-0.4,11.7-0.3,13.2,2.4
								c2.1,3.7-2.3,9.7-4.8,12.5c-3.5,3.9-10.7,5.9-16,4.3C110.9,112.6,106.2,109.3,105.1,105.7z"/>
							<ellipse class="st17" cx="61.4" cy="110.7" rx="6.9" ry="6.4"/>
							<path class="st8" d="M67.4,120.1c0,0,1.4,24.4,31.1,28.2c0,0-23.3,4-30.5-17.1C66.9,128.2,67.1,124.4,67.4,120.1z"/>
							<circle class="st18" cx="78" cy="117.7" r="7.3"/>
							<circle class="st18" cx="116.6" cy="117.7" r="7.3"/>
							<path class="st16" d="M105.1,105.7c-0.8-2.6,0.4-5,4.7-7.2c4.1-2.2,7-2.8,13.1-3.7c2.8-0.4,11.7-0.3,13.2,2.4
								c2.1,3.7-2.3,9.7-4.8,12.5c-3.5,3.9-10.7,5.9-16,4.3C110.9,112.6,106.2,109.3,105.1,105.7z"/>
							<path class="st16" d="M97.1,105.7c0.8-2.6-0.3-5.1-4.7-7.2c-4.6-2.3-9.3-3-14.9-3.8c-3.1-0.4-9.5-0.8-11.4,2.5
								c-2.1,3.7,2.3,9.7,4.8,12.5c3.5,3.9,10.7,5.9,16,4.3C91.3,112.6,95.9,109.3,97.1,105.7z"/>
							<path class="st9" d="M81.7,108.5H81c-0.9,0-1.7-0.8-1.7-1.7v-4.6c0-0.9,0.8-1.7,1.7-1.7h0.7c0.9,0,1.7,0.8,1.7,1.7v4.6
								C83.4,107.7,82.7,108.5,81.7,108.5z"/>
							<path class="st9" d="M113.4,108.5h-0.8c-0.9,0-1.7-0.8-1.7-1.7v-4.6c0-0.9,0.8-1.7,1.7-1.7h0.8c0.9,0,1.7,0.8,1.7,1.7v4.6
								C115.1,107.7,114.3,108.5,113.4,108.5z"/>
							<polygon class="st19" points="122.7,114 115.1,113.2 124.5,94.8 132,95.4 							"/>
							<polygon class="st19" points="89.8,113.2 82.9,113.2 91.2,97 96.9,100.2 							"/>
							<path class="st14" d="M105.1,105.7c-0.8-2.6,0.4-5,4.7-7.2c4.1-2.2,7-2.8,13.1-3.7c2.8-0.4,11.7-0.3,13.2,2.4
								c2.1,3.7-2.3,9.7-4.8,12.5c-3.5,3.9-10.7,5.9-16,4.3C110.9,112.6,106.2,109.3,105.1,105.7z"/>
							<path class="st14" d="M97.1,105.7c0.8-2.6-0.3-5.1-4.7-7.2c-4.6-2.3-9.3-3-14.9-3.8c-3.1-0.4-9.5-0.8-11.4,2.5
								c-2.1,3.7,2.3,9.7,4.8,12.5c3.5,3.9,10.7,5.9,16,4.3C91.3,112.6,95.9,109.3,97.1,105.7z"/>
							<g>
								<path class="st20" d="M92.3,129.8l7.2,0.2c0,0-0.4-3.6-3.7-3.8C93.2,126,92.3,129.8,92.3,129.8z"/>
								<path class="st9" d="M91.6,130h8.8c0,0-1.6,6.6-4.4,6C93.2,135.3,91.6,130,91.6,130z"/>
								<ellipse class="st21" cx="96" cy="130.6" rx="4.6" ry="5.4"/>
							</g>
							<path class="st22" d="M76.5,89.8c0.6-0.2,5.5-5.1,13-5.5"/>
							<path class="st22" d="M109,84.8c0.6,0.3,7.5,0.3,13.1,5.3"/>
						</g>
					</g>
				</g>
			</g>
		</g>
	</g>
</g>
<g class="st23">
	<g class="st24">
		<g>
			<g>
				<g>
					<g>
						<defs>
							<rect id="SVGID_5_" x="6.9" y="18.7" width="153" height="272.2"/>
						</defs>
						<clipPath id="SVGID_6_">
							<use xlink:href="#SVGID_5_"  style="overflow:visible;"/>
						</clipPath>
						<g class="st25">
							<path class="st26" d="M111.2,244.7h-32l-2-1.3l-6.2,3c-5,2.6-8.5,7.8-8.5,13.9v3.6c0,5.5,2.9,10.4,7.3,13.1l-0.1,2.2
								L68,360.8l-1.6,121.6l16.7,0.4l1.2-122.4l3.7-80.8l13.9,0.4l-5.1,203.4l15.9,0.4l5.5-206.1c5.1-2.6,8.6-7.8,8.6-13.9v-3.6
								C126.8,251.7,119.7,244.7,111.2,244.7z"/>
							<path class="st27" d="M144.4,186.5"/>
							<polygon class="st28" points="94.2,185.6 105.4,165.7 96.7,165.5 96.7,147.3 87.5,147.3 87.5,165.4 79.4,165.4 							"/>
							<g>
								<path class="st29" d="M105.9,165.7c-0.3,0-0.4,0-0.4,0L94,179.9C96.4,177.9,101.6,170.6,105.9,165.7z"/>
								<polygon class="st29" points="115,245.8 115,245.6 108.4,245.7 								"/>
								<path class="st29" d="M118.7,182.4c-1.8-0.7-2.3,4.5-2.8,14.8c0.7-3.8,1.3-8.5,1.3-10.7c0-3.2,0.8-3.9,1.6-3.9
									C118.8,182.5,118.7,182.4,118.7,182.4z"/>
								<path class="st29" d="M94.1,179.8l-0.1,0.1C93.9,179.9,94,179.9,94.1,179.8L94.1,179.8z"/>
								<path class="st29" d="M68.3,182c-0.2,0.1-0.4,0.5-0.6,1c1-0.1,2,0.2,2,3.9c0,2.2,0.7,7.1,1.4,11
									C70.6,186.9,70.2,181.2,68.3,182z"/>
								<path class="st29" d="M131.9,203.1c-0.2-5.8-0.6-10.7-0.6-17.4v-0.1c0-4.9,0.6-11-1.4-15c-1.4-2.8-4-4.7-9-4.5
									c-3,0.1-15-0.5-15-0.5s0,0-0.1,0.1c-4.3,4.9-9.5,12.2-11.8,14.2l-0.1,0.1c0,0,0,0-0.1,0c-1.2,0.5-7.8-8.8-12.9-14.7
									c0,0-12.1,0.5-15,0.5c-5.6-0.1-8.2,2.2-9.4,5.5c-1.5,4-1,9.5-1,14.1c0,0.3,0,0.6,0,0.9c0,6.3-0.4,11-0.6,16.5H67
									c0,0-0.5-15.5,0.8-19.7c0.2-0.6,0.4-0.9,0.6-1c1.9-0.8,2.3,4.9,2.8,15.9c0.5,3.2,1,5.8,1,5.8L72,245.2l36.4,0.5l6.6-0.1
									l-0.2-42.4c0,0,0.5-2.7,1.1-6.1c0.5-10.2,0.9-15.5,2.8-14.8c0.1,0,0.2,0.1,0.2,0.2c1.8,2.1,1.1,20.5,1.1,20.5L131.9,203.1
									L131.9,203.1z"/>
							</g>
							<path class="st29" d="M110.7,204h-34c-3.5,0-6.4-2.9-6.4-6.4V196c0-3.5,2.9-6.4,6.4-6.4h34c3.5,0,6.4,2.9,6.4,6.4v1.6
								C117.1,201.1,114.2,204,110.7,204z"/>
							<rect x="75.6" y="184.1" class="st7" width="35.6" height="14.8"/>
							<rect x="80.2" y="188.4" class="st7" width="26.1" height="17.9"/>
							<line class="st30" x1="55.9" y1="199" x2="67.3" y2="199"/>
							<polygon class="st8" points="95.7,152.4 88.4,152.4 88.4,149.7 96,150.3 							"/>
							<line class="st31" x1="71.9" y1="241.4" x2="115" y2="242"/>
							<path class="st30" d="M77.1,165.7c0,0,15.8,20.4,16.5,20.2c0.8-0.2,16.5-20.2,16.5-20.2"/>
							<rect x="58.1" y="203.3" class="st32" width="6" height="65.7"/>
							<circle class="st33" cx="69.3" cy="273.8" r="3.5"/>
							<path class="st33" d="M53.9,277.9v-8.5c0-3.3,2.7-6,6-6h2.7c3.3,0,6,2.7,6,6v8.5c0,3.3-2.7,6-6,6h-2.7
								C56.6,283.9,53.9,281.2,53.9,277.9z"/>
							<polygon class="st8" points="58.9,204.2 58.9,206.7 63.4,206.7 63.3,204.2 							"/>
							<rect x="122.6" y="203.3" class="st32" width="6" height="65.7"/>
							<circle class="st33" cx="117.3" cy="273.8" r="3.5"/>
							<path class="st33" d="M132.8,277.9v-8.5c0-3.3-2.7-6-6-6h-2.7c-3.3,0-6,2.7-6,6v8.5c0,3.3,2.7,6,6,6h2.7
								C130.1,283.9,132.8,281.2,132.8,277.9z"/>
							<polygon class="st8" points="127.8,204.2 127.8,206.7 123.3,206.7 123.3,204.2 							"/>
							<g>
								<path class="st34" d="M91.6,58.7h8.3c14.6,0,26.5,11.9,26.5,26.5v37.5c0,14.6-11.9,26.5-26.5,26.5h-8.3
									c-14.6,0-26.5-11.9-26.5-26.5V85.2C65.1,70.6,77.1,58.7,91.6,58.7z"/>
								<path class="st35" d="M85.2,47.7L85.2,47.7L85.2,47.7c-3.7-11.6-12.9-19-25.1-20c-10.4-0.9-21.7,2.8-29,10.5
									c-1,1-1.9,2.2-2.7,3.3C21,52.3,18,69.2,21.8,81.9c2.7,9.1,9.2,29.3,11.5,42.6c0,0.1,0,0.2,0,0.3c0.7,4.2,1,7.6,0.5,9.6
									c0,0-1.2,9.8-6.1,13.4c0,0,11.6-1.8,18.3-8.6s12.2-22,12.2-22s-4-41.6,10.4-60.2c0.2,0.2,0.4,0.3,0.5,0.2l0,0
									c3.7-4.6,8.6-7.7,15.1-8.2c0.4-0.2,0.8-0.5,1.2-0.7C85.3,48.1,85.2,47.9,85.2,47.7z"/>
								<polygon class="st13" points="105.3,121.6 97.6,121.2 100.6,102.7 101.2,102.7 								"/>
								<path class="st36" d="M96.8,105.5c0,0,3.4-4.6,8.1,0"/>
								<path class="st35" d="M68.1,73.4c0,0,38.5,31.5,75.3,27.3c0,0,7.2-1.7,10.2-2.9c0,0-14.1-40.9-48.9-47.7
									c-23.8-4.6-51.2,2.5-60.5,27.5c-11.4,30.8,23.2,58.7,22.6,52.6C64.9,110.6,63.8,96.6,68.1,73.4z"/>
								<path class="st15" d="M83.7,48.3l0.7-0.1l0,0C80.8,36.7,71.8,29.3,60,28.3C49.8,27.4,38.8,31,31.7,38.7
									c-1,1-1.9,2.1-2.6,3.3C21.9,52.7,19,69.6,22.7,82.2c2.2,7.4,6.8,22.4,9.7,34.8c1.2-18.5-7.1-37-3.1-55.2
									c2.2-10,10.1-19.2,20.8-21.1c10.9-2,15,2.2,20.9,10.4c2.8-0.9,5-1.6,8-2.1C81,48.6,83.8,48.5,83.7,48.3z"/>
								<path class="st15" d="M43,93.5c0,0,6.7-27.2,25.7-33c18.9-5.8,42.8-2.4,63.8,14.7c0,0,10.1,10.4,8.9,14.7
									c0,0-1.2,2.8-16.5,4c0,0,10.8-0.3,11.8,2.8c0.6,2,0.5,3.5,0.5,3.5s5.8,0.8,15-2.9c0.8-0.3-4.9-12.2-8.9-17.9
									c-8.9-12.7-21.7-24.8-37.6-28.1c-9-1.9-18.7-2.1-27.5-0.5C69.3,52.3,61.4,56.6,55,63c-3.6,3.6-6.9,8.1-8.8,12.8
									C43.8,81.8,42.7,87.4,43,93.5z"/>
								<path class="st37" d="M104.9,105.5c-0.8-2.6,0.4-5,4.7-7.3c4.1-2.2,7.1-2.8,13.1-3.7c2.8-0.4,11.7-0.3,13.2,2.4
									c2.1,3.7-2.3,9.8-4.8,12.5c-3.5,3.9-10.7,5.9-16.1,4.3C110.6,112.5,106,109.2,104.9,105.5z"/>
								<ellipse class="st38" cx="61" cy="110.6" rx="6.9" ry="6.4"/>
								<path class="st39" d="M85.8,124.7c0,0,4.9,8.6,18.3,5.5"/>
								<path class="st8" d="M67,120c0,0,1.4,24.4,31.2,28.3c0,0-23.4,4-30.6-17.1C66.6,128.1,66.8,124.3,67,120z"/>
								<circle class="st18" cx="77.7" cy="117.6" r="7.3"/>
								<circle class="st18" cx="116.3" cy="117.6" r="7.3"/>
								<path class="st37" d="M104.9,105.5c-0.8-2.6,0.4-5,4.7-7.3c4.1-2.2,7.1-2.8,13.1-3.7c2.8-0.4,11.7-0.3,13.2,2.4
									c2.1,3.7-2.3,9.8-4.8,12.5c-3.5,3.9-10.7,5.9-16.1,4.3C110.6,112.5,106,109.2,104.9,105.5z"/>
								<path class="st37" d="M96.8,105.5c0.8-2.6-0.3-5.1-4.7-7.3c-4.6-2.3-9.4-3.1-14.9-3.8C74,94,67.7,93.6,65.8,97
									c-2.1,3.7,2.3,9.8,4.8,12.5c3.5,3.9,10.7,5.9,16.1,4.3C91,112.5,95.7,109.2,96.8,105.5z"/>
								<path class="st9" d="M81.4,108.3h-0.7c-0.9,0-1.7-0.8-1.7-1.7V102c0-0.9,0.8-1.7,1.7-1.7h0.7c0.9,0,1.7,0.8,1.7,1.7v4.6
									C83.1,107.6,82.3,108.3,81.4,108.3z"/>
								<path class="st9" d="M113.1,108.3h-0.8c-0.9,0-1.7-0.8-1.7-1.7V102c0-0.9,0.8-1.7,1.7-1.7h0.8c0.9,0,1.7,0.8,1.7,1.7v4.6
									C114.8,107.6,114.1,108.3,113.1,108.3z"/>
								<polygon class="st19" points="122.5,113.9 114.9,113.1 124.3,94.6 131.8,95.2 								"/>
								<polygon class="st19" points="89.5,113.1 82.6,113.1 90.9,96.8 96.6,100.1 								"/>
								<path class="st36" d="M104.9,105.5c-0.8-2.6,0.4-5,4.7-7.3c4.1-2.2,7.1-2.8,13.1-3.7c2.8-0.4,11.7-0.3,13.2,2.4
									c2.1,3.7-2.3,9.8-4.8,12.5c-3.5,3.9-10.7,5.9-16.1,4.3C110.6,112.5,106,109.2,104.9,105.5z"/>
								<path class="st36" d="M96.8,105.5c0.8-2.6-0.3-5.1-4.7-7.3c-4.6-2.3-9.4-3.1-14.9-3.8C74,94,67.7,93.6,65.8,97
									c-2.1,3.7,2.3,9.8,4.8,12.5c3.5,3.9,10.7,5.9,16.1,4.3C91,112.5,95.7,109.2,96.8,105.5z"/>
								<path class="st40" d="M72,88.9c0,0,7.9-5.5,12.8,1.8"/>
								<path class="st40" d="M107.5,89.6c0,0,7.9-5.5,12.8,1.8"/>
							</g>
						</g>
					</g>
				</g>
			</g>
		</g>
	</g>
</g>
</svg>
