<?xml version="1.0" encoding="utf-8"?>
<!-- Generator: Adobe Illustrator 23.0.3, SVG Export Plug-In . SVG Version: 6.00 Build 0)  -->
<svg version="1.1" id="Layer_1" xmlns="http://www.w3.org/2000/svg" xmlns:xlink="http://www.w3.org/1999/xlink" x="0px" y="0px"
	 viewBox="0 0 389 144" style="enable-background:new 0 0 389 144;" xml:space="preserve">
<style type="text/css">
	.st0{clip-path:url(#SVGID_2_);}
	.st1{fill:#B7B7B7;}
	.st2{fill:#545454;}
	.st3{fill:#09668D;}
	.st4{fill:#7797CC;stroke:#545454;stroke-width:1.7023;stroke-miterlimit:10;}
	.st5{fill:#A97529;}
	.st6{fill:none;stroke:#545454;stroke-width:1.7633;stroke-miterlimit:10;}
	.st7{fill:#B29821;}
	.st8{fill:#7797CC;stroke:#545454;stroke-width:1.6628;stroke-miterlimit:10;}
	.st9{fill:#8BC1D7;stroke:#545454;stroke-width:1.637;stroke-miterlimit:10;}
</style>
<g id="Table_1_">
	<defs>
		<rect id="SVGID_1_" x="0.04" y="-1.3" width="389.32" height="153.88"/>
	</defs>
	<clipPath id="SVGID_2_">
		<use xlink:href="#SVGID_1_"  style="overflow:visible;"/>
	</clipPath>
	<g class="st0">
		<g>
			<path class="st1" d="M150.98,106.75c-10.43,0-18.92-8.49-18.92-18.92V66.39c0-10.43,8.49-18.92,18.92-18.92h251.42
				c10.43,0,18.92,8.49,18.92,18.92v21.44c0,10.43-8.49,18.92-18.92,18.92H150.98z M402.39,100.87c7.19,0,13.03-5.85,13.03-13.03
				V66.39c0-7.19-5.85-13.03-13.03-13.03H287.2v47.51H402.39z M150.98,53.36c-7.19,0-13.03,5.85-13.03,13.03v21.44
				c0,7.19,5.85,13.03,13.03,13.03h126.13V53.36H150.98z"/>
			<path class="st2" d="M402.39,48.31c9.97,0,18.08,8.11,18.08,18.08v21.44c0,9.97-8.11,18.08-18.08,18.08H150.98
				c-9.97,0-18.08-8.11-18.08-18.08V66.39c0-9.97,8.11-18.08,18.08-18.08H402.39 M277.95,100.87V52.52H150.98
				c-7.65,0-13.87,6.22-13.87,13.87v21.44c0,7.65,6.22,13.87,13.87,13.87h251.42c7.65,0,13.87-6.22,13.87-13.87V66.39
				c0-7.65-6.22-13.87-13.87-13.87H286.36v48.35H277.95 M402.39,46.63H150.98c-10.9,0-19.76,8.86-19.76,19.76v21.44
				c0,10.9,8.86,19.76,19.76,19.76h251.42c10.9,0,19.76-8.86,19.76-19.76V66.39C422.15,55.5,413.29,46.63,402.39,46.63L402.39,46.63
				z M288.04,54.2h114.36c6.72,0,12.19,5.47,12.19,12.19v21.44c0,6.72-5.47,12.19-12.19,12.19H288.04V54.2L288.04,54.2z
				 M150.98,100.03c-6.72,0-12.19-5.47-12.19-12.19V66.39c0-6.72,5.47-12.19,12.19-12.19h125.29v45.83H150.98L150.98,100.03z"/>
		</g>
		<g>
			<path class="st3" d="M58.19,130.72c-4.71,0-8.53-3.83-8.53-8.53v-2.27c0-4.71,3.83-8.53,8.53-8.53h329.36
				c4.71,0,8.53,3.83,8.53,8.53v2.27c0,4.71-3.83,8.53-8.53,8.53H58.19z"/>
			<path class="st2" d="M387.55,112.22c4.23,0,7.69,3.46,7.69,7.69v2.27c0,4.23-3.46,7.69-7.69,7.69H58.19
				c-4.23,0-7.69-3.46-7.69-7.69v-2.27c0-4.23,3.46-7.69,7.69-7.69H387.55 M387.55,110.54H58.19c-5.17,0-9.38,4.21-9.38,9.38v2.27
				c0,5.17,4.21,9.38,9.38,9.38h329.36c5.17,0,9.38-4.21,9.38-9.38v-2.27C396.93,114.74,392.72,110.54,387.55,110.54L387.55,110.54z
				"/>
		</g>
		<g>
			<path class="st1" d="M39.91,143.33c-3.9,0-7.07-3.17-7.07-7.07v-1.84c0-3.9,3.17-7.07,7.07-7.07h450.01
				c3.9,0,7.07,3.17,7.07,7.07v1.84c0,3.9-3.17,7.07-7.07,7.07H39.91z"/>
			<path class="st2" d="M489.92,128.2c3.43,0,6.23,2.8,6.23,6.23v1.84c0,3.43-2.8,6.23-6.23,6.23H39.91c-3.43,0-6.23-2.8-6.23-6.23
				v-1.84c0-3.43,2.8-6.23,6.23-6.23H489.92 M489.92,126.51H39.91c-4.36,0-7.91,3.55-7.91,7.91v1.84c0,4.36,3.55,7.91,7.91,7.91
				h450.01c4.36,0,7.91-3.55,7.91-7.91v-1.84C497.83,130.06,494.28,126.51,489.92,126.51L489.92,126.51z"/>
		</g>
	</g>
</g>
<g id="Boots_2_">
	<rect x="136.1" y="88.71" class="st4" width="253.56" height="23.29"/>
	<g>
		<polygon class="st2" points="90.32,90.32 98.68,88.35 100.01,92.09 		"/>
		<path class="st2" d="M90.32,90.32v12.34c0,0,8.82,7.93,13.22,7.93c4.41,0-3.87-20.27-3.87-20.27L90.32,90.32z"/>
		<g>
			<path class="st5" d="M105.85,112.4c-3.71,0-5.32-1.73-5.62-2.1c-0.68-0.73-0.83-2.25-0.96-4.15c-0.02-0.35-0.04-0.65-0.07-0.86
				c-0.19-1.55-0.31-3.1-0.43-4.67l-0.09-1.22c-0.19-2.7-0.39-5.49-0.9-8.16c-0.74-3.8-2.66-7.39-4.52-10.87
				c-1.16-2.16-2.35-4.4-3.27-6.68c-3.29-8.23-0.68-17.78,7.97-29.19c0.17-0.22,0.38-0.53,0.63-0.89c1.87-2.69,3.86-5.31,5.81-5.32
				c0.55,0,1.05,0.22,1.44,0.63c1.1,1.16,1.01,3.64,0.98,4.12l-0.66,33.99c0.69,5.38,3.85,31.46,0.96,34.78
				c-0.41,0.47-0.86,0.57-1.17,0.57H105.85z"/>
			<path class="st2" d="M104.42,39.19c1.76,0,1.54,3.82,1.54,3.82L105.3,77.1c0,0,4.41,34.38,0.66,34.42c-0.04,0-0.07,0-0.11,0
				c-3.66,0-4.96-1.8-4.96-1.8c-0.7-0.7-0.69-3.57-0.81-4.53c-0.19-1.54-0.31-3.08-0.42-4.63c-0.23-3.17-0.4-6.36-1-9.48
				c-1.23-6.33-5.47-11.79-7.83-17.7c-3.97-9.92,1.93-20.51,7.86-28.33C99.69,43.71,102.43,39.19,104.42,39.19 M104.42,37.42
				L104.42,37.42c-2.38,0-4.45,2.69-6.54,5.69c-0.24,0.35-0.45,0.65-0.61,0.86c-8.86,11.68-11.51,21.51-8.09,30.05
				c0.93,2.33,2.14,4.58,3.31,6.77c1.91,3.57,3.72,6.94,4.43,10.62c0.51,2.62,0.7,5.39,0.89,8.06l0.09,1.21
				c0.12,1.58,0.24,3.13,0.43,4.72c0.02,0.2,0.04,0.48,0.06,0.81c0.14,2.13,0.31,3.72,1.17,4.67c0.45,0.55,2.28,2.41,6.29,2.41
				l0.13,0c0.69-0.01,1.34-0.32,1.83-0.87c0.72-0.83,2.23-2.56,0.89-19.58c-0.59-7.51-1.49-14.78-1.63-15.83l0.66-33.93
				c0.04-0.81,0.07-3.37-1.22-4.74C105.95,37.75,105.21,37.42,104.42,37.42L104.42,37.42z"/>
		</g>
		<g>
			<path class="st5" d="M110.16,112.67c-3.87,0-6.25-0.83-6.35-0.86l-0.49-0.17l-0.09-0.51c-0.25-1.44-0.44-2.86-0.6-4.06
				c-0.3-2.28-0.43-4.6-0.55-6.83c-0.1-1.82-0.21-3.71-0.4-5.54c-0.36-3.41-1.46-7.15-3.09-10.52c-0.58-1.21-1.23-2.44-1.86-3.63
				c-2.73-5.18-5.54-10.53-4.65-16.81c0.85-5.99,9.63-20.67,11.94-21.82c0.55-0.28,1.19-0.42,1.83-0.42c1.92,0,3.86,1.32,3.86,3.86
				c0,0.78-0.24,1.77-0.53,3.02c-0.82,3.43-2.05,8.61,0.46,14.26c3.31,7.44,9.79,9.17,22.18,10.06c0.69,0.05,1.45,0.07,2.25,0.07
				c12.78,0,36.02-6.16,36.25-6.22l0.49-0.13l0.36,0.36c7.76,7.76,11.65,15.99,11.56,24.45c-0.13,12.32-8.6,20.58-8.96,20.93
				l-0.27,0.26l-0.37-0.01c-1.05-0.04-25.66-0.93-29.24-1.82c-0.49-0.12-1.83-0.33-5.39-0.33c-6.65,0-17.25,0.72-22.42,1.8
				C114.09,112.46,112.11,112.67,110.16,112.67z"/>
			<path class="st2" d="M105.86,42.38c1.49,0,2.98,0.99,2.98,2.98c0,2.64-3.53,9.7,0,17.63s10.58,9.7,22.92,10.58
				c0.73,0.05,1.5,0.08,2.32,0.08c13.05,0,36.48-6.25,36.48-6.25c23.8,23.8,2.61,44.12,2.61,44.12s-25.53-0.92-29.06-1.8
				c-0.97-0.24-3.01-0.35-5.6-0.35c-6.83,0-17.49,0.76-22.6,1.82c-2.15,0.45-4.08,0.6-5.73,0.6c-3.77,0-6.06-0.81-6.06-0.81
				c-0.23-1.33-0.42-2.68-0.59-4.02c-0.53-4.11-0.51-8.24-0.95-12.35c-0.39-3.65-1.59-7.53-3.17-10.81
				c-3.09-6.39-7.48-12.51-6.42-19.93c0.88-6.17,9.7-20.28,11.46-21.16C104.86,42.49,105.36,42.38,105.86,42.38 M105.86,40.62
				c-0.78,0-1.55,0.18-2.22,0.52c-1.9,0.95-5.69,7.35-6.8,9.29c-1.85,3.23-5.05,9.23-5.62,13.19c-0.94,6.56,1.95,12.04,4.74,17.34
				c0.62,1.18,1.26,2.4,1.84,3.6c1.56,3.24,2.66,6.96,3.01,10.23c0.19,1.81,0.3,3.68,0.4,5.49c0.13,2.25,0.26,4.58,0.56,6.9
				c0.16,1.21,0.35,2.64,0.6,4.1l0.18,1.02l0.97,0.34c0.11,0.04,2.63,0.91,6.65,0.91c2,0,4.05-0.22,6.09-0.64
				c5.04-1.05,15.77-1.78,22.24-1.78c3.59,0,4.82,0.21,5.18,0.3c3.6,0.9,26.79,1.76,29.42,1.85l0.75,0.03l0.54-0.52
				c0.37-0.36,9.1-8.87,9.24-21.55c0.09-8.71-3.88-17.15-11.82-25.08l-0.72-0.72l-0.98,0.26c-0.23,0.06-23.36,6.19-36.02,6.19
				c-0.79,0-1.52-0.02-2.19-0.07c-12.03-0.86-18.31-2.51-21.44-9.54c-2.39-5.37-1.2-10.38-0.41-13.69c0.31-1.31,0.56-2.34,0.56-3.22
				C110.59,42.28,108.15,40.62,105.86,40.62L105.86,40.62z"/>
		</g>
		<path class="st6" d="M107.95,56.62c0,0-7.74,2.85-13.9,1.99"/>
		<path class="st6" d="M127.44,72.13c-3.28,0.48-7.38,0.93-10.33,2.65c-3.43,2.01-5.73,7.42-3.87,11.13
			c1.76,3.53,6.85,19.87,8.82,24.69"/>
		<g>
			<path class="st5" d="M181.42,97.25c-0.5,0-1.05-0.06-1.65-0.18c-3.42-0.66-11-1.46-11.08-1.47l-0.44-0.05l-3.18-5.29l3.24-4.32
				l14.14-1.13l0.1,0.02c0.35,0.06,2.09,0.54,2.09,4.61c0,3.52,0.02,5.39,0.02,5.4C184.67,95.68,183.99,97.25,181.42,97.25z"/>
			<path class="st2" d="M182.42,85.7c0,0,1.35,0.21,1.35,3.74s0.02,5.4,0.02,5.4s0,1.52-2.36,1.52c-0.42,0-0.91-0.05-1.48-0.16
				c-3.5-0.68-11.16-1.48-11.16-1.48l-2.64-4.41l2.64-3.53L182.42,85.7 M182.49,83.93l-0.21,0.02l-13.64,1.09l-0.79,0.06l-0.48,0.64
				l-2.64,3.53l-0.71,0.95l0.61,1.02l2.64,4.41l0.45,0.75l0.88,0.09c0.08,0.01,7.62,0.8,11,1.46c0.66,0.13,1.27,0.19,1.82,0.19
				c3.03,0,4.13-1.97,4.13-3.29c0-0.02-0.02-1.89-0.02-5.4c0-4.67-2.17-5.38-2.84-5.48L182.49,83.93L182.49,83.93z"/>
		</g>
		<line class="st6" x1="115.23" y1="90.67" x2="166.14" y2="90.32"/>
		<circle class="st7" cx="171.87" cy="90.76" r="2.2"/>
		<path class="st7" d="M130.11,109.6c2.84-0.37,5.37-4.93,5.37-4.93c2.43,2.85,4.26,2.11,5.27,0.42c1.02-1.69,0.28-3.52-2.29-4.6
			c-2.57-1.09-3.65,1.48-9,1.94c-5.34,0.46-8.16-8.61-8.16-8.61c3.1,5.55,10.27,4.35,12.17,2.73c1.9-1.62,6.43-3.03,6.43-3.03
			c8.86-0.18,10.27,4.35,10.27,4.35c-6.82-3.19-10.69,0.92-10.69,0.92s2.64,0.21,4.39,0.35c1.76,0.14,5.06,3.05,6.75,4.07
			c1.69,1.02,4.32,1.23,5.48-2.22c1.16-3.45-3.03-6.43-3.03-6.43s6.96,1.44,6.54,6.71c-0.42,5.27-6.71,6.54-6.71,6.54
			c2.71-0.67,5.34-0.46,9.07-2.82c3.72-2.36,4.46-0.53,4.46-0.53c-1.16,3.45-4.1,6.53-4.1,6.53L130.11,109.6z"/>
		<path class="st7" d="M129.99,73.57c4.41,0.88,5.92,2.53,5.92,2.53c2.43-2.85,4.26-2.11,5.27-0.42c1.02,1.69,0.28,3.52-2.29,4.6
			c-2.57,1.09-3.65-1.48-9-1.94c-5.34-0.46-8.16,8.61-8.16,8.61c3.1-5.55,10.27-4.35,12.17-2.73c1.9,1.62,6.43,3.03,6.43,3.03
			c8.86,0.18,10.27-4.35,10.27-4.35c-6.82,3.19-10.69-0.92-10.69-0.92s2.64-0.21,4.39-0.35c1.76-0.14,5.06-3.05,6.75-4.07
			c1.69-1.02,4.32-1.23,5.48,2.22c1.16,3.45-3.03,6.43-3.03,6.43s6.96-1.44,6.54-6.71c-0.42-5.27-6.71-6.54-6.71-6.54
			c2.71,0.67,5.34,0.46,9.07,2.82s4.46,0.53,4.46,0.53c-1.16-3.45-4.27-7.14-4.27-7.14C158.2,71.81,129.99,73.57,129.99,73.57z"/>
	</g>
	<rect x="136.1" y="90.84" class="st8" width="253.56" height="22.22"/>
	<g>
		<polygon class="st2" points="78.19,92.05 86.56,90.07 87.89,93.81 		"/>
		<path class="st2" d="M78.19,92.05v12.34c0,0,8.82,7.93,13.22,7.93c4.41,0-3.87-20.27-3.87-20.27L78.19,92.05z"/>
		<g>
			<path class="st5" d="M93.73,114.12c-3.72,0-5.32-1.73-5.62-2.1c-0.68-0.73-0.83-2.25-0.95-4.14c-0.02-0.35-0.04-0.65-0.07-0.86
				c-0.19-1.56-0.31-3.1-0.43-4.67l-0.09-1.22c-0.19-2.7-0.39-5.49-0.9-8.16c-0.74-3.8-2.66-7.39-4.52-10.87
				c-1.16-2.16-2.35-4.4-3.27-6.68c-3.29-8.23-0.68-17.78,7.97-29.19c0.17-0.22,0.38-0.53,0.63-0.89c1.87-2.69,3.86-5.31,5.81-5.31
				c0.55,0,1.05,0.22,1.44,0.63c1.1,1.16,1.01,3.64,0.98,4.12l-0.66,33.99c0.69,5.38,3.85,31.46,0.96,34.78
				c-0.41,0.47-0.86,0.57-1.17,0.57H93.73z"/>
			<path class="st2" d="M92.3,40.91c1.76,0,1.54,3.82,1.54,3.82l-0.66,34.09c0,0,4.41,34.38,0.66,34.42c-0.04,0-0.07,0-0.11,0
				c-3.67,0-4.96-1.8-4.96-1.8c-0.7-0.7-0.69-3.57-0.81-4.53c-0.19-1.54-0.31-3.08-0.42-4.63c-0.23-3.17-0.4-6.36-1-9.48
				c-1.23-6.33-5.47-11.79-7.83-17.7c-3.97-9.92,1.93-20.51,7.86-28.33C87.57,45.43,90.3,40.91,92.3,40.91 M92.3,39.15L92.3,39.15
				c-2.38,0-4.45,2.69-6.54,5.69c-0.24,0.35-0.45,0.65-0.61,0.86c-8.86,11.68-11.51,21.51-8.09,30.05c0.93,2.33,2.14,4.58,3.31,6.77
				c1.91,3.57,3.72,6.94,4.43,10.62c0.51,2.62,0.7,5.39,0.89,8.06l0.09,1.21c0.12,1.58,0.24,3.13,0.43,4.72
				c0.02,0.2,0.04,0.48,0.06,0.81c0.14,2.13,0.31,3.72,1.17,4.67c0.45,0.55,2.28,2.41,6.29,2.41l0.13,0
				c0.69-0.01,1.34-0.32,1.83-0.87c0.72-0.83,2.23-2.56,0.89-19.58c-0.59-7.51-1.49-14.78-1.63-15.83l0.66-33.93
				c0.04-0.81,0.07-3.37-1.22-4.74C93.83,39.47,93.09,39.15,92.3,39.15L92.3,39.15z"/>
		</g>
		<g>
			<path class="st5" d="M98.04,114.39c-3.87,0-6.25-0.83-6.35-0.86l-0.49-0.17l-0.09-0.51c-0.25-1.45-0.44-2.86-0.6-4.06
				c-0.3-2.29-0.43-4.6-0.55-6.84c-0.1-1.82-0.21-3.7-0.4-5.53c-0.36-3.41-1.46-7.15-3.09-10.52c-0.58-1.21-1.23-2.44-1.86-3.63
				c-2.73-5.18-5.54-10.53-4.65-16.81c0.85-5.99,9.63-20.67,11.94-21.82c0.55-0.28,1.19-0.42,1.83-0.42c1.92,0,3.86,1.33,3.86,3.86
				c0,0.78-0.24,1.77-0.53,3.02c-0.82,3.43-2.05,8.61,0.46,14.26c3.31,7.44,9.79,9.17,22.18,10.06c0.69,0.05,1.45,0.07,2.25,0.07
				c12.78,0,36.02-6.16,36.25-6.22l0.49-0.13l0.36,0.36c7.76,7.76,11.65,15.99,11.56,24.45c-0.13,12.32-8.6,20.58-8.96,20.93
				l-0.27,0.26l-0.37-0.01c-1.05-0.04-25.66-0.93-29.24-1.83c-0.49-0.12-1.83-0.33-5.39-0.33c-6.65,0-17.25,0.72-22.42,1.8
				C101.97,114.19,99.98,114.39,98.04,114.39z"/>
			<path class="st2" d="M93.73,44.11c1.49,0,2.98,0.99,2.98,2.98c0,2.64-3.53,9.7,0,17.63c3.53,7.93,10.58,9.7,22.92,10.58
				c0.73,0.05,1.5,0.08,2.32,0.08c13.05,0,36.48-6.25,36.48-6.25c23.8,23.8,2.61,44.12,2.61,44.12s-25.53-0.92-29.06-1.8
				c-0.97-0.24-3.01-0.35-5.6-0.35c-6.83,0-17.49,0.76-22.6,1.82c-2.15,0.45-4.08,0.6-5.73,0.6c-3.77,0-6.06-0.81-6.06-0.81
				c-0.23-1.33-0.42-2.68-0.59-4.02c-0.53-4.11-0.51-8.24-0.95-12.35c-0.39-3.65-1.59-7.53-3.17-10.81
				c-3.09-6.39-7.48-12.51-6.42-19.93c0.88-6.17,9.7-20.28,11.46-21.16C92.74,44.22,93.24,44.11,93.73,44.11 M93.73,42.34
				L93.73,42.34c-0.78,0-1.55,0.18-2.22,0.52c-1.9,0.95-5.69,7.35-6.8,9.29c-1.85,3.23-5.05,9.23-5.62,13.19
				c-0.94,6.56,1.95,12.04,4.74,17.34c0.62,1.18,1.26,2.4,1.84,3.6c1.56,3.24,2.66,6.96,3.01,10.23c0.19,1.81,0.3,3.68,0.4,5.49
				c0.13,2.25,0.26,4.58,0.56,6.9c0.16,1.21,0.35,2.64,0.6,4.1l0.18,1.02l0.97,0.34c0.11,0.04,2.63,0.91,6.65,0.91
				c2,0,4.05-0.22,6.09-0.64c5.04-1.05,15.77-1.78,22.24-1.78c3.59,0,4.82,0.21,5.18,0.3c3.6,0.9,26.79,1.76,29.42,1.85l0.75,0.03
				l0.54-0.52c0.37-0.36,9.1-8.87,9.24-21.55c0.09-8.71-3.88-17.15-11.82-25.08l-0.72-0.72l-0.98,0.26
				c-0.23,0.06-23.36,6.19-36.02,6.19c-0.79,0-1.52-0.02-2.19-0.07c-12.03-0.86-18.31-2.51-21.44-9.54
				c-2.39-5.37-1.2-10.38-0.41-13.69c0.31-1.31,0.56-2.34,0.56-3.22C98.47,44,96.03,42.34,93.73,42.34L93.73,42.34z"/>
		</g>
		<path class="st6" d="M95.83,58.34c0,0-7.74,2.85-13.9,1.99"/>
		<path class="st6" d="M115.31,73.85c-3.28,0.48-7.38,0.93-10.33,2.65c-3.43,2.01-5.73,7.42-3.87,11.13
			c1.76,3.53,6.85,19.87,8.82,24.69"/>
		<g>
			<path class="st5" d="M169.3,98.97c-0.5,0-1.05-0.06-1.65-0.18c-3.42-0.66-11-1.46-11.08-1.47l-0.44-0.05l-3.18-5.29l3.24-4.32
				l14.14-1.13l0.1,0.02c0.35,0.05,2.1,0.54,2.1,4.61c0,3.52,0.02,5.39,0.02,5.4C172.55,97.4,171.87,98.97,169.3,98.97z"/>
			<path class="st2" d="M170.3,87.42c0,0,1.35,0.21,1.35,3.74s0.02,5.4,0.02,5.4s0,1.52-2.36,1.52c-0.42,0-0.91-0.05-1.48-0.16
				c-3.5-0.68-11.16-1.48-11.16-1.48l-2.64-4.41l2.64-3.53L170.3,87.42 M170.37,85.65l-0.21,0.02l-13.64,1.09l-0.79,0.06l-0.48,0.64
				l-2.64,3.53l-0.71,0.95l0.61,1.02l2.64,4.41l0.45,0.75l0.88,0.09c0.08,0.01,7.62,0.8,11,1.46c0.66,0.13,1.27,0.19,1.82,0.19
				c3.03,0,4.13-1.97,4.13-3.29c0-0.02-0.02-1.89-0.02-5.4c0-4.67-2.17-5.38-2.84-5.48L170.37,85.65L170.37,85.65z"/>
		</g>
		<line class="st6" x1="103.11" y1="92.39" x2="154.02" y2="92.05"/>
		<circle class="st7" cx="159.75" cy="92.49" r="2.2"/>
		<path class="st7" d="M117.99,111.32c2.84-0.37,5.37-4.93,5.37-4.93c2.43,2.85,4.26,2.11,5.27,0.42c1.02-1.69,0.28-3.52-2.29-4.6
			c-2.57-1.09-3.65,1.48-9,1.94c-5.34,0.46-8.16-8.61-8.16-8.61c3.1,5.55,10.27,4.35,12.17,2.73c1.9-1.62,6.43-3.03,6.43-3.03
			c8.86-0.18,10.27,4.35,10.27,4.35c-6.82-3.19-10.69,0.92-10.69,0.92s2.64,0.21,4.39,0.35c1.76,0.14,5.06,3.05,6.75,4.07
			c1.69,1.02,4.32,1.23,5.48-2.22c1.16-3.45-3.03-6.43-3.03-6.43s6.96,1.44,6.54,6.71c-0.42,5.27-6.71,6.54-6.71,6.54
			c2.71-0.67,5.34-0.46,9.07-2.82c3.72-2.36,4.46-0.53,4.46-0.53c-1.16,3.45-4.1,6.53-4.1,6.53L117.99,111.32z"/>
		<path class="st7" d="M117.87,75.29c4.41,0.88,5.92,2.53,5.92,2.53c2.43-2.85,4.26-2.11,5.27-0.42c1.02,1.69,0.28,3.52-2.29,4.6
			c-2.57,1.09-3.65-1.48-9-1.94c-5.34-0.46-8.16,8.61-8.16,8.61c3.1-5.55,10.27-4.35,12.17-2.73c1.9,1.62,6.43,3.03,6.43,3.03
			c8.86,0.18,10.27-4.35,10.27-4.35c-6.82,3.19-10.69-0.92-10.69-0.92s2.64-0.21,4.39-0.35c1.76-0.14,5.06-3.05,6.75-4.07
			c1.69-1.02,4.32-1.23,5.48,2.22c1.16,3.45-3.03,6.43-3.03,6.43s6.96-1.44,6.54-6.71c-0.42-5.27-6.71-6.54-6.71-6.54
			c2.71,0.67,5.34,0.46,9.07,2.82c3.72,2.36,4.46,0.53,4.46,0.53c-1.16-3.45-4.27-7.14-4.27-7.14
			C146.08,73.53,117.87,75.29,117.87,75.29z"/>
	</g>
</g>
<path id="Blanket_2_" class="st9" d="M191.38,145.01l0.01-64.04c0,0,82.65-2.07,97.55-3.44c14.9-1.38,63.68-11.02,72.49-12.39
	c8.81-1.38,29.13-2.07,29.13-2.07v81.94H191.38z"/>
</svg>
