<?xml version="1.0" encoding="utf-8"?>
<!-- Generator: Adobe Illustrator 23.0.3, SVG Export Plug-In . SVG Version: 6.00 Build 0)  -->
<svg version="1.1" id="Layer_1" xmlns="http://www.w3.org/2000/svg" xmlns:xlink="http://www.w3.org/1999/xlink" x="0px" y="0px"
	 viewBox="0 0 389 144" style="enable-background:new 0 0 389 144;" xml:space="preserve">
<style type="text/css">
	.st0{clip-path:url(#SVGID_2_);}
	.st1{fill:#B7B7B7;}
	.st2{fill:#545454;}
	.st3{fill:#09668D;}
	.st4{fill:#F08FB8;stroke:#545454;stroke-width:1.9107;stroke-miterlimit:10;}
	.st5{fill:#F1BA70;stroke:#545454;stroke-width:2.1145;stroke-miterlimit:10;}
	.st6{fill:#FFFFFF;}
	.st7{fill:#FFFFFF;stroke:#545454;stroke-width:1.9107;stroke-miterlimit:10;}
	.st8{fill:#F08FB8;stroke:#545454;stroke-width:1.9775;stroke-miterlimit:10;}
	.st9{fill:#F1BA70;stroke:#545454;stroke-width:2.1885;stroke-miterlimit:10;}
	.st10{fill:#FFFFFF;stroke:#545454;stroke-width:1.9775;stroke-miterlimit:10;}
	.st11{fill:#FFFFFF;stroke:#545454;stroke-width:1.8052;stroke-linejoin:round;stroke-miterlimit:10;}
	.st12{fill:#43823E;}
	.st13{fill:none;stroke:#545454;stroke-width:1.8052;stroke-linejoin:round;stroke-miterlimit:10;}
	.st14{fill:#43823E;stroke:#545454;stroke-width:1.8052;stroke-linejoin:round;stroke-miterlimit:10;}
	.st15{fill:#82D880;}
	.st16{fill:#295026;}
	.st17{fill:#FFFFFF;stroke:#545454;stroke-width:2;stroke-linejoin:round;stroke-miterlimit:10;}
	.st18{fill:none;stroke:#545454;stroke-width:2;stroke-linejoin:round;stroke-miterlimit:10;}
	.st19{fill:#43823E;stroke:#545454;stroke-width:2;stroke-linejoin:round;stroke-miterlimit:10;}
	.st20{fill:#F1DE8D;}
	.st21{fill:#E5E5E5;}
	.st22{fill:#8BC1D7;stroke:#545454;stroke-width:1.637;stroke-miterlimit:10;}
</style>
<g id="Table_1_">
	<g>
		<defs>
			<rect id="SVGID_1_" x="0.04" y="-1.3" width="389.32" height="153.88"/>
		</defs>
		<clipPath id="SVGID_2_">
			<use xlink:href="#SVGID_1_"  style="overflow:visible;"/>
		</clipPath>
		<g class="st0">
			<g>
				<path class="st1" d="M150.98,106.75c-10.43,0-18.92-8.49-18.92-18.92V66.39c0-10.43,8.49-18.92,18.92-18.92H402.4
					c10.43,0,18.92,8.49,18.92,18.92v21.44c0,10.43-8.49,18.92-18.92,18.92H150.98z M402.39,100.87c7.19,0,13.03-5.85,13.03-13.03
					V66.39c0-7.19-5.85-13.03-13.03-13.03H287.2v47.51C287.2,100.87,402.39,100.87,402.39,100.87z M150.98,53.36
					c-7.19,0-13.03,5.85-13.03,13.03v21.44c0,7.19,5.85,13.03,13.03,13.03h126.13v-47.5H150.98z"/>
				<path class="st2" d="M402.39,48.31c9.97,0,18.08,8.11,18.08,18.08v21.44c0,9.97-8.11,18.08-18.08,18.08H150.98
					c-9.97,0-18.08-8.11-18.08-18.08V66.39c0-9.97,8.11-18.08,18.08-18.08L402.39,48.31 M277.95,100.87V52.52H150.98
					c-7.65,0-13.87,6.22-13.87,13.87v21.44c0,7.65,6.22,13.87,13.87,13.87H402.4c7.65,0,13.87-6.22,13.87-13.87V66.39
					c0-7.65-6.22-13.87-13.87-13.87H286.36v48.35L277.95,100.87 M402.39,46.63H150.98c-10.9,0-19.76,8.86-19.76,19.76v21.44
					c0,10.9,8.86,19.76,19.76,19.76H402.4c10.9,0,19.76-8.86,19.76-19.76V66.39C422.15,55.5,413.29,46.63,402.39,46.63L402.39,46.63
					z M288.04,54.2H402.4c6.72,0,12.19,5.47,12.19,12.19v21.44c0,6.72-5.47,12.19-12.19,12.19H288.04V54.2L288.04,54.2z
					 M150.98,100.03c-6.72,0-12.19-5.47-12.19-12.19V66.39c0-6.72,5.47-12.19,12.19-12.19h125.29v45.83H150.98L150.98,100.03z"/>
			</g>
			<g>
				<path class="st3" d="M58.19,130.72c-4.71,0-8.53-3.83-8.53-8.53v-2.27c0-4.71,3.83-8.53,8.53-8.53h329.36
					c4.71,0,8.53,3.83,8.53,8.53v2.27c0,4.71-3.83,8.53-8.53,8.53H58.19z"/>
				<path class="st2" d="M387.55,112.22c4.23,0,7.69,3.46,7.69,7.69v2.27c0,4.23-3.46,7.69-7.69,7.69H58.19
					c-4.23,0-7.69-3.46-7.69-7.69v-2.27c0-4.23,3.46-7.69,7.69-7.69L387.55,112.22 M387.55,110.54H58.19
					c-5.17,0-9.38,4.21-9.38,9.38v2.27c0,5.17,4.21,9.38,9.38,9.38h329.36c5.17,0,9.38-4.21,9.38-9.38v-2.27
					C396.93,114.74,392.72,110.54,387.55,110.54L387.55,110.54z"/>
			</g>
			<g>
				<path class="st1" d="M39.91,143.33c-3.9,0-7.07-3.17-7.07-7.07v-1.84c0-3.9,3.17-7.07,7.07-7.07h450.01
					c3.9,0,7.07,3.17,7.07,7.07v1.84c0,3.9-3.17,7.07-7.07,7.07H39.91z"/>
				<path class="st2" d="M489.92,128.2c3.43,0,6.23,2.8,6.23,6.23v1.84c0,3.43-2.8,6.23-6.23,6.23H39.91c-3.43,0-6.23-2.8-6.23-6.23
					v-1.84c0-3.43,2.8-6.23,6.23-6.23H489.92 M489.92,126.51H39.91c-4.36,0-7.91,3.55-7.91,7.91v1.84c0,4.36,3.55,7.91,7.91,7.91
					h450.01c4.36,0,7.91-3.55,7.91-7.91v-1.84C497.83,130.06,494.28,126.51,489.92,126.51L489.92,126.51z"/>
			</g>
		</g>
	</g>
</g>
<g id="Bunny_Slippers">
	<g>
		<path class="st4" d="M333.12,463.76c0,0,4.35,20.31,3.99,22.85c-0.36,2.54-3.26,15.23-4.35,17.05s-4.35,4.35-5.08,0.36
			c-0.73-3.99-7.18-37.36-7.18-37.36L333.12,463.76z"/>
		<line class="st4" x1="324.05" y1="466.29" x2="331.67" y2="505.83"/>
		<path class="st5" d="M325.26,445.19c0,0,6.66,37.31,9.33,40.65c2.67,3.33,7.33,4.66,17.32,4c10-0.67,88.39,0,88.39,0
			s0-19.32,0-19.32c-15.96,0-31.91,0-47.87,0c-11.8,0-8.71,0-20.52,0c-8.89,0-9.41,0.31-12.74-0.36
			c-6.13-1.23-20.86-18.93-22.59-24.97H325.26z"/>
		<path class="st4" d="M320.5,466.66c6.88-1.83,14.89-2.27,19.5-7.7c9.06-10.64-1.24-25.63-10.23-32.17
			c-1.92-1.39-4.25-2.66-6.56-2.11c-1.81,0.44-3.21,1.95-3.95,3.66c-0.74,1.71-0.92,3.6-1.03,5.45
			C317.6,444.77,319.05,455.75,320.5,466.66z"/>
		<g>
			<g>
				
					<ellipse transform="matrix(0.6179 -0.7863 0.7863 0.6179 -222.0849 432.573)" class="st2" cx="333.98" cy="444.76" rx="2.47" ry="3.99"/>
			</g>
			<ellipse class="st6" cx="335.73" cy="444.45" rx="1.12" ry="1.05"/>
		</g>
		<g>
			<g>
				
					<ellipse transform="matrix(0.7169 -0.6972 0.6972 0.7169 -209.8084 358.95)" class="st2" cx="337.07" cy="437.81" rx="1.69" ry="3.06"/>
			</g>
			
				<ellipse transform="matrix(0.3536 -0.9354 0.9354 0.3536 -191.0205 599.8468)" class="st6" cx="338.48" cy="438.13" rx="0.67" ry="0.92"/>
		</g>
		<path class="st4" d="M342.18,442.72c6.06-1.41,20.5-6.52,26.48-2.54c1.09,0.73,3.26,3.63-3.26,5.8
			c-6.53,2.18-18.14,1.81-21.76,1.09C343.64,447.07,342.18,442.72,342.18,442.72z"/>
		<path class="st4" d="M342.18,453.6c6.06-1.41,20.5-6.52,26.48-2.54c1.09,0.73,3.26,3.63-3.26,5.8
			c-6.53,2.18-19.59,1.81-23.21,1.09C342.18,457.95,344.36,453.24,342.18,453.6z"/>
		<path class="st7" d="M323.48,430.77c-0.59,4.04,4.88,7.28,7.96,3.44c0.97-1.21,1.39-2.77,1.64-4.3c0.15-0.93,0.22-2-0.42-2.69
			c-0.36-0.39-0.88-0.59-1.39-0.72c-2.66-0.69-5.84,0.24-7.21,2.62C323.75,429.66,323.56,430.22,323.48,430.77z"/>
		<path class="st6" d="M349.17,441.95c0,0,18.41-2.04,17.68,2.31c0,0,6.94-3.13-3.13-4.76
			C359.29,438.78,349.17,441.95,349.17,441.95z"/>
		<path class="st6" d="M349.17,452.89c0,0,18.41-2.11,17.68,2.39c0,0,6.94-3.24-3.13-4.92
			C359.29,449.61,349.17,452.89,349.17,452.89z"/>
	</g>
	<path class="st8" d="M317.37,476.02c0,0,4.5,21.02,4.13,23.65c-0.38,2.63-3.38,15.77-4.5,17.64c-1.13,1.88-4.5,4.51-5.26,0.38
		c-0.75-4.13-7.43-38.67-7.43-38.67L317.37,476.02z"/>
	<line class="st8" x1="307.99" y1="478.65" x2="315.87" y2="519.57"/>
	<path class="st9" d="M310.12,456.16c0,0,6.9,38.62,9.66,42.07c2.76,3.45,7.59,4.83,17.93,4.14c10.34-0.69,92,0,92,0s0-20,0-20
		c-16.51,0-18.14,0-34.65,0c-12.22,0-24.43,0-36.65,0c-9.2,0-12.03-0.41-15.48-1.1c-6.34-1.27-14.45-22.81-16.24-29.06
		L310.12,456.16z"/>
	<path class="st8" d="M304.31,479.03c7.12-1.89,15.41-2.35,20.18-7.96c9.38-11.02-1.28-26.52-10.59-33.29
		c-1.99-1.44-4.4-2.76-6.79-2.18c-1.87,0.45-3.32,2.02-4.08,3.78c-0.77,1.77-0.95,3.72-1.06,5.64
		C301.31,456.38,302.81,467.74,304.31,479.03z"/>
	<g>
		<g>
			
				<ellipse transform="matrix(0.6179 -0.7863 0.7863 0.6179 -237.2143 424.6507)" class="st2" cx="318.27" cy="456.37" rx="2.55" ry="4.13"/>
		</g>
		<ellipse class="st6" cx="320.07" cy="456.04" rx="1.16" ry="1.09"/>
	</g>
	<g>
		<g>
			
				<ellipse transform="matrix(0.7169 -0.6972 0.6972 0.7169 -222.1473 351.2851)" class="st2" cx="321.46" cy="449.17" rx="1.75" ry="3.17"/>
		</g>
		
			<ellipse transform="matrix(0.3536 -0.9354 0.9354 0.3536 -211.7148 592.645)" class="st6" cx="322.92" cy="449.5" rx="0.7" ry="0.95"/>
	</g>
	<path class="st8" d="M326.76,454.25c6.28-1.46,21.22-6.75,27.41-2.63c1.13,0.75,3.38,3.75-3.38,6.01
		c-6.76,2.25-18.77,1.88-22.52,1.13C328.26,458.75,326.76,454.25,326.76,454.25z"/>
	<path class="st8" d="M326.76,465.51c6.28-1.46,21.22-6.75,27.41-2.63c1.13,0.75,3.38,3.75-3.38,6.01
		c-6.76,2.25-20.27,1.88-24.03,1.13C326.76,470.02,329.01,465.14,326.76,465.51z"/>
	<path class="st10" d="M307.4,441.88c-0.61,4.18,5.05,7.53,8.24,3.56c1.01-1.25,1.44-2.87,1.7-4.45c0.16-0.96,0.22-2.07-0.43-2.79
		c-0.37-0.4-0.91-0.61-1.44-0.75c-2.75-0.72-6.05,0.24-7.46,2.71C307.68,440.74,307.48,441.32,307.4,441.88z"/>
	<path class="st6" d="M333.98,453.45c0,0,19.05-2.11,18.3,2.39c0,0,7.18-3.24-3.24-4.93C344.46,450.17,333.98,453.45,333.98,453.45z
		"/>
	<path class="st6" d="M333.98,464.77c0,0,19.05-2.18,18.3,2.47c0,0,7.18-3.35-3.24-5.1C344.46,461.38,333.98,464.77,333.98,464.77z"
		/>
</g>
<g id="Monster_Feet">
	<g>
		<path class="st11" d="M540.64,115.03c0,0-1.69-9.15-7.79-9.49c0,0-0.68,13.21,2.03,13.21S540.64,115.03,540.64,115.03z"/>
		<path class="st11" d="M525.05,111.98c0,0,0.34-5.08-1.02-6.44c-1.36-1.36-4.07-3.39-4.07-4.4c0-1.02,1.02-2.03,3.73-2.37
			s7.79,2.37,8.81,4.74c1.02,2.37,2.71,5.42,2.03,9.49L525.05,111.98z"/>
		<g>
			<path class="st12" d="M533.53,197.33c-0.35,0-0.66-0.04-0.93-0.12l-0.63-0.18c-3.2-0.87-9.85-2.69-9.85-7.13
				c0-4,0-8.54,1.36-18.09c1.55-10.85,0.81-13.54,0.72-13.82c-2.94-8.9-2.32-18.4-1.71-27.59c0.1-1.56,0.21-3.12,0.29-4.66
				c-0.59-1.02-2.7-4.94-2.7-8.69c0-4.63,2.06-7.59,5.81-8.34c0.66-0.13,1.35-0.2,2.06-0.2c3.11,0,6.05,1.22,7.76,2.37l1.85,1.23
				c1.03,0.11,4.06,0.57,5.15,2.03c1,1.33,1.4,3.82,1.5,4.62c0.43,0.66,1.73,2.83,1.73,5.07c0,2.28-0.3,10.55-0.34,11.48l0.66,5.24
				c0.19,0.48,1.05,2.65,1.87,3.75c0.87,1.16,4.42,3.45,6.34,4.09c2.23,0.74,4.51,1.69,6.72,2.6c5.18,2.15,10.54,4.37,15.96,4.37
				l0.22,0c3.39-0.04,6.99-0.75,10.48-1.43c1.48-0.29,3.01-0.59,4.49-0.83c0.15-0.02,14.72-2.38,22.81-2.72c0.01,0,0.03,0,0.04,0
				c0.48,0,0.87,0.37,0.9,0.85l2.03,36.6c0.02,0.39-0.21,0.75-0.57,0.89c-0.39,0.15-9.69,3.78-15.53,4.13
				c-0.65,0.04-1.41,0.05-2.26,0.06c-6.97,0-19.31-1.13-21.3-1.42c-0.75-0.11-2.36-0.43-4.39-0.83c-3.83-0.76-9.61-1.9-11.34-1.9
				c-0.09,0-0.17,0-0.23,0.01c-1.7,0.34-11.5,2.71-15.48,4.04c-1.18,0.39-2.68,1-4.26,1.65
				C539.26,195.87,535.65,197.33,533.53,197.33z"/>
			<path class="st2" d="M527.95,109.43c2.81,0,5.6,1.11,7.26,2.21c2.03,1.36,2.03,1.36,2.03,1.36s3.73,0.34,4.74,1.69
				s1.36,4.4,1.36,4.4s1.69,2.37,1.69,4.74s-0.34,11.52-0.34,11.52l0.68,5.42c0,0,1.02,2.71,2.03,4.07
				c1.02,1.36,4.74,3.73,6.78,4.41c7.36,2.46,14.99,7.02,22.96,7.02c0.08,0,0.15,0,0.23,0c4.95-0.05,10.2-1.48,15.1-2.28
				c0,0,14.57-2.37,22.7-2.71l2.03,36.6c0,0-9.49,3.73-15.25,4.07c-0.63,0.04-1.38,0.05-2.21,0.05c-6.74,0-19.06-1.11-21.17-1.41
				c-2.23-0.32-13.17-2.74-15.86-2.74c-0.17,0-0.3,0.01-0.4,0.03c-1.69,0.34-11.52,2.71-15.59,4.07
				c-3.73,1.24-10.32,4.49-13.21,4.49c-0.26,0-0.49-0.03-0.68-0.08c-2.37-0.68-9.83-2.37-9.83-6.44c0-4.07,0-8.47,1.36-17.96
				c1.35-9.47,1.02-13.2,0.68-14.23c-3.41-10.31-1.93-21.51-1.36-32.19c0,0-2.71-4.4-2.71-8.47s1.69-6.78,5.08-7.45
				C526.69,109.48,527.32,109.43,527.95,109.43 M527.95,107.62C527.95,107.62,527.95,107.62,527.95,107.62
				c-0.77,0-1.53,0.07-2.24,0.22c-4.15,0.83-6.53,4.19-6.53,9.22c0,3.72,1.93,7.55,2.68,8.91c-0.08,1.45-0.18,2.92-0.28,4.39
				c-0.61,9.28-1.25,18.87,1.75,27.94c0.01,0.02,0.79,2.58-0.75,13.4c-1.37,9.61-1.37,14.18-1.37,18.21c0,5.13,7.1,7.07,10.51,8
				c0.23,0.06,0.44,0.12,0.62,0.17c0.36,0.1,0.74,0.15,1.18,0.15c2.3,0,6-1.5,9.57-2.95c1.57-0.64,3.05-1.24,4.21-1.63
				c3.92-1.31,13.54-3.64,15.33-4c0.02,0,0.05,0,0.08,0c1.64,0,7.37,1.13,11.16,1.89c2.05,0.41,3.67,0.73,4.44,0.84
				c2,0.29,14.42,1.43,21.43,1.43c0.89,0,1.67-0.02,2.31-0.06c5.98-0.35,15.4-4.03,15.8-4.19c0.72-0.28,1.19-1,1.14-1.78l-2.03-36.6
				c-0.05-0.96-0.85-1.71-1.8-1.71c-0.03,0-0.05,0-0.08,0c-8.15,0.34-22.32,2.64-22.92,2.73c-1.49,0.24-3.03,0.55-4.52,0.84
				c-3.44,0.68-7.01,1.38-10.31,1.41l-0.21,0c-5.24,0-10.51-2.19-15.61-4.3c-2.22-0.92-4.52-1.87-6.78-2.63
				c-1.86-0.62-5.21-2.85-5.91-3.78c-0.65-0.86-1.4-2.61-1.71-3.42l-0.63-5.06c0.04-1.22,0.33-9.2,0.33-11.44
				c0-2.33-1.2-4.5-1.76-5.39c-0.15-1.07-0.6-3.44-1.65-4.84c-1.23-1.64-4.15-2.19-5.55-2.36l-1.67-1.11
				C534.39,108.92,531.26,107.62,527.95,107.62L527.95,107.62z"/>
		</g>
		<path class="st13" d="M536.91,111.98c0,0,3.73,4.4,4.07,9.49c0.34,5.08-0.34,8.13-0.34,9.83s-0.21,7.99,7.12,12.88"/>
		<path class="st14" d="M561.98,167.55"/>
		<polygon class="st15" points="582.99,155.69 568.08,153.66 569.31,155.84 562.81,155.92 567.9,158.93 563.08,159.21 
			570.22,162.18 562.75,161.84 566.23,164.06 560.93,165.47 564.82,167.14 560.27,168.05 569.13,170.94 560.84,171.68 564.32,173.9 
			560.55,174.02 567.69,176.99 562.16,177.48 566.58,180.41 559.9,181.94 567.52,183.78 559.87,184.9 565.97,188.04 559.21,190.16 
			579.31,190.59 		"/>
		<polygon class="st16" points="592.82,152.64 580.28,154.67 581.13,155.52 574.35,156.03 579.65,159.77 574.84,160.06 
			581.98,163.03 574.51,162.69 577.99,164.9 572.69,166.32 576.58,167.99 572.02,168.91 580.88,171.79 572.59,172.54 576.07,174.75 
			572.3,174.88 579.44,177.85 573.92,178.34 578.33,181.27 571.65,182.81 579.27,184.65 571.62,185.77 577.72,188.91 570.96,191.03 
			590.79,192.96 		"/>
		<polygon class="st15" points="604.33,150.94 591.19,152.1 592.68,155.67 586.19,156.24 591.46,159.09 586.67,159.76 
			593.98,162.41 586.5,162.6 590.11,164.72 584.9,166.63 588.89,168.13 584.4,169.45 593.42,171.89 585.19,173.31 588.8,175.42 
			585.04,175.83 592.35,178.48 586.87,179.43 591.45,182.23 584.88,184.38 592.6,185.79 585.03,187.56 591.31,190.47 584.7,193.25 
			604.67,193.3 		"/>
		<polygon class="st16" points="615.52,151.28 599.76,152.64 604.36,154.34 597.92,155.23 603.33,157.77 598.58,158.68 
			606.02,160.91 598.56,161.49 602.27,163.39 597.18,165.55 601.24,166.83 596.82,168.36 605.96,170.29 597.81,172.12 
			601.53,174.02 597.8,174.62 605.24,176.86 599.81,178.07 604.54,180.6 598.08,183.07 605.87,184.05 598.4,186.19 604.83,188.74 
			599.26,193.3 617.55,188.22 		"/>
		<g>
			<path class="st2" d="M527.95,109.43c2.81,0,5.6,1.11,7.26,2.21c2.03,1.36,2.03,1.36,2.03,1.36s3.73,0.34,4.74,1.69
				s1.36,4.4,1.36,4.4s1.69,2.37,1.69,4.74s-0.34,11.52-0.34,11.52l0.68,5.42c0,0,1.02,2.71,2.03,4.07
				c1.02,1.36,4.74,3.73,6.78,4.41c7.36,2.46,14.99,7.02,22.96,7.02c0.08,0,0.15,0,0.23,0c4.95-0.05,10.2-1.48,15.1-2.28
				c0,0,14.57-2.37,22.7-2.71l2.03,36.6c0,0-9.49,3.73-15.25,4.07c-0.63,0.04-1.38,0.05-2.21,0.05c-6.74,0-19.06-1.11-21.17-1.41
				c-2.23-0.32-13.17-2.74-15.86-2.74c-0.17,0-0.3,0.01-0.4,0.03c-1.69,0.34-11.52,2.71-15.59,4.07
				c-3.73,1.24-10.32,4.49-13.21,4.49c-0.26,0-0.49-0.03-0.68-0.08c-2.37-0.68-9.83-2.37-9.83-6.44c0-4.07,0-8.47,1.36-17.96
				c1.35-9.47,1.02-13.2,0.68-14.23c-3.41-10.31-1.93-21.51-1.36-32.19c0,0-2.71-4.4-2.71-8.47s1.69-6.78,5.08-7.45
				C526.69,109.48,527.32,109.43,527.95,109.43 M527.95,107.62C527.95,107.62,527.95,107.62,527.95,107.62
				c-0.77,0-1.53,0.07-2.24,0.22c-4.15,0.83-6.53,4.19-6.53,9.22c0,3.72,1.93,7.55,2.68,8.91c-0.08,1.45-0.18,2.92-0.28,4.39
				c-0.61,9.28-1.25,18.87,1.75,27.94c0.01,0.02,0.79,2.58-0.75,13.4c-1.37,9.61-1.37,14.18-1.37,18.21c0,5.13,7.1,7.07,10.51,8
				c0.23,0.06,0.44,0.12,0.62,0.17c0.36,0.1,0.74,0.15,1.18,0.15c2.3,0,6-1.5,9.57-2.95c1.57-0.64,3.05-1.24,4.21-1.63
				c3.92-1.31,13.54-3.64,15.33-4c0.02,0,0.05,0,0.08,0c1.64,0,7.37,1.13,11.16,1.89c2.05,0.41,3.67,0.73,4.44,0.84
				c2,0.29,14.42,1.43,21.43,1.43c0.89,0,1.67-0.02,2.31-0.06c5.98-0.35,15.4-4.03,15.8-4.19c0.72-0.28,1.19-1,1.14-1.78l-2.03-36.6
				c-0.05-0.96-0.85-1.71-1.8-1.71c-0.03,0-0.05,0-0.08,0c-8.15,0.34-22.32,2.64-22.92,2.73c-1.49,0.24-3.03,0.55-4.52,0.84
				c-3.44,0.68-7.01,1.38-10.31,1.41l-0.21,0c-5.24,0-10.51-2.19-15.61-4.3c-2.22-0.92-4.52-1.87-6.78-2.63
				c-1.86-0.62-5.21-2.85-5.91-3.78c-0.65-0.86-1.4-2.61-1.71-3.42l-0.63-5.06c0.04-1.22,0.33-9.2,0.33-11.44
				c0-2.33-1.2-4.5-1.76-5.39c-0.15-1.07-0.6-3.44-1.65-4.84c-1.23-1.64-4.15-2.19-5.55-2.36l-1.67-1.11
				C534.39,108.92,531.26,107.62,527.95,107.62L527.95,107.62z"/>
		</g>
		<path class="st13" d="M550.32,160.94c0,0-6.12,8.41-0.76,14.53"/>
	</g>
	<g>
		<path class="st17" d="M521.45,118.26c0,0-1.88-10.14-8.63-10.51c0,0-0.75,14.64,2.25,14.64S521.45,118.26,521.45,118.26z"/>
		<path class="st17" d="M504.18,114.88c0,0,0.38-5.63-1.13-7.13c-1.5-1.5-4.5-3.75-4.5-4.88c0-1.13,1.13-2.25,4.13-2.63
			s8.63,2.63,9.76,5.26c1.13,2.63,3,6.01,2.25,10.51L504.18,114.88z"/>
		<g>
			<path class="st12" d="M513.57,209.45c-0.39,0-0.73-0.04-1.03-0.13l-0.7-0.19c-3.54-0.97-10.91-2.98-10.91-7.9
				c0-4.43,0-9.46,1.51-20.04c1.72-12.01,0.89-15.01,0.79-15.31c-3.26-9.86-2.56-20.39-1.89-30.57c0.11-1.73,0.23-3.46,0.32-5.17
				c-0.65-1.13-2.99-5.47-2.99-9.63c0-5.13,2.29-8.41,6.43-9.24c0.73-0.15,1.5-0.22,2.29-0.22c3.44,0,6.7,1.35,8.6,2.62l2.05,1.36
				c1.14,0.13,4.49,0.63,5.71,2.25c1.1,1.47,1.55,4.23,1.67,5.12c0.48,0.73,1.91,3.13,1.91,5.62c0,2.52-0.34,11.69-0.37,12.72
				l0.73,5.81c0.21,0.53,1.16,2.93,2.08,4.15c0.96,1.28,4.9,3.83,7.03,4.53c2.47,0.82,5,1.87,7.44,2.88
				c5.74,2.38,11.68,4.84,17.68,4.84l0.24,0c3.75-0.04,7.75-0.83,11.61-1.59c1.64-0.32,3.34-0.66,4.97-0.92
				c0.16-0.03,16.31-2.64,25.27-3.02c0.01,0,0.03,0,0.04,0c0.53,0,0.97,0.41,1,0.94l2.25,40.54c0.02,0.43-0.23,0.83-0.63,0.99
				c-0.43,0.17-10.73,4.19-17.2,4.57c-0.69,0.04-1.54,0.06-2.51,0.06c-7.72,0-21.4-1.26-23.6-1.57c-0.83-0.12-2.62-0.47-4.88-0.92
				c-4.24-0.84-10.65-2.11-12.56-2.11c-0.1,0-0.19,0-0.25,0.01c-1.89,0.38-12.76,3.01-17.15,4.47c-1.31,0.44-2.97,1.11-4.72,1.83
				C519.93,207.82,515.93,209.45,513.57,209.45z"/>
			<path class="st2" d="M507.4,112.05c3.12,0,6.21,1.23,8.05,2.45c2.25,1.5,2.25,1.5,2.25,1.5s4.13,0.38,5.26,1.88
				c1.13,1.5,1.5,4.88,1.5,4.88s1.88,2.63,1.88,5.26c0,2.63-0.38,12.76-0.38,12.76l0.75,6.01c0,0,1.13,3,2.25,4.5
				c1.13,1.5,5.26,4.13,7.51,4.88c8.16,2.72,16.61,7.78,25.44,7.78c0.08,0,0.17,0,0.25,0c5.48-0.06,11.31-1.64,16.73-2.52
				c0,0,16.14-2.63,25.15-3l2.25,40.54c0,0-10.51,4.13-16.89,4.5c-0.7,0.04-1.53,0.06-2.44,0.06c-7.47,0-21.12-1.23-23.46-1.56
				c-2.47-0.35-14.6-3.04-17.57-3.04c-0.19,0-0.34,0.01-0.45,0.03c-1.88,0.38-12.76,3-17.27,4.5c-4.13,1.38-11.43,4.97-14.64,4.97
				c-0.29,0-0.54-0.03-0.76-0.09c-2.63-0.75-10.89-2.63-10.89-7.13c0-4.5,0-9.39,1.5-19.9c1.5-10.5,1.13-14.63,0.75-15.76
				c-3.78-11.42-2.14-23.83-1.5-35.67c0,0-3-4.88-3-9.39c0-4.5,1.88-7.51,5.63-8.26C505.99,112.11,506.7,112.05,507.4,112.05
				 M507.4,110.05C507.4,110.05,507.4,110.05,507.4,110.05c-0.86,0-1.69,0.08-2.48,0.24c-4.6,0.92-7.24,4.65-7.24,10.22
				c0,4.12,2.14,8.36,2.97,9.87c-0.09,1.62-0.2,3.26-0.31,4.86c-0.68,10.28-1.38,20.91,1.94,30.95c0.01,0.03,0.88,2.86-0.83,14.85
				c-1.52,10.65-1.52,15.71-1.52,20.18c0,5.68,7.87,7.83,11.65,8.86c0.26,0.07,0.49,0.13,0.69,0.19c0.39,0.11,0.82,0.17,1.31,0.17
				c2.55,0,6.65-1.66,10.6-3.27c1.74-0.71,3.38-1.37,4.67-1.8c4.34-1.45,15-4.03,16.99-4.43c0.03,0,0.06,0,0.09,0
				c1.82,0,8.17,1.26,12.37,2.09c2.27,0.45,4.07,0.8,4.92,0.93c2.22,0.32,15.98,1.58,23.74,1.58c0.99,0,1.85-0.02,2.56-0.06
				c6.62-0.39,17.07-4.47,17.51-4.64c0.8-0.32,1.31-1.11,1.27-1.97l-2.25-40.54c-0.06-1.06-0.94-1.89-2-1.89c-0.03,0-0.06,0-0.08,0
				c-9.03,0.38-24.73,2.92-25.39,3.03c-1.65,0.27-3.36,0.6-5.01,0.93c-3.82,0.75-7.76,1.53-11.42,1.57l-0.23,0
				c-5.8,0-11.65-2.42-17.3-4.77c-2.46-1.02-5.01-2.08-7.51-2.91c-2.06-0.69-5.77-3.15-6.54-4.18c-0.71-0.95-1.56-2.92-1.9-3.79
				l-0.7-5.6c0.05-1.36,0.37-10.19,0.37-12.68c0-2.58-1.33-4.98-1.95-5.97c-0.17-1.18-0.66-3.81-1.83-5.36
				c-1.36-1.81-4.6-2.42-6.15-2.61l-1.85-1.23C514.53,111.49,511.06,110.05,507.4,110.05L507.4,110.05z"/>
		</g>
		<path class="st18" d="M517.32,114.88c0,0,4.13,4.88,4.51,10.51c0.38,5.63-0.38,9.01-0.38,10.89s-0.24,8.85,7.88,14.27"/>
		<path class="st19" d="M545.1,176.44"/>
		<polygon class="st15" points="568.38,163.3 551.86,161.05 553.21,163.47 546.02,163.56 551.65,166.89 546.32,167.21 554.23,170.5 
			545.95,170.12 549.81,172.57 543.94,174.14 548.24,175.99 543.2,177 553.02,180.2 543.83,181.03 547.69,183.48 543.51,183.61 
			551.42,186.9 545.3,187.45 550.19,190.69 542.79,192.39 551.24,194.43 542.76,195.67 549.51,199.14 542.03,201.49 564.29,201.98 
					"/>
		<polygon class="st16" points="579.26,159.93 565.37,162.18 566.31,163.12 558.8,163.68 564.68,167.82 559.34,168.14 
			567.25,171.43 558.97,171.06 562.83,173.51 556.96,175.08 561.27,176.93 556.22,177.95 566.04,181.15 556.85,181.97 
			560.71,184.43 556.53,184.56 564.44,187.85 558.32,188.4 563.21,191.65 555.81,193.35 564.26,195.39 555.78,196.64 562.53,200.11 
			555.05,202.46 577.01,204.6 		"/>
		<polygon class="st15" points="592.02,158.05 577.46,159.33 579.1,163.29 571.92,163.92 577.75,167.07 572.45,167.81 
			580.55,170.75 572.26,170.96 576.26,173.31 570.49,175.43 574.91,177.09 569.93,178.56 579.93,181.25 570.81,182.82 
			574.81,185.17 570.65,185.62 578.75,188.56 572.67,189.61 577.75,192.72 570.46,195.1 579.02,196.66 570.63,198.62 577.59,201.84 
			570.26,204.92 592.4,204.98 		"/>
		<polygon class="st16" points="604.41,158.42 586.96,159.93 592.05,161.81 584.91,162.8 590.9,165.61 585.64,166.62 593.88,169.09 
			585.62,169.74 589.74,171.84 584.09,174.23 588.59,175.64 583.7,177.34 593.82,179.49 584.8,181.51 588.91,183.61 584.78,184.28 
			593.02,186.76 587.01,188.11 592.25,190.91 585.1,193.64 593.72,194.73 585.45,197.1 592.56,199.92 586.39,204.98 606.67,199.34 
					"/>
		<g>
			<path class="st2" d="M507.4,112.05c3.12,0,6.21,1.23,8.05,2.45c2.25,1.5,2.25,1.5,2.25,1.5s4.13,0.38,5.26,1.88
				c1.13,1.5,1.5,4.88,1.5,4.88s1.88,2.63,1.88,5.26c0,2.63-0.38,12.76-0.38,12.76l0.75,6.01c0,0,1.13,3,2.25,4.5
				c1.13,1.5,5.26,4.13,7.51,4.88c8.16,2.72,16.61,7.78,25.44,7.78c0.08,0,0.17,0,0.25,0c5.48-0.06,11.31-1.64,16.73-2.52
				c0,0,16.14-2.63,25.15-3l2.25,40.54c0,0-10.51,4.13-16.89,4.5c-0.7,0.04-1.53,0.06-2.44,0.06c-7.47,0-21.12-1.23-23.46-1.56
				c-2.47-0.35-14.6-3.04-17.57-3.04c-0.19,0-0.34,0.01-0.45,0.03c-1.88,0.38-12.76,3-17.27,4.5c-4.13,1.38-11.43,4.97-14.64,4.97
				c-0.29,0-0.54-0.03-0.76-0.09c-2.63-0.75-10.89-2.63-10.89-7.13c0-4.5,0-9.39,1.5-19.9c1.5-10.5,1.13-14.63,0.75-15.76
				c-3.78-11.42-2.14-23.83-1.5-35.67c0,0-3-4.88-3-9.39c0-4.5,1.88-7.51,5.63-8.26C505.99,112.11,506.7,112.05,507.4,112.05
				 M507.4,110.05C507.4,110.05,507.4,110.05,507.4,110.05c-0.86,0-1.69,0.08-2.48,0.24c-4.6,0.92-7.24,4.65-7.24,10.22
				c0,4.12,2.14,8.36,2.97,9.87c-0.09,1.62-0.2,3.26-0.31,4.86c-0.68,10.28-1.38,20.91,1.94,30.95c0.01,0.03,0.88,2.86-0.83,14.85
				c-1.52,10.65-1.52,15.71-1.52,20.18c0,5.68,7.87,7.83,11.65,8.86c0.26,0.07,0.49,0.13,0.69,0.19c0.39,0.11,0.82,0.17,1.31,0.17
				c2.55,0,6.65-1.66,10.6-3.27c1.74-0.71,3.38-1.37,4.67-1.8c4.34-1.45,15-4.03,16.99-4.43c0.03,0,0.06,0,0.09,0
				c1.82,0,8.17,1.26,12.37,2.09c2.27,0.45,4.07,0.8,4.92,0.93c2.22,0.32,15.98,1.58,23.74,1.58c0.99,0,1.85-0.02,2.56-0.06
				c6.62-0.39,17.07-4.47,17.51-4.64c0.8-0.32,1.31-1.11,1.27-1.97l-2.25-40.54c-0.06-1.06-0.94-1.89-2-1.89c-0.03,0-0.06,0-0.08,0
				c-9.03,0.38-24.73,2.92-25.39,3.03c-1.65,0.27-3.36,0.6-5.01,0.93c-3.82,0.75-7.76,1.53-11.42,1.57l-0.23,0
				c-5.8,0-11.65-2.42-17.3-4.77c-2.46-1.02-5.01-2.08-7.51-2.91c-2.06-0.69-5.77-3.15-6.54-4.18c-0.71-0.95-1.56-2.92-1.9-3.79
				l-0.7-5.6c0.05-1.36,0.37-10.19,0.37-12.68c0-2.58-1.33-4.98-1.95-5.97c-0.17-1.18-0.66-3.81-1.83-5.36
				c-1.36-1.81-4.6-2.42-6.15-2.61l-1.85-1.23C514.53,111.49,511.06,110.05,507.4,110.05L507.4,110.05z"/>
		</g>
		<path class="st18" d="M532.17,169.12c0,0-6.78,9.32-0.85,16.1"/>
	</g>
</g>
<g id="Stilettos">
	<g>
		<g>
			<path class="st20" d="M144.41,101.19c-4.1,0-24.13-13.5-26.4-15.04c-0.28-0.17-8.02-4.8-8.65-10.36
				c-0.24-2.12,0.56-4.06,2.37-5.79c0.17-0.16,0.4-0.25,0.63-0.25c0.06,0,0.12,0.01,0.17,0.02c0.39,0.08,39.38,7.69,50.2,8.85
				c2.92,0.31,7.41,0.47,13.35,0.47c12.12,0,26.31-0.67,26.45-0.68c0.01,0,0.03,0,0.04,0c0.48,0,0.88,0.38,0.91,0.87l0.73,15.33
				c0.01,0.25-0.08,0.49-0.24,0.66c-0.17,0.18-0.4,0.28-0.65,0.29c-0.45,0.01-44.7,0.77-46.37,0.85c-1.42,0.07-9.3,3.06-11.62,4.53
				C145.07,101.12,144.76,101.19,144.41,101.19z"/>
			<path class="st2" d="M112.35,70.67c0,0,39.29,7.68,50.28,8.87c3.29,0.35,8.19,0.48,13.45,0.48c12.29,0,26.5-0.68,26.5-0.68
				l0.73,15.33c0,0-44.69,0.77-46.4,0.85c-1.7,0.08-9.75,3.2-12.07,4.67c-0.1,0.06-0.24,0.09-0.42,0.09
				c-3.94,0-25.89-14.89-25.89-14.89S105.16,77.5,112.35,70.67 M112.35,68.85c-0.46,0-0.91,0.18-1.25,0.5
				c-2.52,2.4-2.83,4.88-2.64,6.54c0.29,2.6,1.96,5.27,4.94,7.94c1.94,1.73,3.8,2.89,4.14,3.09c5.31,3.6,22.71,15.17,26.87,15.17
				c0.53,0,1-0.13,1.4-0.38c2.29-1.46,9.97-4.31,11.18-4.39c1.32-0.06,30.89-0.58,46.34-0.85c0.49-0.01,0.96-0.22,1.29-0.57
				c0.34-0.36,0.51-0.84,0.49-1.33l-0.73-15.33c-0.05-0.97-0.85-1.73-1.81-1.73c-0.03,0-0.06,0-0.09,0
				c-0.14,0.01-14.31,0.68-26.41,0.68c-5.91,0-10.37-0.16-13.25-0.47c-10.78-1.16-49.73-8.77-50.12-8.84
				C112.58,68.86,112.46,68.85,112.35,68.85L112.35,68.85z"/>
		</g>
		<path class="st2" d="M147.54,99.72l-32.32-18.94c0,0-3.94-3.91-2.71-6.7c1.23-2.79,3.23-3.91,3.23-3.91s-2.99-5.32-4.2-9.36
			c-1.22-4.04-3.15-8.73-4.53-9c-1.38-0.28-3.73,0.52-5.76,0.96c-2.03,0.44-7.04,2.73-7.04,2.73s-2.35,0.8-2.47,5.58
			c-0.11,4.79-0.44,12.31,0.42,16.03c0.86,3.71,0.94,5.42,4.06,6.29c3.11,0.88,16.17,2.64,18.61,3.55c2.43,0.91,6.99,3.42,7.38,4.43
			c0.39,1.01,2.27,4.67-0.42,5.48c-2.69,0.81-8.52,0.99-12.61,0.6c-4.8-0.45-10.67-1.88-10.67-1.88s-1.13,1.43-1.23,2.79
			c-0.13,1.76,0.42,2.63,0.42,2.63s0.11-0.35,3.47,0.26c4.48,0.81,20.93,2.07,25.47,4.25c0,0,3.5,1.88,5.56,2.12
			C134.27,107.87,141.11,108.22,147.54,99.72z"/>
		<path class="st21" d="M100.99,61.65c0,0,1.59-2.47,2-1.12c0.41,1.35,1.09,8.48,1.53,10.51c0.44,2.03,0.86,3.71,1.98,5.71
			c1.12,2,1.56,4.02-0.49,4.12s-4.66-4.56-5.27-10.33C100.11,64.77,100.99,61.65,100.99,61.65z"/>
		<path class="st21" d="M130.94,102.56c0,0,1.51,3,2.89,3.28s5.74-1.3,7.41-2.06c1.67-0.76,0.94-1.75-0.76-1.67
			c-1.7,0.08-4.09,0.2-5.47-0.08c-1.38-0.28-3.86-2.21-3.86-2.21S130.2,101.23,130.94,102.56z"/>
	</g>
	<g>
		<g>
			<path class="st20" d="M131.12,117.91c-4.51,0-26.56-14.86-29.06-16.56c-0.31-0.18-8.83-5.28-9.52-11.4
				c-0.26-2.33,0.61-4.47,2.6-6.37c0.19-0.18,0.44-0.28,0.69-0.28c0.06,0,0.13,0.01,0.19,0.02c0.43,0.08,43.35,8.46,55.25,9.75
				c3.21,0.35,8.15,0.52,14.69,0.52c13.35,0,28.96-0.74,29.12-0.75c0.02,0,0.03,0,0.05,0c0.25,0,0.49,0.09,0.67,0.26
				c0.2,0.18,0.31,0.43,0.33,0.69l0.81,16.88c0.01,0.27-0.08,0.53-0.27,0.73c-0.18,0.2-0.44,0.31-0.71,0.32
				c-0.49,0.01-49.2,0.85-51.04,0.93c-1.56,0.07-10.24,3.36-12.8,4.99C131.84,117.82,131.51,117.91,131.12,117.91z"/>
			<path class="st2" d="M95.83,84.31c0,0,43.25,8.46,55.34,9.76c3.62,0.39,9.02,0.53,14.8,0.53c13.52,0,29.16-0.75,29.16-0.75
				l0.81,16.87c0,0-49.19,0.85-51.07,0.94s-10.73,3.52-13.28,5.14c-0.11,0.07-0.27,0.1-0.46,0.1c-4.33,0-28.5-16.39-28.5-16.39
				S87.92,91.83,95.83,84.31 M95.83,82.31c-0.51,0-1,0.19-1.38,0.55c-2.78,2.64-3.12,5.38-2.91,7.2c0.32,2.86,2.15,5.8,5.44,8.74
				c2.13,1.91,4.18,3.18,4.56,3.4c5.84,3.96,25,16.7,29.58,16.7c0.59,0,1.1-0.14,1.54-0.42c2.52-1.61,10.97-4.75,12.31-4.83
				c1.46-0.07,34-0.64,51.01-0.93c0.54-0.01,1.06-0.24,1.42-0.63c0.37-0.39,0.56-0.92,0.54-1.46l-0.81-16.87
				c-0.05-1.07-0.94-1.9-2-1.9c-0.03,0-0.06,0-0.1,0c-0.16,0.01-15.75,0.74-29.07,0.74c-6.5,0-11.41-0.17-14.59-0.51
				c-11.87-1.28-54.74-9.65-55.17-9.73C96.08,82.32,95.95,82.31,95.83,82.31L95.83,82.31z"/>
		</g>
		<path class="st2" d="M134.56,116.29L98.99,95.43c0,0-4.34-4.3-2.98-7.37c1.36-3.07,3.55-4.3,3.55-4.3s-3.29-5.86-4.63-10.3
			c-1.34-4.45-3.47-9.61-4.98-9.91s-4.11,0.57-6.34,1.05c-2.23,0.48-7.75,3-7.75,3s-2.59,0.88-2.71,6.14
			c-0.12,5.27-0.48,13.55,0.47,17.64c0.95,4.09,1.04,5.96,4.47,6.93c3.43,0.96,17.8,2.91,20.48,3.91s7.7,3.77,8.13,4.87
			c0.43,1.11,2.5,5.14-0.46,6.04c-2.96,0.89-9.37,1.09-13.87,0.66c-5.29-0.5-11.75-2.07-11.75-2.07s-1.25,1.57-1.36,3.07
			c-0.14,1.93,0.47,2.89,0.47,2.89s0.13-0.38,3.82,0.29c4.93,0.89,23.04,2.28,28.04,4.67c0,0,3.86,2.07,6.13,2.34
			C119.96,125.25,127.49,125.64,134.56,116.29z"/>
		<path class="st21" d="M83.32,74.38c0,0,1.75-2.71,2.2-1.23c0.45,1.48,1.2,9.34,1.68,11.57s0.95,4.09,2.18,6.29
			c1.23,2.2,1.71,4.43-0.54,4.54c-2.25,0.11-5.13-5.02-5.8-11.37S83.32,74.38,83.32,74.38z"/>
		<path class="st21" d="M116.29,119.41c0,0,1.66,3.3,3.18,3.61c1.52,0.3,6.32-1.43,8.16-2.27c1.84-0.84,1.04-1.93-0.84-1.84
			c-1.87,0.09-4.5,0.21-6.02-0.09c-1.52-0.3-4.25-2.43-4.25-2.43S115.47,117.95,116.29,119.41z"/>
	</g>
</g>
<path id="Blanket_2_" class="st22" d="M191.38,170.01l0.01-94.04c0,0,82.65-2.07,97.55-3.44c14.9-1.38,63.68-11.02,72.49-12.39
	c8.81-1.38,29.13-2.07,29.13-2.07v111.94H191.38z"/>
</svg>
