<?xml version="1.0" encoding="utf-8"?>
<!-- Generator: Adobe Illustrator 23.0.3, SVG Export Plug-In . SVG Version: 6.00 Build 0)  -->
<svg version="1.1" id="Layer_1" xmlns="http://www.w3.org/2000/svg" xmlns:xlink="http://www.w3.org/1999/xlink" x="0px" y="0px"
	 viewBox="0 0 50 50" style="enable-background:new 0 0 50 50;" xml:space="preserve">
<style type="text/css">
	.st0{fill:#E5E5E5;}
	.st1{enable-background:new    ;}
	.st2{fill:#545454;}
</style>
<g id="Help_1_">
	<circle class="st0" cx="25" cy="25" r="25"/>
	<g class="st1">
		<path class="st2" d="M21.99,27.86v-1.64c0-3.71,5.43-5.12,5.43-7.86c0-1.41-1.17-2.62-3.13-2.62c-2.38,0-3.44,1.52-4.22,2.03
			c-0.31,0.2-0.59,0.2-0.86-0.04l-1.84-1.8c-0.31-0.27-0.27-0.74,0-1.02c0,0,2.66-3.44,7.66-3.44c4.1,0,7.58,2.74,7.58,6.57
			c0,4.73-5.94,6.1-5.94,8.44v1.29c0,0.47-0.27,0.82-0.78,0.82h-3.17C22.34,28.6,21.99,28.29,21.99,27.86z M24.29,33.17
			c1.76,0,3.25,1.49,3.25,3.25c0,1.76-1.49,3.21-3.25,3.21c-1.76,0-3.21-1.45-3.21-3.21C21.09,34.66,22.54,33.17,24.29,33.17z"/>
	</g>
</g>
</svg>
