<?xml version="1.0" encoding="utf-8"?>
<!-- Generator: Adobe Illustrator 23.0.3, SVG Export Plug-In . SVG Version: 6.00 Build 0)  -->
<svg version="1.1" id="Layer_1" xmlns="http://www.w3.org/2000/svg" xmlns:xlink="http://www.w3.org/1999/xlink" x="0px" y="0px"
	 viewBox="0 0 389 144" style="enable-background:new 0 0 389 144;" xml:space="preserve">
<style type="text/css">
	.st0{clip-path:url(#SVGID_2_);}
	.st1{fill:#B7B7B7;}
	.st2{fill:#545454;}
	.st3{fill:#09668D;}
	.st4{fill:#F08FB8;stroke:#545454;stroke-width:1.9107;stroke-miterlimit:10;}
	.st5{fill:#F1BA70;stroke:#545454;stroke-width:2.1145;stroke-miterlimit:10;}
	.st6{fill:#FFFFFF;}
	.st7{fill:#FFFFFF;stroke:#545454;stroke-width:1.9107;stroke-miterlimit:10;}
	.st8{fill:#F08FB8;stroke:#545454;stroke-width:1.9775;stroke-miterlimit:10;}
	.st9{fill:#F1BA70;stroke:#545454;stroke-width:2.1885;stroke-miterlimit:10;}
	.st10{fill:#FFFFFF;stroke:#545454;stroke-width:1.9775;stroke-miterlimit:10;}
	.st11{fill:#8BC1D7;stroke:#545454;stroke-width:1.637;stroke-miterlimit:10;}
</style>
<g id="Table_1_">
	<g>
		<defs>
			<rect id="SVGID_1_" x="0.04" y="-1.3" width="389.32" height="153.88"/>
		</defs>
		<clipPath id="SVGID_2_">
			<use xlink:href="#SVGID_1_"  style="overflow:visible;"/>
		</clipPath>
		<g class="st0">
			<g>
				<path class="st1" d="M150.98,106.75c-10.43,0-18.92-8.49-18.92-18.92V66.39c0-10.43,8.49-18.92,18.92-18.92H402.4
					c10.43,0,18.92,8.49,18.92,18.92v21.44c0,10.43-8.49,18.92-18.92,18.92H150.98z M402.39,100.87c7.19,0,13.03-5.85,13.03-13.03
					V66.39c0-7.19-5.85-13.03-13.03-13.03H287.2v47.51C287.2,100.87,402.39,100.87,402.39,100.87z M150.98,53.36
					c-7.19,0-13.03,5.85-13.03,13.03v21.44c0,7.19,5.85,13.03,13.03,13.03h126.13v-47.5H150.98z"/>
				<path class="st2" d="M402.39,48.31c9.97,0,18.08,8.11,18.08,18.08v21.44c0,9.97-8.11,18.08-18.08,18.08H150.98
					c-9.97,0-18.08-8.11-18.08-18.08V66.39c0-9.97,8.11-18.08,18.08-18.08L402.39,48.31 M277.95,100.87V52.52H150.98
					c-7.65,0-13.87,6.22-13.87,13.87v21.44c0,7.65,6.22,13.87,13.87,13.87H402.4c7.65,0,13.87-6.22,13.87-13.87V66.39
					c0-7.65-6.22-13.87-13.87-13.87H286.36v48.35L277.95,100.87 M402.39,46.63H150.98c-10.9,0-19.76,8.86-19.76,19.76v21.44
					c0,10.9,8.86,19.76,19.76,19.76H402.4c10.9,0,19.76-8.86,19.76-19.76V66.39C422.15,55.5,413.29,46.63,402.39,46.63L402.39,46.63
					z M288.04,54.2H402.4c6.72,0,12.19,5.47,12.19,12.19v21.44c0,6.72-5.47,12.19-12.19,12.19H288.04V54.2L288.04,54.2z
					 M150.98,100.03c-6.72,0-12.19-5.47-12.19-12.19V66.39c0-6.72,5.47-12.19,12.19-12.19h125.29v45.83H150.98L150.98,100.03z"/>
			</g>
			<g>
				<path class="st3" d="M58.19,130.72c-4.71,0-8.53-3.83-8.53-8.53v-2.27c0-4.71,3.83-8.53,8.53-8.53h329.36
					c4.71,0,8.53,3.83,8.53,8.53v2.27c0,4.71-3.83,8.53-8.53,8.53H58.19z"/>
				<path class="st2" d="M387.55,112.22c4.23,0,7.69,3.46,7.69,7.69v2.27c0,4.23-3.46,7.69-7.69,7.69H58.19
					c-4.23,0-7.69-3.46-7.69-7.69v-2.27c0-4.23,3.46-7.69,7.69-7.69L387.55,112.22 M387.55,110.54H58.19
					c-5.17,0-9.38,4.21-9.38,9.38v2.27c0,5.17,4.21,9.38,9.38,9.38h329.36c5.17,0,9.38-4.21,9.38-9.38v-2.27
					C396.93,114.74,392.72,110.54,387.55,110.54L387.55,110.54z"/>
			</g>
			<g>
				<path class="st1" d="M39.91,143.33c-3.9,0-7.07-3.17-7.07-7.07v-1.84c0-3.9,3.17-7.07,7.07-7.07h450.01
					c3.9,0,7.07,3.17,7.07,7.07v1.84c0,3.9-3.17,7.07-7.07,7.07H39.91z"/>
				<path class="st2" d="M489.92,128.2c3.43,0,6.23,2.8,6.23,6.23v1.84c0,3.43-2.8,6.23-6.23,6.23H39.91c-3.43,0-6.23-2.8-6.23-6.23
					v-1.84c0-3.43,2.8-6.23,6.23-6.23H489.92 M489.92,126.51H39.91c-4.36,0-7.91,3.55-7.91,7.91v1.84c0,4.36,3.55,7.91,7.91,7.91
					h450.01c4.36,0,7.91-3.55,7.91-7.91v-1.84C497.83,130.06,494.28,126.51,489.92,126.51L489.92,126.51z"/>
			</g>
		</g>
	</g>
</g>
<g id="Bunny_Slippers_1_">
	<g>
		<path class="st4" d="M97.12,72.76c0,0,4.35,20.31,3.99,22.85c-0.36,2.54-3.26,15.23-4.35,17.05c-1.09,1.81-4.35,4.35-5.08,0.36
			c-0.73-3.99-7.18-37.36-7.18-37.36L97.12,72.76z"/>
		<line class="st4" x1="88.05" y1="75.29" x2="95.67" y2="114.83"/>
		<path class="st5" d="M89.26,54.19c0,0,6.66,37.31,9.33,40.65s7.33,4.66,17.32,4s88.39,0,88.39,0s0-19.32,0-19.32
			c-15.96,0-31.91,0-47.87,0c-11.8,0-8.71,0-20.52,0c-8.89,0-9.41,0.31-12.74-0.36c-6.13-1.23-20.86-18.93-22.59-24.97H89.26z"/>
		<path class="st4" d="M84.5,75.66c6.88-1.83,14.89-2.27,19.5-7.7c9.06-10.64-1.24-25.63-10.23-32.17
			c-1.92-1.39-4.25-2.66-6.56-2.11c-1.81,0.44-3.21,1.95-3.95,3.66c-0.74,1.71-0.92,3.6-1.03,5.45
			C81.6,53.77,83.05,64.75,84.5,75.66z"/>
		<g>
			<g>
				
					<ellipse transform="matrix(0.6179 -0.7863 0.7863 0.6179 -4.8309 97.5893)" class="st2" cx="97.98" cy="53.76" rx="2.47" ry="3.99"/>
			</g>
			<ellipse class="st6" cx="99.73" cy="53.45" rx="1.12" ry="1.05"/>
		</g>
		<g>
			<g>
				
					<ellipse transform="matrix(0.7169 -0.6972 0.6972 0.7169 -4.0221 83.7164)" class="st2" cx="101.07" cy="46.81" rx="1.69" ry="3.06"/>
			</g>
			
				<ellipse transform="matrix(0.3536 -0.9354 0.9354 0.3536 22.1651 126.3282)" class="st6" cx="102.48" cy="47.13" rx="0.67" ry="0.92"/>
		</g>
		<path class="st4" d="M106.18,51.72c6.06-1.41,20.5-6.52,26.48-2.54c1.09,0.73,3.26,3.63-3.26,5.8
			c-6.53,2.18-18.14,1.81-21.76,1.09C107.64,56.07,106.18,51.72,106.18,51.72z"/>
		<path class="st4" d="M106.18,62.6c6.06-1.41,20.5-6.52,26.48-2.54c1.09,0.73,3.26,3.63-3.26,5.8c-6.53,2.18-19.59,1.81-23.21,1.09
			C106.18,66.95,108.36,62.24,106.18,62.6z"/>
		<path class="st7" d="M87.48,39.77c-0.59,4.04,4.88,7.28,7.96,3.44c0.97-1.21,1.39-2.77,1.64-4.3c0.15-0.93,0.22-2-0.42-2.69
			c-0.36-0.39-0.88-0.59-1.39-0.72c-2.66-0.69-5.84,0.24-7.21,2.62C87.75,38.66,87.56,39.22,87.48,39.77z"/>
		<path class="st6" d="M113.17,50.95c0,0,18.41-2.04,17.68,2.31c0,0,6.94-3.13-3.13-4.76C123.29,47.78,113.17,50.95,113.17,50.95z"
			/>
		<path class="st6" d="M113.17,61.89c0,0,18.41-2.11,17.68,2.39c0,0,6.94-3.24-3.13-4.92C123.29,58.61,113.17,61.89,113.17,61.89z"
			/>
	</g>
	<path class="st8" d="M81.37,85.02c0,0,4.5,21.02,4.13,23.65s-3.38,15.77-4.5,17.64c-1.13,1.88-4.5,4.5-5.26,0.38
		s-7.43-38.67-7.43-38.67L81.37,85.02z"/>
	<line class="st8" x1="71.99" y1="87.65" x2="79.87" y2="128.57"/>
	<path class="st9" d="M74.12,65.16c0,0,6.9,38.62,9.66,42.07c2.76,3.45,7.59,4.83,17.93,4.14c10.34-0.69,92,0,92,0s0-20,0-20
		c-16.51,0-18.14,0-34.65,0c-12.22,0-24.43,0-36.65,0c-9.2,0-12.03-0.41-15.48-1.1C100.59,89,92.48,67.46,90.69,61.2L74.12,65.16z"
		/>
	<path class="st8" d="M68.31,88.03c7.12-1.89,15.41-2.35,20.18-7.96c9.38-11.02-1.28-26.52-10.59-33.29
		c-1.99-1.44-4.4-2.76-6.79-2.18c-1.87,0.45-3.32,2.02-4.08,3.78s-0.95,3.72-1.06,5.64C65.31,65.38,66.81,76.74,68.31,88.03z"/>
	<g>
		<g>
			
				<ellipse transform="matrix(0.6179 -0.7863 0.7863 0.6179 -19.9603 89.667)" class="st2" cx="82.27" cy="65.37" rx="2.55" ry="4.13"/>
		</g>
		<ellipse class="st6" cx="84.07" cy="65.04" rx="1.16" ry="1.09"/>
	</g>
	<g>
		<g>
			
				<ellipse transform="matrix(0.7169 -0.6972 0.6972 0.7169 -16.361 76.0516)" class="st2" cx="85.46" cy="58.17" rx="1.75" ry="3.17"/>
		</g>
		
			<ellipse transform="matrix(0.3536 -0.9354 0.9354 0.3536 1.4708 119.1264)" class="st6" cx="86.92" cy="58.5" rx="0.7" ry="0.95"/>
	</g>
	<path class="st8" d="M90.76,63.25c6.28-1.46,21.22-6.75,27.41-2.63c1.13,0.75,3.38,3.75-3.38,6.01
		c-6.76,2.25-18.77,1.88-22.52,1.13C92.26,67.75,90.76,63.25,90.76,63.25z"/>
	<path class="st8" d="M90.76,74.51c6.28-1.46,21.22-6.75,27.41-2.63c1.13,0.75,3.38,3.75-3.38,6.01
		c-6.76,2.25-20.27,1.88-24.03,1.13C90.76,79.02,93.01,74.14,90.76,74.51z"/>
	<path class="st10" d="M71.4,50.88c-0.61,4.18,5.05,7.53,8.24,3.56c1.01-1.25,1.44-2.87,1.7-4.45c0.16-0.96,0.22-2.07-0.43-2.79
		c-0.37-0.4-0.91-0.61-1.44-0.75c-2.75-0.72-6.05,0.24-7.46,2.71C71.68,49.74,71.48,50.32,71.4,50.88z"/>
	<path class="st6" d="M97.98,62.45c0,0,19.05-2.11,18.3,2.39c0,0,7.18-3.24-3.24-4.93C108.46,59.17,97.98,62.45,97.98,62.45z"/>
	<path class="st6" d="M97.98,73.77c0,0,19.05-2.18,18.3,2.47c0,0,7.18-3.35-3.24-5.1C108.46,70.38,97.98,73.77,97.98,73.77z"/>
</g>
<path id="Blanket_2_" class="st11" d="M191.38,170.01l0.01-94.04c0,0,82.65-2.07,97.55-3.44c14.9-1.38,63.68-11.02,72.49-12.39
	c8.81-1.38,29.13-2.07,29.13-2.07v111.94H191.38z"/>
<g id="Bunny_Slippers">
	<g>
		<path class="st4" d="M333.12,463.76c0,0,4.35,20.31,3.99,22.85c-0.36,2.54-3.26,15.23-4.35,17.05s-4.35,4.35-5.08,0.36
			c-0.73-3.99-7.18-37.36-7.18-37.36L333.12,463.76z"/>
		<line class="st4" x1="324.05" y1="466.29" x2="331.67" y2="505.83"/>
		<path class="st5" d="M325.26,445.19c0,0,6.66,37.31,9.33,40.65c2.67,3.33,7.33,4.66,17.32,4c10-0.67,88.39,0,88.39,0
			s0-19.32,0-19.32c-15.96,0-31.91,0-47.87,0c-11.8,0-8.71,0-20.52,0c-8.89,0-9.41,0.31-12.74-0.36
			c-6.13-1.23-20.86-18.93-22.59-24.97H325.26z"/>
		<path class="st4" d="M320.5,466.66c6.88-1.83,14.89-2.27,19.5-7.7c9.06-10.64-1.24-25.63-10.23-32.17
			c-1.92-1.39-4.25-2.66-6.56-2.11c-1.81,0.44-3.21,1.95-3.95,3.66c-0.74,1.71-0.92,3.6-1.03,5.45
			C317.6,444.77,319.05,455.75,320.5,466.66z"/>
		<g>
			<g>
				
					<ellipse transform="matrix(0.6179 -0.7863 0.7863 0.6179 -222.0849 432.573)" class="st2" cx="333.98" cy="444.76" rx="2.47" ry="3.99"/>
			</g>
			<ellipse class="st6" cx="335.73" cy="444.45" rx="1.12" ry="1.05"/>
		</g>
		<g>
			<g>
				
					<ellipse transform="matrix(0.7169 -0.6972 0.6972 0.7169 -209.8084 358.95)" class="st2" cx="337.07" cy="437.81" rx="1.69" ry="3.06"/>
			</g>
			
				<ellipse transform="matrix(0.3536 -0.9354 0.9354 0.3536 -191.0205 599.8468)" class="st6" cx="338.48" cy="438.13" rx="0.67" ry="0.92"/>
		</g>
		<path class="st4" d="M342.18,442.72c6.06-1.41,20.5-6.52,26.48-2.54c1.09,0.73,3.26,3.63-3.26,5.8
			c-6.53,2.18-18.14,1.81-21.76,1.09C343.64,447.07,342.18,442.72,342.18,442.72z"/>
		<path class="st4" d="M342.18,453.6c6.06-1.41,20.5-6.52,26.48-2.54c1.09,0.73,3.26,3.63-3.26,5.8
			c-6.53,2.18-19.59,1.81-23.21,1.09C342.18,457.95,344.36,453.24,342.18,453.6z"/>
		<path class="st7" d="M323.48,430.77c-0.59,4.04,4.88,7.28,7.96,3.44c0.97-1.21,1.39-2.77,1.64-4.3c0.15-0.93,0.22-2-0.42-2.69
			c-0.36-0.39-0.88-0.59-1.39-0.72c-2.66-0.69-5.84,0.24-7.21,2.62C323.75,429.66,323.56,430.22,323.48,430.77z"/>
		<path class="st6" d="M349.17,441.95c0,0,18.41-2.04,17.68,2.31c0,0,6.94-3.13-3.13-4.76
			C359.29,438.78,349.17,441.95,349.17,441.95z"/>
		<path class="st6" d="M349.17,452.89c0,0,18.41-2.11,17.68,2.39c0,0,6.94-3.24-3.13-4.92
			C359.29,449.61,349.17,452.89,349.17,452.89z"/>
	</g>
	<path class="st8" d="M317.37,476.02c0,0,4.5,21.02,4.13,23.65c-0.38,2.63-3.38,15.77-4.5,17.64c-1.13,1.88-4.5,4.51-5.26,0.38
		c-0.75-4.13-7.43-38.67-7.43-38.67L317.37,476.02z"/>
	<line class="st8" x1="307.99" y1="478.65" x2="315.87" y2="519.57"/>
	<path class="st9" d="M310.12,456.16c0,0,6.9,38.62,9.66,42.07c2.76,3.45,7.59,4.83,17.93,4.14c10.34-0.69,92,0,92,0s0-20,0-20
		c-16.51,0-18.14,0-34.65,0c-12.22,0-24.43,0-36.65,0c-9.2,0-12.03-0.41-15.48-1.1c-6.34-1.27-14.45-22.81-16.24-29.06
		L310.12,456.16z"/>
	<path class="st8" d="M304.31,479.03c7.12-1.89,15.41-2.35,20.18-7.96c9.38-11.02-1.28-26.52-10.59-33.29
		c-1.99-1.44-4.4-2.76-6.79-2.18c-1.87,0.45-3.32,2.02-4.08,3.78c-0.77,1.77-0.95,3.72-1.06,5.64
		C301.31,456.38,302.81,467.74,304.31,479.03z"/>
	<g>
		<g>
			
				<ellipse transform="matrix(0.6179 -0.7863 0.7863 0.6179 -237.2143 424.6507)" class="st2" cx="318.27" cy="456.37" rx="2.55" ry="4.13"/>
		</g>
		<ellipse class="st6" cx="320.07" cy="456.04" rx="1.16" ry="1.09"/>
	</g>
	<g>
		<g>
			
				<ellipse transform="matrix(0.7169 -0.6972 0.6972 0.7169 -222.1473 351.2851)" class="st2" cx="321.46" cy="449.17" rx="1.75" ry="3.17"/>
		</g>
		
			<ellipse transform="matrix(0.3536 -0.9354 0.9354 0.3536 -211.7148 592.645)" class="st6" cx="322.92" cy="449.5" rx="0.7" ry="0.95"/>
	</g>
	<path class="st8" d="M326.76,454.25c6.28-1.46,21.22-6.75,27.41-2.63c1.13,0.75,3.38,3.75-3.38,6.01
		c-6.76,2.25-18.77,1.88-22.52,1.13C328.26,458.75,326.76,454.25,326.76,454.25z"/>
	<path class="st8" d="M326.76,465.51c6.28-1.46,21.22-6.75,27.41-2.63c1.13,0.75,3.38,3.75-3.38,6.01
		c-6.76,2.25-20.27,1.88-24.03,1.13C326.76,470.02,329.01,465.14,326.76,465.51z"/>
	<path class="st10" d="M307.4,441.88c-0.61,4.18,5.05,7.53,8.24,3.56c1.01-1.25,1.44-2.87,1.7-4.45c0.16-0.96,0.22-2.07-0.43-2.79
		c-0.37-0.4-0.91-0.61-1.44-0.75c-2.75-0.72-6.05,0.24-7.46,2.71C307.68,440.74,307.48,441.32,307.4,441.88z"/>
	<path class="st6" d="M333.98,453.45c0,0,19.05-2.11,18.3,2.39c0,0,7.18-3.24-3.24-4.93C344.46,450.17,333.98,453.45,333.98,453.45z
		"/>
	<path class="st6" d="M333.98,464.77c0,0,19.05-2.18,18.3,2.47c0,0,7.18-3.35-3.24-5.1C344.46,461.38,333.98,464.77,333.98,464.77z"
		/>
</g>
</svg>
