<?xml version="1.0" encoding="utf-8"?>
<!-- Generator: Adobe Illustrator 23.0.3, SVG Export Plug-In . SVG Version: 6.00 Build 0)  -->
<svg version="1.1" id="Layer_1" xmlns="http://www.w3.org/2000/svg" xmlns:xlink="http://www.w3.org/1999/xlink" x="0px" y="0px"
	 viewBox="0 0 21 20.7" style="enable-background:new 0 0 21 20.7;" xml:space="preserve">
<style type="text/css">
	.st0{fill:#F08FB8;}
</style>
<g id="Q6dAce_4_">
	<g>
		<path class="st0" d="M10.53,4.49c0.44-0.94,1.03-1.72,1.84-2.34c1.88-1.44,4.51-1.4,6.33,0.12c1.72,1.44,2.39,3.31,2.19,5.51
			c-0.19,2.09-1.14,3.87-2.41,5.49c-1.73,2.18-3.87,3.89-6.21,5.36c-0.5,0.32-1.02,0.59-1.53,0.9c-0.15,0.09-0.27,0.09-0.43,0
			c-1.75-0.96-3.4-2.08-4.92-3.37c-1.43-1.21-2.71-2.55-3.71-4.14C0.84,10.71,0.3,9.29,0.12,7.74c-0.31-2.68,1.22-5.37,3.63-6.3
			C6.03,0.56,8.6,1.44,9.98,3.56C10.17,3.85,10.33,4.16,10.53,4.49z"/>
	</g>
</g>
</svg>
