<?xml version="1.0" encoding="utf-8"?>
<!-- Generator: Adobe Illustrator 23.0.3, SVG Export Plug-In . SVG Version: 6.00 Build 0)  -->
<svg version="1.1" id="Layer_1" xmlns="http://www.w3.org/2000/svg" xmlns:xlink="http://www.w3.org/1999/xlink" x="0px" y="0px"
	 viewBox="0 0 389 144" style="enable-background:new 0 0 389 144;" xml:space="preserve">
<style type="text/css">
	.st0{clip-path:url(#SVGID_2_);}
	.st1{fill:#B7B7B7;}
	.st2{fill:#545454;}
	.st3{fill:#09668D;}
	.st4{fill:#FFFFFF;stroke:#545454;stroke-width:1.7487;stroke-miterlimit:10;}
	.st5{fill:#43823E;}
	.st6{fill:#D63E26;stroke:#545454;stroke-width:2.0473;stroke-linejoin:round;stroke-miterlimit:10;}
	.st7{fill:#F1CC2D;}
	.st8{fill:#D63E26;}
	.st9{fill:#FFFFFF;stroke:#545454;stroke-width:1.7644;stroke-miterlimit:10;}
	.st10{fill:#D63E26;stroke:#545454;stroke-width:2.0657;stroke-linejoin:round;stroke-miterlimit:10;}
	.st11{fill:#8BC1D7;stroke:#545454;stroke-width:1.637;stroke-miterlimit:10;}
</style>
<g id="Table_1_">
	<g>
		<defs>
			<rect id="SVGID_1_" x="0.04" y="-1.3" width="389.32" height="153.88"/>
		</defs>
		<clipPath id="SVGID_2_">
			<use xlink:href="#SVGID_1_"  style="overflow:visible;"/>
		</clipPath>
		<g class="st0">
			<g>
				<path class="st1" d="M150.98,106.75c-10.43,0-18.92-8.49-18.92-18.92V66.39c0-10.43,8.49-18.92,18.92-18.92H402.4
					c10.43,0,18.92,8.49,18.92,18.92v21.44c0,10.43-8.49,18.92-18.92,18.92H150.98z M402.39,100.87c7.19,0,13.03-5.85,13.03-13.03
					V66.39c0-7.19-5.85-13.03-13.03-13.03H287.2v47.51C287.2,100.87,402.39,100.87,402.39,100.87z M150.98,53.36
					c-7.19,0-13.03,5.85-13.03,13.03v21.44c0,7.19,5.85,13.03,13.03,13.03h126.13v-47.5H150.98z"/>
				<path class="st2" d="M402.39,48.31c9.97,0,18.08,8.11,18.08,18.08v21.44c0,9.97-8.11,18.08-18.08,18.08H150.98
					c-9.97,0-18.08-8.11-18.08-18.08V66.39c0-9.97,8.11-18.08,18.08-18.08L402.39,48.31 M277.95,100.87V52.52H150.98
					c-7.65,0-13.87,6.22-13.87,13.87v21.44c0,7.65,6.22,13.87,13.87,13.87H402.4c7.65,0,13.87-6.22,13.87-13.87V66.39
					c0-7.65-6.22-13.87-13.87-13.87H286.36v48.35L277.95,100.87 M402.39,46.63H150.98c-10.9,0-19.76,8.86-19.76,19.76v21.44
					c0,10.9,8.86,19.76,19.76,19.76H402.4c10.9,0,19.76-8.86,19.76-19.76V66.39C422.15,55.5,413.29,46.63,402.39,46.63L402.39,46.63
					z M288.04,54.2H402.4c6.72,0,12.19,5.47,12.19,12.19v21.44c0,6.72-5.47,12.19-12.19,12.19H288.04V54.2L288.04,54.2z
					 M150.98,100.03c-6.72,0-12.19-5.47-12.19-12.19V66.39c0-6.72,5.47-12.19,12.19-12.19h125.29v45.83H150.98L150.98,100.03z"/>
			</g>
			<g>
				<path class="st3" d="M58.19,130.72c-4.71,0-8.53-3.83-8.53-8.53v-2.27c0-4.71,3.83-8.53,8.53-8.53h329.36
					c4.71,0,8.53,3.83,8.53,8.53v2.27c0,4.71-3.83,8.53-8.53,8.53H58.19z"/>
				<path class="st2" d="M387.55,112.22c4.23,0,7.69,3.46,7.69,7.69v2.27c0,4.23-3.46,7.69-7.69,7.69H58.19
					c-4.23,0-7.69-3.46-7.69-7.69v-2.27c0-4.23,3.46-7.69,7.69-7.69L387.55,112.22 M387.55,110.54H58.19
					c-5.17,0-9.38,4.21-9.38,9.38v2.27c0,5.17,4.21,9.38,9.38,9.38h329.36c5.17,0,9.38-4.21,9.38-9.38v-2.27
					C396.93,114.74,392.72,110.54,387.55,110.54L387.55,110.54z"/>
			</g>
			<g>
				<path class="st1" d="M39.91,143.33c-3.9,0-7.07-3.17-7.07-7.07v-1.84c0-3.9,3.17-7.07,7.07-7.07h450.01
					c3.9,0,7.07,3.17,7.07,7.07v1.84c0,3.9-3.17,7.07-7.07,7.07H39.91z"/>
				<path class="st2" d="M489.92,128.2c3.43,0,6.23,2.8,6.23,6.23v1.84c0,3.43-2.8,6.23-6.23,6.23H39.91c-3.43,0-6.23-2.8-6.23-6.23
					v-1.84c0-3.43,2.8-6.23,6.23-6.23H489.92 M489.92,126.51H39.91c-4.36,0-7.91,3.55-7.91,7.91v1.84c0,4.36,3.55,7.91,7.91,7.91
					h450.01c4.36,0,7.91-3.55,7.91-7.91v-1.84C497.83,130.06,494.28,126.51,489.92,126.51L489.92,126.51z"/>
			</g>
		</g>
	</g>
</g>
<g id="Elf_Shoes">
	<g>
		<rect x="139.39" y="84.58" class="st4" width="88.84" height="20.32"/>
		<g>
			<g>
				<path class="st5" d="M103.17,107.81c-5.18,0-9.35-2.14-10.63-5.46c-1.2-3.13-1.22-9.61-0.03-13.86
					c1.03-3.7,0.77-15.03,0.34-21.74c-0.19-2.94-1.17-7.48-2.12-11.88c-0.94-4.38-1.84-8.52-2.02-11.28
					c-0.47-6.89,0.2-16.29,6.06-21.97c5.47-5.29,13.64-8.58,21.33-8.58c0.64,0,1.28,0.02,1.91,0.07c10.3,0.77,19.3,9.23,20.49,19.26
					c1.19,10.07-9.06,16.5-9.5,16.77c-0.16,0.1-0.34,0.15-0.52,0.15c-0.28,0-0.55-0.12-0.75-0.34l-2.26-2.57
					c-0.18-0.2-0.26-0.46-0.24-0.73c0.02-0.27,0.15-0.51,0.35-0.68c1.46-1.23,0.72-6.71-0.29-10.27c-2.08-4.02-4.34-4.56-6.28-4.56
					c-1.03,0-2.11,0.19-3.14,0.39c-1.33,0.26-2.38,1.1-2.95,2.35c-0.67,1.46-0.58,3.2,0.24,4.64c1.87,3.3,2.18,7.3,0.8,10.45
					c-0.5,1.14,0.23,2.13,2.08,4.43c0.88,1.1,1.98,2.47,3.11,4.18c3.21,4.88-0.99,14.85-2.25,17.58c3.16,2.75,6.57,4.9,10.14,6.37
					c0.2,0.08,0.36,0.22,0.47,0.41c1.14,1.89,3.71,5.34,8.15,7.27c0.36,0.16,0.59,0.51,0.6,0.9c0,0.39-0.22,0.75-0.57,0.91
					l-6.96,3.25l7.05,4.19c0.29,0.17,0.47,0.47,0.48,0.8c0.02,0.33-0.13,0.65-0.4,0.85c-0.06,0.04-5.87,4.38-7.85,6.65
					c-0.19,0.22-0.46,0.34-0.75,0.34c-0.03,0-0.06,0-0.09,0c-1.25-0.11-2.3-0.17-3.2-0.17c-4.33,0-8.46,0.54-12.45,1.06
					c-2.49,0.33-4.85,0.63-7.06,0.78C104.02,107.79,103.59,107.81,103.17,107.81z"/>
				<path class="st2" d="M116.1,14.03c0.61,0,1.23,0.02,1.83,0.07c9.79,0.74,18.45,8.83,19.58,18.39
					c1.13,9.56-9.03,15.81-9.03,15.81l-2.26-2.57c2.63-2.21,0-11.4,0-11.4c-2.12-4.14-4.61-5.18-7.21-5.18
					c-1.1,0-2.21,0.19-3.33,0.4c-3.76,0.74-5.27,5.15-3.39,8.46c1.88,3.31,1.88,6.99,0.75,9.56c-1.13,2.57,1.88,4.41,5.27,9.56
					c3.39,5.15-2.64,17.28-2.64,17.28c3.74,3.37,7.48,5.59,10.97,7.04c1.23,2.04,3.93,5.64,8.6,7.67l-8.66,4.05l8.66,5.15
					c0,0-5.93,4.42-8.01,6.79c-1.17-0.11-2.29-0.17-3.29-0.17c-7.15,0-13.93,1.47-19.57,1.84c-0.41,0.03-0.82,0.04-1.22,0.04
					c-5.02,0-8.65-2.09-9.7-4.82c-1.13-2.94-1.13-9.19,0-13.24c1.13-4.05,0.75-16.18,0.38-22.07c-0.38-5.88-3.76-17.65-4.14-23.17
					c-0.49-7.11,0.34-15.95,5.76-21.19C100.66,17.3,108.66,14.03,116.1,14.03 M116.1,12.05C116.1,12.05,116.1,12.05,116.1,12.05
					c-7.94,0-16.38,3.39-22.02,8.86c-6.13,5.94-6.84,15.65-6.35,22.74c0.19,2.84,1.09,7.01,2.04,11.42
					c0.94,4.36,1.91,8.87,2.1,11.74c0.41,6.39,0.69,17.85-0.31,21.41c-1.26,4.5-1.23,11.13,0.06,14.48
					c1.42,3.7,5.95,6.09,11.55,6.09c0.44,0,0.9-0.01,1.35-0.04c2.24-0.15,4.62-0.46,7.13-0.78c3.96-0.52,8.05-1.05,12.32-1.05
					c0.87,0,1.89,0.05,3.11,0.16c0.06,0.01,0.12,0.01,0.18,0.01c0.57,0,1.12-0.25,1.49-0.68c1.58-1.82,6.09-5.31,7.7-6.51
					c0.53-0.4,0.83-1.03,0.8-1.69c-0.03-0.66-0.4-1.26-0.97-1.6l-5.44-3.23l5.26-2.46c0.71-0.33,1.15-1.04,1.14-1.82
					c-0.01-0.78-0.48-1.48-1.19-1.79c-4.19-1.82-6.62-5.09-7.69-6.87c-0.22-0.36-0.55-0.65-0.94-0.81c-3.26-1.35-6.38-3.27-9.3-5.72
					c1.61-3.63,5.14-12.88,1.86-17.86c-1.15-1.75-2.27-3.14-3.16-4.26c-1.73-2.15-2.19-2.86-1.95-3.42
					c1.5-3.43,1.18-7.77-0.84-11.34c-0.65-1.15-0.73-2.58-0.2-3.74c0.26-0.56,0.89-1.53,2.24-1.79c0.98-0.19,2.01-0.37,2.95-0.37
					c0,0,0,0,0,0c1.71,0,3.54,0.48,5.36,3.94c1.21,4.34,1.31,8.53,0.58,9.15c-0.41,0.34-0.66,0.84-0.7,1.37
					c-0.04,0.53,0.13,1.06,0.49,1.46l2.26,2.57c0.39,0.44,0.94,0.67,1.49,0.67c0.36,0,0.72-0.1,1.04-0.29
					c0.46-0.28,11.23-7.04,9.96-17.73c-1.24-10.48-10.64-19.32-21.4-20.13C117.44,12.08,116.77,12.05,116.1,12.05L116.1,12.05
					L116.1,12.05z"/>
			</g>
			<path class="st6" d="M143.91,106.92c0-1.96,0-12.16,1.13-16.08c1.13-3.92,1.88-9.42,0-8.63c0,0-8.16,2.61-18.39-1.9
				c1.23,2.18,3.93,6.02,8.6,8.18l-8.66,4.32l8.66,5.49c0,0-5.93,4.71-8.01,7.25C134.45,106.23,143.91,108.61,143.91,106.92z"/>
		</g>
		<g>
			<path class="st7" d="M125.65,54.81c-2.93,0-5.32-2.34-5.32-5.22s2.39-5.22,5.32-5.22c2.93,0,5.32,2.34,5.32,5.22
				S128.59,54.81,125.65,54.81z"/>
			<path class="st2" d="M125.65,45.36c2.39,0,4.33,1.89,4.33,4.23c0,2.34-1.94,4.23-4.33,4.23s-4.33-1.89-4.33-4.23
				C121.33,47.26,123.26,45.36,125.65,45.36 M125.65,43.38c-3.48,0-6.31,2.79-6.31,6.21c0,3.42,2.83,6.21,6.31,6.21
				s6.31-2.79,6.31-6.21C131.97,46.17,129.13,43.38,125.65,43.38L125.65,43.38z"/>
		</g>
		<rect x="156.71" y="85.45" class="st8" width="8.32" height="18.39"/>
		<rect x="174.02" y="85.45" class="st8" width="8.32" height="18.39"/>
		<rect x="191.34" y="85.45" class="st8" width="8.32" height="18.39"/>
		<rect x="208.66" y="85.45" class="st8" width="8.32" height="18.39"/>
	</g>
	<g>
		<rect x="132.12" y="89.36" class="st9" width="88.6" height="20.74"/>
		<g>
			<g>
				<path class="st5" d="M95.99,113.06c-5.17,0-9.34-2.19-10.61-5.57c-1.2-3.19-1.21-9.8-0.03-14.13c1.03-3.79,0.77-15.35,0.34-22.2
					c-0.19-3-1.17-7.64-2.11-12.13c-0.94-4.47-1.83-8.69-2.02-11.51c-0.47-7.03,0.2-16.62,6.03-22.4
					c5.45-5.41,13.61-8.77,21.29-8.77c0.64,0,1.28,0.02,1.9,0.07c10.28,0.79,19.26,9.42,20.44,19.65
					c1.18,10.27-9.03,16.83-9.47,17.1c-0.16,0.1-0.35,0.15-0.53,0.15c-0.28,0-0.56-0.12-0.76-0.35l-2.25-2.63
					c-0.17-0.2-0.26-0.46-0.24-0.73s0.15-0.51,0.35-0.68c1.47-1.26,0.72-6.87-0.29-10.52c-2.08-4.1-4.33-4.66-6.25-4.66
					c-1.02,0-2.1,0.19-3.12,0.39c-1.3,0.26-2.33,1.09-2.92,2.35c-0.69,1.49-0.61,3.34,0.21,4.82c1.86,3.36,2.17,7.43,0.8,10.64
					c-0.51,1.18,0.22,2.19,2.08,4.56c0.88,1.12,1.98,2.52,3.1,4.27c3.2,4.98-1.01,15.18-2.25,17.94c3.16,2.82,6.56,5,10.12,6.51
					c0.2,0.08,0.36,0.23,0.47,0.41c1.13,1.93,3.7,5.46,8.12,7.42c0.36,0.16,0.59,0.51,0.59,0.9c0.01,0.39-0.22,0.75-0.57,0.92
					l-6.97,3.33l7.06,4.3c0.28,0.17,0.46,0.47,0.48,0.8c0.02,0.33-0.13,0.65-0.39,0.85c-0.06,0.04-5.86,4.47-7.83,6.79
					c-0.19,0.22-0.47,0.35-0.76,0.35c-0.03,0-0.06,0-0.09,0c-1.24-0.12-2.28-0.17-3.19-0.17c-4.31,0-8.43,0.55-12.4,1.08
					c-2.49,0.33-4.84,0.65-7.05,0.79C96.84,113.04,96.41,113.06,95.99,113.06z"/>
				<path class="st2" d="M108.9,17.34c0.61,0,1.22,0.02,1.83,0.07c9.76,0.75,18.4,9.01,19.52,18.77c1.13,9.76-9.01,16.14-9.01,16.14
					l-2.25-2.63c2.63-2.25,0-11.64,0-11.64c-2.11-4.23-4.6-5.29-7.19-5.29c-1.09,0-2.21,0.19-3.32,0.41
					c-3.75,0.75-5.26,5.26-3.38,8.63c1.88,3.38,1.88,7.13,0.75,9.76c-1.13,2.63,1.88,4.5,5.26,9.76c3.38,5.26-2.63,17.64-2.63,17.64
					c3.73,3.44,7.46,5.71,10.94,7.19c1.23,2.08,3.92,5.76,8.58,7.83l-8.63,4.13l8.63,5.26c0,0-5.92,4.51-7.98,6.93
					c-1.17-0.11-2.28-0.18-3.28-0.18c-7.13,0-13.89,1.5-19.52,1.88c-0.41,0.03-0.82,0.04-1.21,0.04c-5.01,0-8.63-2.14-9.67-4.92
					c-1.13-3-1.13-9.39,0-13.51c1.13-4.13,0.75-16.52,0.38-22.52c-0.38-6.01-3.75-18.02-4.13-23.65
					c-0.48-7.26,0.34-16.28,5.74-21.63C93.5,20.68,101.47,17.34,108.9,17.34 M108.9,15.34C108.9,15.34,108.9,15.34,108.9,15.34
					c-7.93,0-16.36,3.47-21.99,9.05c-6.1,6.05-6.81,15.95-6.33,23.18c0.19,2.89,1.09,7.15,2.04,11.65
					c0.94,4.46,1.91,9.06,2.09,11.99c0.41,6.52,0.68,18.23-0.31,21.87c-1.25,4.58-1.22,11.33,0.06,14.74
					c1.42,3.78,5.95,6.22,11.55,6.22c0.44,0,0.9-0.02,1.35-0.05c2.24-0.15,4.61-0.47,7.11-0.8c3.95-0.53,8.03-1.07,12.27-1.07
					c0.87,0,1.88,0.05,3.09,0.17c0.06,0.01,0.12,0.01,0.19,0.01c0.58,0,1.14-0.25,1.52-0.7c1.58-1.85,6.08-5.42,7.67-6.64
					c0.53-0.4,0.82-1.04,0.78-1.7c-0.03-0.66-0.39-1.26-0.96-1.6l-5.48-3.34l5.3-2.54c0.7-0.34,1.15-1.05,1.14-1.83
					c-0.01-0.78-0.47-1.48-1.19-1.8c-4.17-1.85-6.59-5.19-7.67-7.02c-0.22-0.37-0.55-0.66-0.94-0.83c-3.25-1.38-6.37-3.35-9.29-5.86
					c1.59-3.67,5.14-13.14,1.88-18.21c-1.15-1.79-2.26-3.21-3.15-4.35c-1.76-2.25-2.2-2.94-1.95-3.54c1.49-3.48,1.17-7.9-0.84-11.52
					c-0.67-1.21-0.74-2.7-0.18-3.91c0.26-0.56,0.88-1.53,2.2-1.79c0.97-0.19,2-0.37,2.93-0.37c1.69,0,3.51,0.49,5.32,4.02
					c1.21,4.46,1.31,8.76,0.57,9.39c-0.4,0.35-0.65,0.84-0.69,1.37c-0.04,0.53,0.13,1.05,0.48,1.46l2.25,2.63
					c0.39,0.46,0.95,0.7,1.52,0.7c0.37,0,0.74-0.1,1.06-0.31c0.46-0.29,11.19-7.18,9.93-18.06c-1.23-10.69-10.61-19.71-21.36-20.54
					C110.23,15.37,109.56,15.34,108.9,15.34L108.9,15.34z"/>
			</g>
			<path class="st10" d="M136.63,112.16c0-2,0-12.41,1.13-16.42c1.13-4,1.88-9.61,0-8.81c0,0-8.13,2.66-18.34-1.94
				c1.23,2.22,3.92,6.14,8.58,8.35l-8.63,4.41l8.63,5.61c0,0-5.92,4.81-7.98,7.4C127.19,111.46,136.63,113.88,136.63,112.16z"/>
		</g>
		<g>
			<path class="st7" d="M118.42,58.96c-2.93,0-5.32-2.39-5.32-5.32c0-2.93,2.39-5.32,5.32-5.32c2.93,0,5.32,2.39,5.32,5.32
				C123.74,56.57,121.35,58.96,118.42,58.96z"/>
			<path class="st2" d="M118.42,49.32c2.38,0,4.32,1.93,4.32,4.32c0,2.38-1.93,4.32-4.32,4.32s-4.32-1.93-4.32-4.32
				C114.1,51.26,116.04,49.32,118.42,49.32 M118.42,47.32c-3.48,0-6.32,2.83-6.32,6.32s2.83,6.32,6.32,6.32s6.32-2.83,6.32-6.32
				S121.9,47.32,118.42,47.32L118.42,47.32z"/>
		</g>
		<rect x="149.39" y="90.24" class="st8" width="8.29" height="18.77"/>
		<rect x="166.66" y="90.24" class="st8" width="8.29" height="18.77"/>
		<rect x="183.93" y="90.24" class="st8" width="8.29" height="18.77"/>
		<rect x="201.2" y="90.24" class="st8" width="8.29" height="18.77"/>
	</g>
</g>
<path id="Blanket_2_" class="st11" d="M191.38,175.01l0.01-94.04c0,0,82.65-2.07,97.55-3.44c14.9-1.38,63.68-11.02,72.49-12.39
	c8.81-1.38,29.13-2.07,29.13-2.07v111.94H191.38z"/>
</svg>
