<?xml version="1.0" encoding="utf-8"?>
<!-- Generator: Adobe Illustrator 23.0.3, SVG Export Plug-In . SVG Version: 6.00 Build 0)  -->
<svg version="1.1" id="Layer_1" xmlns="http://www.w3.org/2000/svg" xmlns:xlink="http://www.w3.org/1999/xlink" x="0px" y="0px"
	 viewBox="0 0 389 144" style="enable-background:new 0 0 389 144;" xml:space="preserve">
<style type="text/css">
	.st0{clip-path:url(#SVGID_2_);}
	.st1{fill:#B7B7B7;}
	.st2{fill:#545454;}
	.st3{fill:#09668D;}
	.st4{fill:#FFFFFF;stroke:#545454;stroke-width:2.0037;stroke-miterlimit:10;}
	.st5{fill:#D63E26;}
	.st6{fill:none;stroke:#D63E26;stroke-width:1.9279;stroke-miterlimit:10;}
	.st7{fill:#FFFFFF;stroke:#545454;stroke-width:1.9842;stroke-miterlimit:10;}
	.st8{fill:#FFFFFF;stroke:#545454;stroke-width:2.0787;stroke-miterlimit:10;}
	.st9{fill:#8BC1D7;stroke:#545454;stroke-width:1.637;stroke-miterlimit:10;}
</style>
<g id="Table_1_">
	<g>
		<defs>
			<rect id="SVGID_1_" x="0.04" y="-1.3" width="389.32" height="153.88"/>
		</defs>
		<clipPath id="SVGID_2_">
			<use xlink:href="#SVGID_1_"  style="overflow:visible;"/>
		</clipPath>
		<g class="st0">
			<g>
				<path class="st1" d="M150.98,106.75c-10.43,0-18.92-8.49-18.92-18.92V66.39c0-10.43,8.49-18.92,18.92-18.92H402.4
					c10.43,0,18.92,8.49,18.92,18.92v21.44c0,10.43-8.49,18.92-18.92,18.92H150.98z M402.39,100.87c7.19,0,13.03-5.85,13.03-13.03
					V66.39c0-7.19-5.85-13.03-13.03-13.03H287.2v47.51C287.2,100.87,402.39,100.87,402.39,100.87z M150.98,53.36
					c-7.19,0-13.03,5.85-13.03,13.03v21.44c0,7.19,5.85,13.03,13.03,13.03h126.13v-47.5H150.98z"/>
				<path class="st2" d="M402.39,48.31c9.97,0,18.08,8.11,18.08,18.08v21.44c0,9.97-8.11,18.08-18.08,18.08H150.98
					c-9.97,0-18.08-8.11-18.08-18.08V66.39c0-9.97,8.11-18.08,18.08-18.08L402.39,48.31 M277.95,100.87V52.52H150.98
					c-7.65,0-13.87,6.22-13.87,13.87v21.44c0,7.65,6.22,13.87,13.87,13.87H402.4c7.65,0,13.87-6.22,13.87-13.87V66.39
					c0-7.65-6.22-13.87-13.87-13.87H286.36v48.35L277.95,100.87 M402.39,46.63H150.98c-10.9,0-19.76,8.86-19.76,19.76v21.44
					c0,10.9,8.86,19.76,19.76,19.76H402.4c10.9,0,19.76-8.86,19.76-19.76V66.39C422.15,55.5,413.29,46.63,402.39,46.63L402.39,46.63
					z M288.04,54.2H402.4c6.72,0,12.19,5.47,12.19,12.19v21.44c0,6.72-5.47,12.19-12.19,12.19H288.04V54.2L288.04,54.2z
					 M150.98,100.03c-6.72,0-12.19-5.47-12.19-12.19V66.39c0-6.72,5.47-12.19,12.19-12.19h125.29v45.83H150.98L150.98,100.03z"/>
			</g>
			<g>
				<path class="st3" d="M58.19,130.72c-4.71,0-8.53-3.83-8.53-8.53v-2.27c0-4.71,3.83-8.53,8.53-8.53h329.36
					c4.71,0,8.53,3.83,8.53,8.53v2.27c0,4.71-3.83,8.53-8.53,8.53H58.19z"/>
				<path class="st2" d="M387.55,112.22c4.23,0,7.69,3.46,7.69,7.69v2.27c0,4.23-3.46,7.69-7.69,7.69H58.19
					c-4.23,0-7.69-3.46-7.69-7.69v-2.27c0-4.23,3.46-7.69,7.69-7.69L387.55,112.22 M387.55,110.54H58.19
					c-5.17,0-9.38,4.21-9.38,9.38v2.27c0,5.17,4.21,9.38,9.38,9.38h329.36c5.17,0,9.38-4.21,9.38-9.38v-2.27
					C396.93,114.74,392.72,110.54,387.55,110.54L387.55,110.54z"/>
			</g>
			<g>
				<path class="st1" d="M39.91,143.33c-3.9,0-7.07-3.17-7.07-7.07v-1.84c0-3.9,3.17-7.07,7.07-7.07h450.01
					c3.9,0,7.07,3.17,7.07,7.07v1.84c0,3.9-3.17,7.07-7.07,7.07H39.91z"/>
				<path class="st2" d="M489.92,128.2c3.43,0,6.23,2.8,6.23,6.23v1.84c0,3.43-2.8,6.23-6.23,6.23H39.91c-3.43,0-6.23-2.8-6.23-6.23
					v-1.84c0-3.43,2.8-6.23,6.23-6.23H489.92 M489.92,126.51H39.91c-4.36,0-7.91,3.55-7.91,7.91v1.84c0,4.36,3.55,7.91,7.91,7.91
					h450.01c4.36,0,7.91-3.55,7.91-7.91v-1.84C497.83,130.06,494.28,126.51,489.92,126.51L489.92,126.51z"/>
			</g>
		</g>
	</g>
</g>
<g id="Moon_Boots">
	<g>
		<path class="st4" d="M120.01,62.7c-0.61,0.72-8.43-7.73-12.21-18.89c-2.15-6.32-0.92-11.03-5.68-16.34
			c-3.96-4.42-14.79-8.14-18.77-1.93c-3.58,5.58-5.32,17.09-5.5,26.91c-0.18,9.82-2.47,50.23,4.14,53.25
			c6.61,3.02,15.78,2.13,29.34,2.71c4.97,0.21,67.13-0.34,67.65-0.91c0,0,4.22-17.6-2.46-51.68c-9.06,1.99-18.2,5.07-27.37,6.48
			c-7.95,1.22-18.62,3.57-26.47,1.46C121.75,63.51,120.63,61.95,120.01,62.7z"/>
		<path class="st2" d="M121.86,56.79l6.65,4.11c0,0-7.34,20.98-6.37,47.1l-9.19,0.35C112.94,108.35,111.21,76.26,121.86,56.79z"/>
		<path class="st2" d="M139.2,57.22l7.53-1.37c0,0,5.65,21.04,7.37,52.58l-10.29-0.16C143.8,108.28,145.76,102.75,139.2,57.22z"/>
		
			<rect x="163.42" y="86.72" transform="matrix(0.9993 -0.0376 0.0376 0.9993 -3.5273 6.3272)" class="st5" width="6.49" height="20.69"/>
		<polyline class="st6" points="127.09,107.35 126.68,99.11 138.57,98.66 138.9,107.37 		"/>
		<ellipse class="st3" cx="100.41" cy="94.01" rx="8.21" ry="8.26"/>
		<g>
			<path class="st2" d="M76.89,45.44v-3.53c-2.04,21.96-2.17,63.38-0.25,65.61c2.26,2.64,13.04,1.14,13.04,1.14l-1.44-9.75
				c-1.86-16.16-2.27-29.91-2.19-39.99C80.7,56.81,76.89,51.56,76.89,45.44z"/>
			<path class="st2" d="M106.7,42.1c0.02-1.67-0.08-3.2-0.24-4.63v4.61L106.7,42.1z"/>
			<path class="st2" d="M106.46,37.47v-3.07c0-7.98-6.49-14.51-14.41-14.51H91.3c-0.54,0-1.07,0.04-1.6,0.1
				C95.55,20.53,104.87,23.67,106.46,37.47z"/>
			<path class="st2" d="M106.46,42.08v-4.61c-1.58-13.79-10.91-16.94-16.76-17.48c-3.77,0.42-7.11,2.33-9.43,5.11
				c-1.51,3.37-2.09,7.17-2.09,7.17c-0.49,2.35-0.92,5.68-1.29,9.65v3.53c0,6.11,3.81,11.36,9.16,13.49
				c0.1-11.58,0.86-18.32,0.86-18.32L106.46,42.08z"/>
		</g>
	</g>
	<path class="st7" d="M229.91,110.56h-67.13c-1.98,0-3.6-1.62-3.6-3.6V73.12c0-1.98,1.62-3.6,3.6-3.6h67.13c1.98,0,3.6,1.62,3.6,3.6
		v33.85C233.51,108.94,231.89,110.56,229.91,110.56z"/>
	<g>
		<path class="st8" d="M104.6,63.93c-0.63,0.75-8.77-7.99-12.71-19.53c-2.23-6.54-0.95-11.4-5.92-16.9
			c-4.13-4.57-15.39-8.41-19.53-2c-3.73,5.77-5.54,17.68-5.72,27.83s-2.57,51.94,4.31,55.06s16.42,2.2,30.53,2.8
			c5.17,0.22,69.86-0.35,70.4-0.94c0,0,5.05-17.76-1.9-53c-9.43,2.06-19.6,4.81-29.14,6.26c-8.27,1.26-19.37,3.69-27.54,1.51
			C106.42,64.78,105.25,63.16,104.6,63.93z"/>
		<path class="st2" d="M106.53,57.82l6.92,4.25c0,0-7.64,21.7-6.63,48.71l-9.57,0.36C97.25,111.14,95.45,77.96,106.53,57.82z"/>
		<path class="st2" d="M124.58,58.27l7.84-1.42c0,0,5.88,21.76,7.67,54.37l-10.71-0.16C129.37,111.06,131.41,105.35,124.58,58.27z"
			/>
		
			<rect x="149.78" y="88.77" transform="matrix(0.9993 -0.0373 0.0373 0.9993 -3.6047 5.7841)" class="st5" width="6.76" height="21.4"/>
		<circle class="st3" cx="84.2" cy="96.31" r="8.54"/>
		<g>
			<path class="st2" d="M59.72,46.09v-3.65c-2.12,22.71-2.26,65.54-0.26,67.85c2.36,2.73,13.57,1.18,13.57,1.18l-1.5-10.09
				c-1.94-16.71-2.37-30.93-2.27-41.35C63.69,57.84,59.72,52.41,59.72,46.09z"/>
			<path class="st2" d="M90.75,42.63c0.02-1.73-0.08-3.31-0.25-4.79v4.77L90.75,42.63z"/>
			<path class="st2" d="M90.5,37.84v-3.18c0-8.25-6.75-15-15-15h-0.78c-0.56,0-1.12,0.04-1.67,0.1
				C79.14,20.33,88.85,23.58,90.5,37.84z"/>
			<path class="st2" d="M90.5,42.61v-4.77c-1.65-14.26-11.36-17.51-17.44-18.08c-3.92,0.44-7.4,2.4-9.82,5.29
				c-1.57,3.49-2.17,7.42-2.17,7.42c-0.51,2.43-0.96,5.88-1.34,9.97v3.65c0,6.32,3.97,11.75,9.53,13.95
				c0.11-11.97,0.9-18.94,0.9-18.94L90.5,42.61z"/>
		</g>
	</g>
	<path class="st2" d="M162.93,56.13l13.58-1.87c0,0,9.7-1.61,7.45,57.43l-17.99-1.47C165.96,110.22,171.66,99.29,162.93,56.13z"/>
</g>
<path id="Blanket_2_" class="st9" d="M191.38,160.01l0.01-94.04c0,0,82.65-2.07,97.55-3.44c14.9-1.38,63.68-11.02,72.49-12.39
	c8.81-1.38,29.13-2.07,29.13-2.07v111.94H191.38z"/>
</svg>
