<?xml version="1.0" encoding="utf-8"?>
<!-- Generator: Adobe Illustrator 23.0.3, SVG Export Plug-In . SVG Version: 6.00 Build 0)  -->
<svg version="1.1" id="Layer_1" xmlns="http://www.w3.org/2000/svg" xmlns:xlink="http://www.w3.org/1999/xlink" x="0px" y="0px"
	 viewBox="0 0 50 50" style="enable-background:new 0 0 50 50;" xml:space="preserve">
<style type="text/css">
	.st0{fill:#E5E5E5;}
	.st1{fill:#545454;}
</style>
<g id="Replay_1_">
	<circle class="st0" cx="25" cy="25" r="25"/>
	<g id="_x39_IoiHu_2_">
		<g>
			<path class="st1" d="M10.04,23.65c0.42-1.54,0.68-3.14,1.29-4.6C15.16,10.04,27,7.27,34.45,13.59c0.09,0.08,0.23,0.11,0.35,0.16
				c-0.83,1.45-1.58,2.74-2.37,4.11c-2.87-2.71-6.18-3.77-10.01-2.84c-2.96,0.72-5.18,2.48-6.62,5.17
				c-2.88,5.39-0.52,12.06,5.12,14.42c5.82,2.44,11.8-0.88,13.57-5.69c-1.12,0-2.21,0-3.5,0c2.1-3.64,4.12-7.13,6.2-10.73
				c2.08,3.6,4.09,7.08,6.17,10.69c-1.24,0-2.32,0.03-3.4-0.01c-0.48-0.02-0.67,0.16-0.82,0.61c-1.97,5.72-5.94,9.2-11.89,10.29
				c-7.68,1.41-15.53-4.09-16.93-11.78c-0.1-0.56-0.2-1.11-0.3-1.67C10.04,25.43,10.04,24.54,10.04,23.65z"/>
		</g>
	</g>
</g>
</svg>
