<?xml version="1.0" encoding="utf-8"?>
<!-- Generator: Adobe Illustrator 23.0.3, SVG Export Plug-In . SVG Version: 6.00 Build 0)  -->
<svg version="1.1" id="Layer_1" xmlns="http://www.w3.org/2000/svg" xmlns:xlink="http://www.w3.org/1999/xlink" x="0px" y="0px"
	 viewBox="0 0 389 144" style="enable-background:new 0 0 389 144;" xml:space="preserve">
<style type="text/css">
	.st0{clip-path:url(#SVGID_2_);}
	.st1{fill:#B7B7B7;}
	.st2{fill:#545454;}
	.st3{fill:#09668D;}
	.st4{fill:#A97529;}
	.st5{fill:#F08FB8;stroke:#545454;stroke-width:2;stroke-linejoin:round;stroke-miterlimit:10;}
	.st6{fill:#FFFFFF;stroke:#545454;stroke-width:2.1551;stroke-linejoin:round;stroke-miterlimit:10;}
	.st7{fill:#FFFFFF;stroke:#545454;stroke-width:2.1969;stroke-linejoin:round;stroke-miterlimit:10;}
	.st8{fill:#FFFFFF;stroke:#545454;stroke-width:2.1986;stroke-linejoin:round;stroke-miterlimit:10;}
	.st9{fill:#F03A87;}
	.st10{fill:#8BC1D7;stroke:#545454;stroke-width:1.637;stroke-miterlimit:10;}
</style>
<g id="Table_1_">
	<g>
		<defs>
			<rect id="SVGID_1_" x="0.04" y="-1.3" width="389.32" height="153.88"/>
		</defs>
		<clipPath id="SVGID_2_">
			<use xlink:href="#SVGID_1_"  style="overflow:visible;"/>
		</clipPath>
		<g class="st0">
			<g>
				<path class="st1" d="M150.98,106.75c-10.43,0-18.92-8.49-18.92-18.92V66.39c0-10.43,8.49-18.92,18.92-18.92H402.4
					c10.43,0,18.92,8.49,18.92,18.92v21.44c0,10.43-8.49,18.92-18.92,18.92H150.98z M402.39,100.87c7.19,0,13.03-5.85,13.03-13.03
					V66.39c0-7.19-5.85-13.03-13.03-13.03H287.2v47.51C287.2,100.87,402.39,100.87,402.39,100.87z M150.98,53.36
					c-7.19,0-13.03,5.85-13.03,13.03v21.44c0,7.19,5.85,13.03,13.03,13.03h126.13v-47.5H150.98z"/>
				<path class="st2" d="M402.39,48.31c9.97,0,18.08,8.11,18.08,18.08v21.44c0,9.97-8.11,18.08-18.08,18.08H150.98
					c-9.97,0-18.08-8.11-18.08-18.08V66.39c0-9.97,8.11-18.08,18.08-18.08L402.39,48.31 M277.95,100.87V52.52H150.98
					c-7.65,0-13.87,6.22-13.87,13.87v21.44c0,7.65,6.22,13.87,13.87,13.87H402.4c7.65,0,13.87-6.22,13.87-13.87V66.39
					c0-7.65-6.22-13.87-13.87-13.87H286.36v48.35L277.95,100.87 M402.39,46.63H150.98c-10.9,0-19.76,8.86-19.76,19.76v21.44
					c0,10.9,8.86,19.76,19.76,19.76H402.4c10.9,0,19.76-8.86,19.76-19.76V66.39C422.15,55.5,413.29,46.63,402.39,46.63L402.39,46.63
					z M288.04,54.2H402.4c6.72,0,12.19,5.47,12.19,12.19v21.44c0,6.72-5.47,12.19-12.19,12.19H288.04V54.2L288.04,54.2z
					 M150.98,100.03c-6.72,0-12.19-5.47-12.19-12.19V66.39c0-6.72,5.47-12.19,12.19-12.19h125.29v45.83H150.98L150.98,100.03z"/>
			</g>
			<g>
				<path class="st3" d="M58.19,130.72c-4.71,0-8.53-3.83-8.53-8.53v-2.27c0-4.71,3.83-8.53,8.53-8.53h329.36
					c4.71,0,8.53,3.83,8.53,8.53v2.27c0,4.71-3.83,8.53-8.53,8.53H58.19z"/>
				<path class="st2" d="M387.55,112.22c4.23,0,7.69,3.46,7.69,7.69v2.27c0,4.23-3.46,7.69-7.69,7.69H58.19
					c-4.23,0-7.69-3.46-7.69-7.69v-2.27c0-4.23,3.46-7.69,7.69-7.69L387.55,112.22 M387.55,110.54H58.19
					c-5.17,0-9.38,4.21-9.38,9.38v2.27c0,5.17,4.21,9.38,9.38,9.38h329.36c5.17,0,9.38-4.21,9.38-9.38v-2.27
					C396.93,114.74,392.72,110.54,387.55,110.54L387.55,110.54z"/>
			</g>
			<g>
				<path class="st1" d="M39.91,143.33c-3.9,0-7.07-3.17-7.07-7.07v-1.84c0-3.9,3.17-7.07,7.07-7.07h450.01
					c3.9,0,7.07,3.17,7.07,7.07v1.84c0,3.9-3.17,7.07-7.07,7.07H39.91z"/>
				<path class="st2" d="M489.92,128.2c3.43,0,6.23,2.8,6.23,6.23v1.84c0,3.43-2.8,6.23-6.23,6.23H39.91c-3.43,0-6.23-2.8-6.23-6.23
					v-1.84c0-3.43,2.8-6.23,6.23-6.23H489.92 M489.92,126.51H39.91c-4.36,0-7.91,3.55-7.91,7.91v1.84c0,4.36,3.55,7.91,7.91,7.91
					h450.01c4.36,0,7.91-3.55,7.91-7.91v-1.84C497.83,130.06,494.28,126.51,489.92,126.51L489.92,126.51z"/>
			</g>
		</g>
	</g>
</g>
<g id="Ballet_Shoes">
	<g>
		<path class="st4" d="M195.72,104.46c-14.38-0.25-37.16-5.52-48.11-8.06c-2.66-0.62-4.59-1.06-5.17-1.14
			c-0.85-0.12-1.9-0.38-3.13-0.68c-2.3-0.57-5.17-1.27-7.68-1.27c-2.05,0-3.52,0.46-4.5,1.4l-0.22,0.22
			c-2.67,2.59-3.74,3.39-4.57,3.39c-0.11,0-0.29-0.03-0.42-0.07c0.02,0.01,0.03,0.01,0.03,0.01c-0.58-0.18-28.09-7.93-42.56-12
			c-0.41-0.12-0.7-0.47-0.73-0.9c-0.03-0.42,0.21-0.82,0.6-0.98c0.54-0.23,13.19-5.65,15.56-6.51c5.85-2.11,12.1-3.14,19.12-3.14
			c6.76,0,13.3,0.93,19.62,1.83c2.35,0.33,4.56,0.65,6.78,0.92c10.71,1.3,44.59,3.02,44.94,3.04l50.64,0.14
			c0.27,0,0.52,0.11,0.71,0.3s0.29,0.45,0.29,0.72l-0.39,22.52c0,0.26-0.11,0.52-0.31,0.7c-0.19,0.18-0.44,0.28-0.69,0.28
			C235.52,105.16,195.72,104.46,195.72,104.46z"/>
		<path class="st2" d="M113.94,75.72c9.14,0,17.97,1.73,26.28,2.74c10.87,1.32,45.01,3.04,45.01,3.04l50.69,0.14l-0.39,22.52
			c0,0-21.77-0.38-39.79-0.7c-18.02-0.32-50.16-8.76-53.16-9.19c-2.38-0.34-6.99-1.96-10.95-1.96c-2.03,0-3.89,0.43-5.19,1.68
			c-0.84,0.81-3.36,3.32-4.1,3.32c-0.04,0-0.07-0.01-0.09-0.02c-0.32-0.11-42.59-12.01-42.59-12.01s13.14-5.63,15.51-6.49
			C101.54,76.5,107.81,75.72,113.94,75.72 M113.94,73.72c-7.13,0-13.5,1.05-19.46,3.2c-2.4,0.87-15.08,6.3-15.62,6.53
			c-0.78,0.33-1.26,1.12-1.21,1.97c0.06,0.85,0.64,1.57,1.45,1.79c14.21,4,41.12,11.58,42.5,11.98c0.23,0.08,0.47,0.12,0.72,0.12
			c1.17,0,2.3-0.79,5.27-3.67l0.22-0.21c0.77-0.74,2.05-1.12,3.8-1.12c2.39,0,5.19,0.69,7.44,1.24c1.25,0.31,2.33,0.57,3.23,0.7
			c0.54,0.08,2.55,0.54,5.09,1.13c10.98,2.54,33.83,7.83,48.31,8.08l39.79,0.7c0.01,0,0.02,0,0.04,0c0.52,0,1.02-0.2,1.39-0.56
			c0.38-0.37,0.6-0.87,0.61-1.4l0.39-22.52c0.01-0.54-0.2-1.05-0.57-1.43c-0.37-0.38-0.89-0.6-1.42-0.6l-50.64-0.14
			c-1.46-0.07-34.33-1.76-44.82-3.03c-2.21-0.27-4.42-0.58-6.77-0.92C127.34,74.66,120.77,73.72,113.94,73.72L113.94,73.72z"/>
	</g>
	<path class="st5" d="M63.33,95.51c0,0-0.65-5.64,1.24-6.74c1.9-1.09,6.43-2.52,9.44-3.21c3.02-0.7,12.1-4.67,12.1-4.67
		s5.93,4.61,9.66,5.8c3.73,1.19,15.67,5.53,20.9,7.12c5.23,1.59,7.82,3.52,7.82,3.52s1.42,4.91,0.25,7.14
		c-1.17,2.23-3.11,4.52-4.97,4.79c-4.52,0.67-6.71-2.75-9.31-4.29s-5.58-5-10.41-5.81c-7.49-1.26-14.62-1.38-16.5-1.04
		s-9.78,0.96-11.66,0.92C70.03,99.01,64.77,99.29,63.33,95.51z"/>
	<polygon class="st6" points="101,88.48 107.98,74.56 115.52,74.27 108.1,90.67 	"/>
	<path class="st7" d="M120.4,74.36l6.04,19.62c0,0,1.88,0.03,3,0.44c1.12,0.41,0.71-19.11,0.71-19.11L120.4,74.36z"/>
	<polyline class="st8" points="129.02,74.92 136.51,76.14 132.07,93.71 127.95,93.27 129.41,74.14 	"/>
	<path class="st9" d="M66.68,97.07c0,0,7.16-1.75,14.32-2.75c7.15-1,9.42-2.09,12.42-1.66s6,0.48,8.22,2.02
		c2.23,1.54,7.04,5.38,8.14,6.9s6.28,6.12,6.28,6.12l-0.01,0.38c0,0-12.23-10.01-18.21-10.46C84.71,96.64,69.27,99.37,66.68,97.07z"
		/>
	<g>
		<path class="st4" d="M131.52,114.91c-0.06,0-0.13-0.01-0.2-0.02l0,0c-0.6-0.09-28.97-3.58-43.89-5.41
			c-0.42-0.05-0.76-0.36-0.85-0.78s0.09-0.84,0.45-1.06c0.5-0.31,12.18-7.59,14.4-8.79c12.65-6.89,26.16-7.04,38.08-7.16
			c2.37-0.03,4.61-0.05,6.85-0.12c10.78-0.34,44.54-3.78,44.88-3.81l50.07-7.54c0.05-0.01,0.1-0.01,0.15-0.01
			c0.21,0,0.43,0.07,0.6,0.2c0.21,0.16,0.36,0.4,0.39,0.67l3.02,22.32c0.04,0.26-0.04,0.53-0.2,0.74c-0.16,0.21-0.4,0.35-0.66,0.39
			l-39.43,5.34c-4.24,0.57-9.7,0.86-16.23,0.86c-12.15,0-25.42-1-32.54-1.54c-2.68-0.2-4.62-0.35-5.26-0.35l-0.14,0
			c-0.84,0-1.88-0.09-3.09-0.2c-1.5-0.13-3.21-0.29-4.89-0.29c-3.64,0-5.97,0.74-7.12,2.26l-0.19,0.25
			C133.34,114,132.4,114.91,131.52,114.91C131.52,114.91,131.52,114.91,131.52,114.91z"/>
		<path class="st2" d="M241.46,81.2l3.02,22.32c0,0-21.58,2.92-39.43,5.34c-4.61,0.62-10.24,0.86-16.09,0.86
			c-16.73,0-35.37-1.89-37.8-1.89c-0.01,0-0.03,0-0.04,0c-0.03,0-0.07,0-0.1,0c-1.82,0-4.92-0.49-7.98-0.49
			c-3.17,0-6.3,0.52-7.92,2.65c-0.72,0.95-2.91,3.91-3.59,3.91c-0.02,0-0.04,0-0.05-0.01c-0.33-0.06-43.92-5.42-43.92-5.42
			s12.13-7.56,14.35-8.76c14.82-8.07,30.5-6.72,44.49-7.16c10.94-0.35,44.95-3.81,44.95-3.81L241.46,81.2 M241.46,79.2
			c-0.1,0-0.2,0.01-0.3,0.02l-50.07,7.54c-1.45,0.15-34.2,3.47-44.76,3.8c-2.23,0.07-4.46,0.09-6.83,0.12
			c-12.04,0.13-25.68,0.28-38.55,7.29c-2.24,1.22-13.95,8.51-14.45,8.82c-0.72,0.45-1.08,1.3-0.9,2.13
			c0.18,0.83,0.87,1.45,1.71,1.55c14.66,1.8,42.43,5.22,43.83,5.4c0.13,0.02,0.26,0.03,0.38,0.03c1.31,0,2.29-0.87,5-4.46l0.18-0.24
			c0.96-1.25,3.03-1.87,6.33-1.87c1.64,0,3.32,0.15,4.8,0.28c1.23,0.11,2.29,0.2,3.18,0.2l0.12,0c0,0,0,0,0,0
			c0.62,0,2.64,0.15,5.2,0.35c7.14,0.54,20.43,1.54,32.62,1.54c6.58,0,12.08-0.29,16.36-0.87l39.43-5.34
			c1.09-0.15,1.86-1.16,1.71-2.25l-3.02-22.32c-0.07-0.53-0.35-1.01-0.78-1.33C242.31,79.34,241.89,79.2,241.46,79.2L241.46,79.2z"
			/>
	</g>
	<path class="st5" d="M72.97,121.07c0,0-1.5-5.48,0.21-6.85c1.71-1.37,5.97-3.46,8.85-4.61c2.88-1.15,11.25-6.45,11.25-6.45
		s6.56,3.66,10.43,4.27s16.33,3.09,21.74,3.87c5.41,0.78,8.27,2.29,8.27,2.29s2.14,4.63,1.33,7.02c-0.81,2.38-2.39,4.94-4.18,5.49
		c-4.36,1.35-7.05-1.7-9.85-2.83c-2.81-1.14-6.28-4.1-11.17-4.17c-7.59-0.11-14.66,0.85-16.47,1.47c-1.81,0.62-9.52,2.43-11.38,2.68
		C80.12,123.51,74.96,124.59,72.97,121.07z"/>
	<polygon class="st6" points="109.14,108.4 113.93,93.58 121.33,92.17 116.48,109.49 	"/>
	<path class="st7" d="M126.17,91.51l8.94,18.47c0,0,1.86-0.25,3.03-0.02c1.17,0.24-2.19-18.99-2.19-18.99L126.17,91.51z"/>
	<polyline class="st8" points="134.78,90.75 142.37,90.83 140.64,108.87 136.5,109.05 135.05,89.93 	"/>
	<path class="st9" d="M76.52,122.1c0,0,6.82-2.82,13.73-4.89c6.92-2.07,9-3.49,12.02-3.52c3.03-0.03,6-0.43,8.44,0.75
		s7.77,4.25,9.09,5.59s7.13,5.1,7.13,5.1l0.05,0.37c0,0-13.6-8.04-19.59-7.58C94.27,118.94,79.42,123.98,76.52,122.1z"/>
</g>
<path id="Blanket_2_" class="st10" d="M191.38,170.01l0.01-94.04c0,0,82.65-2.07,97.55-3.44c14.9-1.38,63.68-11.02,72.49-12.39
	c8.81-1.38,29.13-2.07,29.13-2.07v111.94H191.38z"/>
</svg>
