<?xml version="1.0" encoding="utf-8"?>
<!-- Generator: Adobe Illustrator 23.0.3, SVG Export Plug-In . SVG Version: 6.00 Build 0)  -->
<svg version="1.1" id="Layer_1" xmlns="http://www.w3.org/2000/svg" xmlns:xlink="http://www.w3.org/1999/xlink" x="0px" y="0px"
	 viewBox="0 0 389 144" style="enable-background:new 0 0 389 144;" xml:space="preserve">
<style type="text/css">
	.st0{clip-path:url(#SVGID_2_);}
	.st1{fill:#B7B7B7;}
	.st2{fill:#545454;}
	.st3{fill:#09668D;}
	.st4{fill:#993300;stroke:#545454;stroke-width:2.0657;stroke-linejoin:round;stroke-miterlimit:10;}
	.st5{clip-path:url(#SVGID_4_);}
	.st6{fill:#D63E26;}
	.st7{fill:none;stroke:#545454;stroke-width:2.0657;stroke-linejoin:round;stroke-miterlimit:10;}
	.st8{fill:#D63E26;stroke:#545454;stroke-width:2.0657;stroke-linejoin:round;stroke-miterlimit:10;}
	.st9{clip-path:url(#SVGID_6_);}
	.st10{fill:#8BC1D7;stroke:#545454;stroke-width:1.637;stroke-miterlimit:10;}
</style>
<g id="Table_1_">
	<g>
		<defs>
			<rect id="SVGID_1_" x="0.04" y="-1.3" width="389.32" height="153.88"/>
		</defs>
		<clipPath id="SVGID_2_">
			<use xlink:href="#SVGID_1_"  style="overflow:visible;"/>
		</clipPath>
		<g class="st0">
			<g>
				<path class="st1" d="M150.98,106.75c-10.43,0-18.92-8.49-18.92-18.92V66.39c0-10.43,8.49-18.92,18.92-18.92H402.4
					c10.43,0,18.92,8.49,18.92,18.92v21.44c0,10.43-8.49,18.92-18.92,18.92H150.98z M402.39,100.87c7.19,0,13.03-5.85,13.03-13.03
					V66.39c0-7.19-5.85-13.03-13.03-13.03H287.2v47.51C287.2,100.87,402.39,100.87,402.39,100.87z M150.98,53.36
					c-7.19,0-13.03,5.85-13.03,13.03v21.44c0,7.19,5.85,13.03,13.03,13.03h126.13v-47.5H150.98z"/>
				<path class="st2" d="M402.39,48.31c9.97,0,18.08,8.11,18.08,18.08v21.44c0,9.97-8.11,18.08-18.08,18.08H150.98
					c-9.97,0-18.08-8.11-18.08-18.08V66.39c0-9.97,8.11-18.08,18.08-18.08L402.39,48.31 M277.95,100.87V52.52H150.98
					c-7.65,0-13.87,6.22-13.87,13.87v21.44c0,7.65,6.22,13.87,13.87,13.87H402.4c7.65,0,13.87-6.22,13.87-13.87V66.39
					c0-7.65-6.22-13.87-13.87-13.87H286.36v48.35L277.95,100.87 M402.39,46.63H150.98c-10.9,0-19.76,8.86-19.76,19.76v21.44
					c0,10.9,8.86,19.76,19.76,19.76H402.4c10.9,0,19.76-8.86,19.76-19.76V66.39C422.15,55.5,413.29,46.63,402.39,46.63L402.39,46.63
					z M288.04,54.2H402.4c6.72,0,12.19,5.47,12.19,12.19v21.44c0,6.72-5.47,12.19-12.19,12.19H288.04V54.2L288.04,54.2z
					 M150.98,100.03c-6.72,0-12.19-5.47-12.19-12.19V66.39c0-6.72,5.47-12.19,12.19-12.19h125.29v45.83H150.98L150.98,100.03z"/>
			</g>
			<g>
				<path class="st3" d="M58.19,130.72c-4.71,0-8.53-3.83-8.53-8.53v-2.27c0-4.71,3.83-8.53,8.53-8.53h329.36
					c4.71,0,8.53,3.83,8.53,8.53v2.27c0,4.71-3.83,8.53-8.53,8.53H58.19z"/>
				<path class="st2" d="M387.55,112.22c4.23,0,7.69,3.46,7.69,7.69v2.27c0,4.23-3.46,7.69-7.69,7.69H58.19
					c-4.23,0-7.69-3.46-7.69-7.69v-2.27c0-4.23,3.46-7.69,7.69-7.69L387.55,112.22 M387.55,110.54H58.19
					c-5.17,0-9.38,4.21-9.38,9.38v2.27c0,5.17,4.21,9.38,9.38,9.38h329.36c5.17,0,9.38-4.21,9.38-9.38v-2.27
					C396.93,114.74,392.72,110.54,387.55,110.54L387.55,110.54z"/>
			</g>
			<g>
				<path class="st1" d="M39.91,143.33c-3.9,0-7.07-3.17-7.07-7.07v-1.84c0-3.9,3.17-7.07,7.07-7.07h450.01
					c3.9,0,7.07,3.17,7.07,7.07v1.84c0,3.9-3.17,7.07-7.07,7.07H39.91z"/>
				<path class="st2" d="M489.92,128.2c3.43,0,6.23,2.8,6.23,6.23v1.84c0,3.43-2.8,6.23-6.23,6.23H39.91c-3.43,0-6.23-2.8-6.23-6.23
					v-1.84c0-3.43,2.8-6.23,6.23-6.23H489.92 M489.92,126.51H39.91c-4.36,0-7.91,3.55-7.91,7.91v1.84c0,4.36,3.55,7.91,7.91,7.91
					h450.01c4.36,0,7.91-3.55,7.91-7.91v-1.84C497.83,130.06,494.28,126.51,489.92,126.51L489.92,126.51z"/>
			</g>
		</g>
	</g>
</g>
<g id="Red_Boots_2_">
	<g id="Red_Boots_1_">
		<path class="st2" d="M104.14,41.89l-3.75,1.88c0,0-6.01,7.88-5.63,26.28c0.33,16.29,0.3,16.33,1.88,28.53l5.63,2.25L104.14,41.89z
			"/>
		<path class="st4" d="M144.31,112.47c0,0,9.76-0.38,15.02-3c5.26-2.63,12.01-7.88,12.01-7.88s9.76-0.75,17.27,0.75
			c7.51,1.5,45.05,7.13,79.59,7.51v-42.8l-100.24,3c0,0-4.5-0.75-11.26-3.75s-20.27-6.76-22.52-7.88c-2.25-1.13-4.88-3.75-6.38-8.63
			s-1.13-12.39-7.13-12.76c0,0-6.38-0.75-10.14,3c-3.75,3.75,0.38,40.92,0.38,40.92L144.31,112.47z"/>
		<g>
			<defs>
				<path id="SVGID_3_" d="M144.69,113.22c0,0,9.76-0.38,15.02-3c5.26-2.63,12.01-7.88,12.01-7.88s9.76-0.75,17.27,0.75
					c7.51,1.5,45.05,7.13,79.59,7.51V67.8l-100.24,3c0,0-4.5-0.75-11.26-3.75s-20.27-6.76-22.52-7.88
					c-2.25-1.13-4.88-3.75-6.38-8.63c-1.5-4.88-1.13-12.39-7.13-12.76c0,0-6.38-0.75-10.14,3c-3.75,3.75,0.38,40.92,0.38,40.92
					L144.69,113.22z"/>
			</defs>
			<clipPath id="SVGID_4_">
				<use xlink:href="#SVGID_3_"  style="overflow:visible;"/>
			</clipPath>
			<g id="SmiPiI_2_" class="st5">
				<g>
					<path class="st6" d="M229.67,121.19c0.5,0.01,1.02-0.23,1.5-0.45c2.87-1.37,5.76-2.69,8.57-4.21c0.57-0.31,0.83-1.41,1.46-2.57
						c-2.34-0.21-4.03-0.31-5.7-0.54c-1.82-0.25-3.7-0.4-5.42-1.04c-1.31-0.49-2.19-0.47-3.16,0.68c-1.62,1.92-3.71,2.56-5.92,2.09
						c-2.52-0.55-4.97-1.5-7.49-2.12c-1.01-0.25-2.22-0.44-3.13-0.03c-3.94,1.78-7.53,1.46-11.2-1c-1.96-1.31-4.38-1.69-6.55-2.61
						c-0.97-0.41-2.07-0.89-2.74-1.72c-1.81-2.27-3.04-2.59-4.74-0.35c-1.59,2.1-3.2,2.32-5.31,1.32
						c-3.98-1.87-7.93-1.42-11.83,0.62c-2.09,1.09-4.23,2.04-6.39,2.93c-4.18,1.72-8.22,1.53-12.21-0.87
						c-2.46-1.48-5.03-2.91-7.7-3.69c-5.35-1.57-10.81-2.68-16.23-3.98c-2.72-0.65-3.53-1.67-3.2-4.06
						c0.37-2.71,1.37-3.58,4.12-3.19c4.03,0.57,8.04,1.32,12.06,1.98c0.75,0.12,1.51,0.18,2.26,0.26c0.1-0.25,0.19-0.5,0.29-0.75
						c-5.15-6.21-10.04-12.79-17.71-15.37c-5.87-1.97-9.9-6.04-10.09-13.27c-0.19-7.21-0.06-14.51,0.76-21.66
						c0.67-5.87,2.48-11.59,3.95-17.33c0.49-1.9,1.62-3.5,3.69-3.42c2.12,0.09,3.35,1.56,4.07,3.66c0.29,0.86,0.46,1.77,0.68,2.66
						c1.27,5,2.37,10.07,3.85,14.99c2.95,9.77,8.72,15.89,17.96,17.43c3.79,0.63,7.54,1.62,11.28,2.62
						c7.96,2.12,15.92,3.54,24.13,1.61c1.18-0.28,2.75,0.14,3.78,0.88c1.43,1.03,2.48,0.85,3.84-0.01c2.58-1.62,5.35-2.62,8.73-2.42
						c-0.45,0.52-0.6,0.84-0.81,0.92c-2.99,1.11-5.99,2.19-8.99,3.25c-0.47,0.17-1.2,0.47-1.44,0.23c-2.61-2.55-5.34-2.43-8.21-0.61
						c-0.18,0.11-0.44,0.09-0.65,0.08c-3.59-0.29-7.17-0.6-10.76-0.88c-0.55-0.04-1.1,0.01-1.65,0.02c2.78,0.87,5.56,1.33,8.35,1.44
						c2.7,0.11,5.45,0.91,8.09-0.93c0.65-0.45,2.13-0.06,2.88,0.52c1.49,1.16,2.96,2.54,4.03,4.17c1.13,1.74,1.79,3.88,2.41,5.29
						c1.17-2.54,2.47-5.36,3.77-8.18c-0.16-0.15-0.31-0.31-0.47-0.46c-0.84,0.45-1.65,0.99-2.52,1.31
						c-0.61,0.23-1.31,0.15-1.97,0.21c0.27-0.78,0.35-1.82,0.84-2.31c1.91-1.86,4.24-2.27,6.66-2.03c2.99,0.29,5.97,0.62,8.96,0.94
						l-0.06-0.06c1.66,2.23,2.87-2.01,4.49-0.45c3.75-1.52,7.46-3.19,11.27-4.49c1.84-0.63,3.87-0.79,5.8-0.76
						c3.3,0.05,6.6,0.35,9.88,0.7c1.45,0.15,2.9,0.56,4.28,1.06c1.91,0.69,3.68,1.58,5.48-0.55c0.58-0.68,1.81-1.06,2.67-0.94
						c2.09,0.3,4.2,0.78,6.19,1.55c3.49,1.34,6.89,2.24,10.59,0.75c1.33-0.54,2.95-0.59,4.35-0.3c2.46,0.53,3.16,2.53,2.58,5.32
						c-0.79,3.76-1.51,7.57-1.95,11.39c-0.6,5.25-0.95,10.53-1.26,15.81c-0.06,0.95,0.48,2.01,0.92,2.9
						c1.03,2.07,2.24,4.04,3.24,6.12c0.63,1.31,0.94,2.83,1.56,4.15 M279.74,117.61c-1.23-2.66-2.39-5.37-3.69-7.99
						c-1.03-2.06-2.23-4.01-3.35-6.02c-0.31-0.55-0.7-1.09-0.84-1.7c-0.73-3.3,0.59-3-2.17-1.44c-3.56,2.02,4.34,4.43,0.75,6.38
						c-3.32,1.8,7.01,9.31,3.75,11.26c-1.15,0.69-29.19-5.23-30.3-4.47c-0.78,0.53-1.56,1.1-2.25,1.77
						c-0.79,0.75-1.38,1.85-2.25,2.39c-1.68,1.05-3.47,1.93-5.28,2.66 M240.83,120.46 M252.24,66.74c-0.67-0.18-1.81,0.21-2.23,0.8
						c-1.96,2.72-4.11,1.28-6.24,0.69c-1.2-0.33-2.37-0.87-3.59-1c-3.65-0.38-7.32-0.61-10.98-0.9c-0.22-0.02-0.45-0.13-0.66-0.09
						c-5.41,1.19-10.83,2.37-15.56,5.86c4.81-2.38,9.93-3.2,15.32-4.81c-1.04,2.75-1.79,4.72-2.54,6.7
						c0.28,0.18,0.56,0.37,0.84,0.55c0.82-1.07,1.64-2.14,2.46-3.21c1.26-1.64,2.52-3.21,4.71-1.78c0.32,0.21,0.96-0.18,1.45-0.31
						c1.15-0.31,2.28-0.76,3.44-0.93c3.76-0.55,4.98,0.36,6.49,4.62c1.99-0.88,2.12,1,2.08,2.18c-0.11,3.5-0.49,6.99-0.76,10.48
						c-0.25,0.07-0.5,0.15-0.75,0.22c-0.35-1.06-0.89-2.1-1.02-3.2c-0.23-2.08-0.2-4.2-0.32-6.29c-0.23-3.92-4.29-6.51-7.18-3.72
						c-0.78,0.75-2,1.15-3.05,1.27c-4.24,0.5-6.92,4.52-6.17,9.41c2.38-0.79,4.75-1.62,7.14-2.35c2.29-0.7,4.61-1.29,6.88-1.91
						c0.01,2.44-1.19,4.15-3.06,3.67c-4.38-1.11-7.2,1.59-9.66,5.06c-0.94,1.33-1.7,2.34-3.26,1.35c-1.13-0.72-1.83-0.15-2.59,0.95
						c-1.42,2.05-2.87,4.12-4.56,5.86c-2.61,2.68-4.41,1.89-4.99-1.99c-0.2-1.32-0.13-2.69-0.33-4.01c-0.1-0.67-0.52-1.28-0.79-1.92
						c-0.57,0.46-1.42,0.78-1.66,1.4c-0.57,1.44-0.84,3.04-1.24,4.56c-0.1,0.37-0.25,0.72-0.38,1.07c-0.27-0.09-0.49-0.09-0.53-0.18
						c-1.37-3.59,1.03-9.58,4.17-10.69c0.77-0.27,1.78-0.9,2.02-1.64c1.05-3.2,2.73-5.78,5.1-7.84c0.26-0.22,0.37-0.66,0.55-1
						c-0.11-0.21-0.22-0.42-0.33-0.63c-0.76,0.41-1.79,0.6-2.23,1.28c-2.75,4.23-6.4,6.08-10.94,6.42c-1.2,0.09-2.69,1.56-3.38,2.86
						c-1.94,3.66-3.43,7.49-2.81,12.08c0.2,1.5-0.64,3.54-1.55,4.83c-1.22,1.71-0.84,2.8,0.17,4.16c1.11,1.51,2.11,3.13,3.25,4.6
						c0.52,0.67,1.19,1.37,1.91,1.6c0.77,0.24,1.78,0.18,2.47-0.23c0.29-0.17,0.17-1.66-0.05-2.43c-0.63-2.16-1.58-4.28-0.56-6.56
						c0.36-0.8,1.11-1.72,1.8-1.88c0.55-0.13,1.53,0.63,1.9,1.3c1.34,2.42,4.09,3.68,4.38,6.98c0.03,0.34,0.76,0.95,0.94,0.86
						c1.83-0.91,2.76,0.68,4.08,1.52c0.96,0.61,2.35,0.34,3.45,0.45c-0.43-1.94-1.17-3.39-0.96-4.64c0.58-3.47,3.07-4.45,5.67-2.56
						c1.67,1.21,3.36,2.41,5.09,3.53c1.02,0.66,1.87,0.56,2.02-1.09c0.14-1.56,0.89-2.06,2.14-1.52c1.88,0.8,2.83-0.24,3.64-2.09
						c0.93-2.13,2.11-4.12,3.55-6.12c-0.26,3.73-0.26,7.15,3.01,9.28c1.9-2.48,4.15-2.2,6.53-0.79c0.42,0.25,1.06,0.44,1.45,0.26
						c3.93-1.92,7.84-3.92,11.74-5.92c0.4-0.21,0.74-0.77,1.12-0.8c3.19-0.23,2.62-2.5,2.4-4.98c-0.66-7.12,0.33-14.09,2.44-21.29
						c-0.89,0.47-1.5,0.81-2.12,1.13c-0.68,0.35-1.34,0.9-2.04,0.98c-2.56,0.28-5.17,0.17-7,2.91c-0.23,0.34-1.13,0.06-1.71,0.15
						c-2.24,0.35-4.47,0.8-6.71,1.06c-1.17,0.14-2.52,0.34-3.48-0.2c-0.63-0.35-1.14-2.12-0.9-2.96c0.22-0.76,1.55-1.62,2.35-1.57
						c1.51,0.09,3.01,0.74,4.47,1.27c1.39,0.51,2.47,0.33,3.63-0.88c3.51-3.69,8.04-4.07,12.44-4.51c1.97-0.2,2.59,1.26,1.98,3.46
						c-1.84,6.61-1.85,13.41-1.61,20.23c0.35-3.77,0.62-7.56,1.09-11.32c0.36-2.91,0.86-5.81,1.53-8.64
						c0.67-2.85-0.26-4.6-2.86-4.75c-0.66-0.04-1.37-0.02-1.97,0.23c-3.48,1.45-6.96,1.26-10.47,0.33l0.05,0.08
						C257.26,68.34,254.78,67.4,252.24,66.74z M151.06,98.87c0.14-0.41,0.28-0.83,0.42-1.24c1.2,0.08,2.43,0.04,3.61,0.25
						c3.86,0.69,7.69,1.6,11.56,2.15c1.64,0.23,3.45,0.1,5.01-0.48c0.85-0.31,1.34-1.91,1.99-2.93c-0.76-0.59-1.47-1.28-2.28-1.74
						c-0.79-0.44-1.68-0.64-2.74-1.02c2.54-2.8,4.76-5.25,7.35-8.11c0.29,0.52,1.28,1.48,1.32,2.51c0.14,3.24,0.12,6.53-0.22,9.75
						c-0.32,3.01-0.34,3.29,2.33,3.53c0.36,0.03,0.74,0.08,1.06,0.25c3.12,1.66,3.65,1.55,6.18-1.28c-1.52-1.16-3.53-1.98-4.48-3.61
						c-0.95-1.63-1.26-4.11-1.07-6.14c0.16-1.82,0.69-4.23,3.49-4.4c-0.24,0.8-0.31,1.35-0.55,1.79c-1.41,2.59-1.06,5.17-0.02,7.71
						c0.7,1.71,1.99,2.25,3.51,1.65c1.61-0.63,2.33-2.05,2-3.98c-0.19-1.07-0.66-2.08-0.78-3.15c-0.12-1.12,0.04-2.28,0.07-3.42
						c0.33-0.04,0.66-0.09,0.99-0.13c0.31,1.38,0.76,2.73,0.91,4.13c0.15,1.41-0.21,2.92,0.05,4.28c0.27,1.37,0.97,2.65,1.58,3.9
						c0.43,0.86,1.57,1.78,1.42,2.38c-0.22,0.92-1.21,1.68-1.99,2.35c-0.5,0.44-1.2,0.59-1.81,0.87c-1.66-1.42-3.47-1.22-5.49,0.64
						c-2.57,2.36-3.11,2.28-5.82,0.05c-1.47-1.21-3.13-2.12-4.73-3.1c-0.25-0.15-0.65,0.03-1.42,0.09c1.23,0.85,2.09,1.45,3.13,2.18
						c-3.48,1.36-6.63,2.6-9.78,3.83c0.05,0.17,0.1,0.35,0.16,0.52c2.42-0.77,4.81-2.03,7.25-2.18c2.5-0.16,5.1,0.54,7.56,1.28
						c1.43,0.43,2.32,0.26,3.33-0.93c2.71-3.22,3.97-3.1,6.62,0.33c0.28,0.36,0.64,0.75,1.03,0.88c3.23,1.05,6.47,2.04,9.69,3.04
						c-2.49-3.61-6.15-4.32-10.29-3.98c3.55-2.11,4.08-5.84,4.67-9.34c0.22-1.31-0.57-2.86-0.98-4.27c-0.79-2.7-1.85-5.32-2.4-8.08
						c-0.92-4.6-3-8.34-5.74-11.72c-0.98-1.21-1.95-1.85-3.48-1.03c-1.59,0.85-2.28,2.14-2.08,4.01c0.16,1.58,0.54,3.13,0.76,4.71
						c0.1,0.76,0.06,1.55,0.08,2.33c-0.24,0.08-0.48,0.16-0.71,0.24c-0.53-1.29-1.17-2.54-1.58-3.88c-1.56-5.13-2.01-5.49-6.67-5.94
						c-2.13-0.21-4.23-0.73-6.34-1.13c-2.08-0.39-3.63,0.44-4.58,2.62c-0.95,2.19-1.95,4.37-2.74,6.65
						c-0.17,0.48,0.37,1.75,0.81,1.92c2.31,0.93,4.05-0.21,4.77-2.89c1.18-4.4,2.76-5.59,6.75-4.83c1.3,0.25,2.58,0.7,3.8,1.26
						c1.53,0.7,1.39,2.67-0.81,5.75c-0.09-0.69-0.05-1.16-0.21-1.52c-1.45-3.4-2.6-3.72-5.21-1.38c-0.93,0.84-1.78,1.8-2.62,2.75
						c-2.89,3.28-6.42,3.66-10.11,2.82c-2.48-0.56-2.85-2.01-1.29-4.29c1.32-1.93,2.81-3.73,4.09-5.7c1.38-2.13,1.13-3.06-1-3.94
						c-3.66-1.51-7.38-2.66-11.89-2.73c1.07,1.57,1.81,2.67,2.56,3.75c0.92,1.33,1.34,2.76,0.02,4.01c-1.4,1.33-2.19-0.19-2.84-1.19
						c-1.24-1.92-2.32-3.99-3.47-5.99c-0.32,0.17-0.64,0.33-0.97,0.5c0.22,1.66,0.31,3.36,0.69,4.97c0.99,4.31,2.14,8.57,3.14,12.87
						c0.18,0.75-0.03,1.62-0.06,2.43c-0.76-0.12-1.58-0.07-2.25-0.39c-1.11-0.54-2.13-1.33-3.18-2.01c0.22-0.41,0.26-0.62,0.37-0.68
						c3.36-1.79,3.37-1.79,2.12-6.01c-0.7-2.37-1.42-4.73-2.36-7.02c0.25,3.13,0.49,6.27,0.74,9.4c-0.27,0.05-0.54,0.09-0.81,0.14
						c-0.51-3.52-1.01-7.04-1.57-10.95c-2.2,1.87-1.82,3.98-1.65,6c0.16,1.9,0.41,3.8,0.66,6.13c-2.38-1.63-3.33-5.28-2.29-8.68
						c0.85-2.79,2.19-5.4,3.32-8.09c-0.18-0.16-0.36-0.32-0.55-0.48c-0.73,0.74-1.5,1.43-2.19,2.22c-0.62,0.72-1.07,1.66-1.74,2.29
						c-0.44,0.41-1.14,0.46-1.72,0.67c-0.16-0.76-0.56-1.57-0.43-2.26c0.54-2.86,2.66-4.77,5.26-4.95c0.57-0.04,1.14-0.06,1.95-0.56
						c-0.77-0.63-1.48-1.37-2.31-1.87c-6.49-3.94-10.31-10.04-11.47-18.33c-0.61-4.38-1.21-8.77-1.82-13.15
						c-0.22,0.01-0.44,0.03-0.66,0.04c-0.18,3.07-0.41,6.15-0.53,9.23c-0.08,1.93,0.02,3.87,0.02,5.81
						c-0.01,2.56,0.06,4.99-0.71,7.63c-1.04,3.57-0.11,7.39,1.71,10.61c1.43,2.53,3.06,4.93,4.71,7.29c1.14,1.62,2.46,3.07,3.7,4.6
						c-0.3,0.28-0.6,0.56-0.91,0.84c-0.34-0.32-0.72-0.61-1.03-0.98c-1.83-2.18-3.5-4.57-5.49-6.55
						c-4.73-4.72-5.49-10.89-4.95-17.48c0.58-7.13,1.43-14.24,2.11-21.37c0.1-1.09-0.11-2.21-0.18-3.47
						c2.19,0.17,2.65,2.14,3.16,4.05c1.56,5.77,2.92,11.63,4.76,17.29c1.03,3.16,2.84,5.98,4.3,8.95c0.21-0.14,0.42-0.28,0.62-0.41
						c-0.92-1.62-2.13-3.1-2.7-4.87c-2.12-6.61-4.03-13.31-6-19.98c-0.23-0.79-0.32-1.64-0.54-2.44c-0.52-1.9-1.5-3.32-3.37-3.48
						c-1.89-0.16-2.43,1.56-3.09,3.09c-2.65,6.1-3.72,12.69-4.14,19.34c-0.41,6.53-0.54,13.11-0.26,19.64
						c0.28,6.33,3.98,9.78,9.06,11.58c8.2,2.91,13.85,9.55,18.93,16.98c0.13,0.19,0.22,0.44,0.28,0.68
						c0.04,0.14-0.01,0.32-0.04,0.93c-1-0.17-1.98-0.34-2.95-0.5c-4.38-0.73-8.76-1.48-13.15-2.2c-1.66-0.27-2.94,0.14-3.21,2.4
						c-0.28,2.3,1.11,2.59,2.54,2.94c5.25,1.28,10.5,2.58,15.78,3.7c-5.9-1.93-12.08-2.78-17.8-5.37c0.07-0.31,0.13-0.63,0.2-0.94
						c6.89,1.17,13.79,2.33,20.9,3.53c0.34-3.96-2.52-6-3.64-8.9c0.2-0.2,0.4-0.4,0.59-0.6c1.6,1.95,3.43,3.71,4.74,5.89
						c2.3,3.82,5.29,6.57,9.05,8.05c1.53,0.6,3.36,0.24,5.05,0.32c-0.02-0.25-0.03-0.5-0.05-0.75
						C157.33,104.72,154.19,101.8,151.06,98.87z M154.02,183.31c-1.76,2.02-1.7,4.53-0.42,6.98c2.94,5.64,6.68,7.81,11.3,6.25
						c1.56-0.53,2.96-1.69,4.23-3.01c-1.77-0.07-3.55-0.06-5.31-0.23c-0.79-0.08-1.69-0.29-2.28-0.81
						c-0.81-0.72-1.81-1.75-1.89-2.74c-0.06-0.77,1.01-2.11,1.82-2.47c1.69-0.76,3.53-1.38,5.32-1.44c2.16-0.07,2.89-1.24,3.04-3.37
						 M201.07,84.02c0.55-2.13,1.5-4.2,3.84-4.77c1.42-0.34,2.81-1.13,2.37-3.25c-0.47-2.27-2.17-1.89-3.61-1.8
						c-1.56,0.09-3.13,0.3-4.68,0.56c-0.53,0.09-1.42,0.41-1.47,0.76c-0.59,3.83-3.37,6.97-2.6,11.25
						c0.67,3.68,0.99,7.44,1.56,11.15c0.08,0.52,0.68,1.22,1.11,1.28c0.36,0.05,0.99-0.6,1.2-1.1c0.31-0.74,0.35-1.62,0.5-2.44
						c-0.19-0.05-0.37-0.1-0.56-0.16C199.49,91.67,200.1,87.78,201.07,84.02z M221.86,88.99c0.39-0.44,0.64-1.19,0.7-1.82
						c0.35-3.85,0.62-7.71,0.92-11.53c-4.16,0.23-9.71,14.64-7.26,19.5C218.1,93.1,220.02,91.09,221.86,88.99z M209.81,112.12
						c1.54-0.65,2.78-0.73,4.39,0.05c2.2,1.06,4.65,1.55,7.03,2.04c1.98,0.41,3.7-0.39,5.29-1.95c0.76-0.74,2.1-1.14,3.11-1.03
						c3.4,0.39,6.77,1.07,10.2,1.32c-4.17-1-8.34-1.99-12.81-3.06c-0.4,0.46-1.13,1.39-1.95,2.21c-1.5,1.51-3.22,1.99-5.16,1.36
						c-1.27-0.42-2.55-0.83-3.84-1.18c-2.51-0.69-4.16-2.15-4.52-5.34c-0.14-1.22-0.97-2.41-1.68-3.44
						c-0.34-0.48-1.13-0.55-1.72-0.8c-0.12,0.77-0.49,1.61-0.32,2.28c0.26,1.01,0.82,1.96,1.37,2.83c1.59,2.52,0.96,4.37-1.78,4.9
						c-0.77,0.15-1.58,0.05-2.36,0.07c0.02,0.32,0.04,0.65,0.06,0.97C206.69,112.96,208.32,112.76,209.81,112.12z"/>
					<path class="st6" d="M402.47,246.07c-0.7-0.05-1.42-0.06-2.1-0.2c-0.08-0.02-0.07-1.12,0.01-1.14
						c0.67-0.13,1.37-0.12,2.07-0.16c-0.66,0.17-1.32,0.34-1.99,0.51c0.03,0.27,0.05,0.54,0.08,0.81
						C401.18,245.95,401.83,246.01,402.47,246.07z"/>
					<path class="st6" d="M402.47,246.07c-0.64-0.06-1.29-0.12-1.93-0.18c-0.03-0.27-0.05-0.54-0.08-0.81
						c0.66-0.17,1.32-0.34,1.99-0.51C402.45,245.07,402.46,245.57,402.47,246.07z"/>
				</g>
			</g>
		</g>
		<path class="st7" d="M144.31,112.47c0,0,8.63,1.13,15.02-3c4.93-3.19,12.01-7.88,12.01-7.88s9.76-0.75,17.27,0.75
			c7.51,1.5,45.05,7.13,79.59,7.51v-42.8l-100.24,3c0,0-4.5-0.75-11.26-3.75s-20.27-6.76-22.52-7.88c-2.25-1.13-4.88-3.75-6.38-8.63
			s-1.13-12.39-7.13-12.76c0,0-6.38-0.75-10.14,3c-3.75,3.75,0.38,40.92,0.38,40.92L144.31,112.47z"/>
		<path class="st8" d="M115.41,37.39c0,0-2.63,10.89-3.38,18.77c-0.75,7.88-1.5,13.51,1.88,17.64c3.38,4.13,7.88,7.13,15.39,13.14
			c7.51,6.01,18.4,19.9,19.52,25.9c0,0-7.88-0.75-18.4-3.75c-10.51-3-31.16-10.14-31.16-10.14s-3.38-21.02-2.25-36.04
			c0,0,0.38-10.51,5.63-19.52L115.41,37.39z"/>
	</g>
	<g id="Red_Boots">
		<path class="st2" d="M83.12,50.9l-3.75,1.88c0,0-6.01,7.88-5.63,26.28c0.33,16.29,0.3,16.33,1.88,28.53l5.63,2.25L83.12,50.9z"/>
		<path class="st4" d="M123.29,121.48c0,0,9.76-0.38,15.02-3s12.01-7.88,12.01-7.88s9.76-0.75,17.27,0.75
			c7.51,1.5,45.05,7.13,79.59,7.51v-42.8l-100.24,3c0,0-4.5-0.75-11.26-3.75c-6.76-3-20.27-6.76-22.52-7.88
			c-2.25-1.13-4.88-3.75-6.38-8.63c-1.5-4.88-1.13-12.39-7.13-12.76c0,0-6.38-0.75-10.14,3c-3.75,3.75,0.38,40.92,0.38,40.92
			L123.29,121.48z"/>
		<g>
			<defs>
				<path id="SVGID_5_" d="M123.67,122.23c0,0,9.76-0.38,15.02-3s12.01-7.88,12.01-7.88s9.76-0.75,17.27,0.75
					c7.51,1.5,45.05,7.13,79.59,7.51v-42.8l-100.24,3c0,0-4.5-0.75-11.26-3.75s-20.27-6.76-22.52-7.88
					c-2.25-1.13-4.88-3.75-6.38-8.63c-1.5-4.88-1.13-12.39-7.13-12.76c0,0-6.38-0.75-10.14,3c-3.75,3.75,0.38,40.92,0.38,40.92
					L123.67,122.23z"/>
			</defs>
			<clipPath id="SVGID_6_">
				<use xlink:href="#SVGID_5_"  style="overflow:visible;"/>
			</clipPath>
			<g id="SmiPiI_1_" class="st9">
				<g>
					<path class="st6" d="M208.64,130.2c0.5,0.01,1.02-0.23,1.5-0.45c2.87-1.37,5.76-2.69,8.57-4.21c0.57-0.31,0.83-1.41,1.46-2.57
						c-2.34-0.21-4.03-0.31-5.7-0.54c-1.82-0.25-3.7-0.4-5.42-1.04c-1.31-0.49-2.19-0.47-3.16,0.68c-1.62,1.92-3.71,2.56-5.92,2.09
						c-2.52-0.55-4.97-1.5-7.49-2.12c-1.01-0.25-2.22-0.44-3.13-0.03c-3.94,1.78-7.53,1.46-11.2-1c-1.96-1.31-4.38-1.69-6.55-2.61
						c-0.97-0.41-2.07-0.89-2.74-1.72c-1.81-2.27-3.04-2.59-4.74-0.35c-1.59,2.1-3.2,2.32-5.31,1.32
						c-3.98-1.87-7.93-1.42-11.83,0.62c-2.09,1.09-4.23,2.04-6.39,2.93c-4.18,1.72-8.22,1.53-12.21-0.87
						c-2.46-1.48-5.03-2.91-7.7-3.69c-5.35-1.57-10.81-2.68-16.23-3.98c-2.72-0.65-3.53-1.67-3.2-4.06
						c0.37-2.71,1.37-3.58,4.12-3.19c4.03,0.57,8.04,1.32,12.06,1.98c0.75,0.12,1.51,0.18,2.26,0.26c0.1-0.25,0.19-0.5,0.29-0.75
						c-5.15-6.21-10.04-12.79-17.71-15.37c-5.87-1.97-9.9-6.04-10.09-13.27c-0.19-7.21-0.06-14.51,0.76-21.66
						c0.67-5.87,2.48-11.59,3.95-17.33c0.49-1.9,1.62-3.5,3.69-3.42c2.12,0.09,3.35,1.56,4.07,3.66c0.29,0.86,0.46,1.77,0.68,2.66
						c1.27,5,2.37,10.07,3.85,14.99c2.95,9.77,8.72,15.89,17.96,17.43c3.79,0.63,7.54,1.62,11.28,2.62
						c7.96,2.12,15.92,3.54,24.13,1.61c1.18-0.28,2.75,0.14,3.78,0.88c1.43,1.03,2.48,0.85,3.84-0.01c2.58-1.62,5.35-2.62,8.73-2.42
						c-0.45,0.52-0.6,0.84-0.81,0.92c-2.99,1.11-5.99,2.19-8.99,3.25c-0.47,0.17-1.2,0.47-1.44,0.23c-2.61-2.55-5.34-2.43-8.21-0.61
						c-0.18,0.11-0.44,0.09-0.65,0.08c-3.59-0.29-7.17-0.6-10.76-0.88c-0.55-0.04-1.1,0.01-1.65,0.02c2.78,0.87,5.56,1.33,8.35,1.44
						c2.7,0.11,5.45,0.91,8.09-0.93c0.65-0.45,2.13-0.06,2.88,0.52c1.49,1.16,2.96,2.54,4.03,4.17c1.13,1.74,1.79,3.88,2.41,5.29
						c1.17-2.54,2.47-5.36,3.77-8.18c-0.16-0.15-0.31-0.31-0.47-0.46c-0.84,0.45-1.65,0.99-2.52,1.31
						c-0.61,0.23-1.31,0.15-1.97,0.21c0.27-0.78,0.35-1.82,0.84-2.31c1.91-1.86,4.24-2.27,6.66-2.03c2.99,0.29,5.97,0.62,8.95,0.94
						l-0.06-0.06c1.66,2.23,2.87-2.01,4.49-0.45c3.75-1.52,7.46-3.19,11.27-4.49c1.84-0.63,3.87-0.79,5.8-0.76
						c3.3,0.05,6.6,0.35,9.88,0.7c1.45,0.15,2.9,0.56,4.28,1.06c1.91,0.69,3.68,1.58,5.48-0.55c0.58-0.68,1.81-1.06,2.67-0.94
						c2.09,0.3,4.2,0.78,6.19,1.55c3.49,1.34,6.89,2.24,10.59,0.75c1.33-0.54,2.95-0.59,4.35-0.3c2.46,0.53,3.16,2.53,2.58,5.32
						c-0.79,3.76-1.51,7.57-1.95,11.39c-0.6,5.25-0.95,10.53-1.26,15.81c-0.06,0.95,0.48,2.01,0.92,2.9
						c1.03,2.07,2.24,4.04,3.24,6.12c0.63,1.31,0.94,2.83,1.56,4.15 M258.72,126.62c-1.23-2.66-2.39-5.37-3.69-7.99
						c-1.03-2.06-2.23-4.01-3.35-6.02c-0.31-0.55-0.7-1.09-0.84-1.7c-0.73-3.3,0.59-3-2.17-1.44c-3.56,2.02,4.34,4.43,0.75,6.38
						c-3.32,1.8,7.01,9.31,3.75,11.26c-1.15,0.69-29.19-5.23-30.3-4.47c-0.78,0.53-1.56,1.1-2.25,1.77
						c-0.79,0.75-1.38,1.85-2.25,2.39c-1.68,1.05-3.47,1.93-5.28,2.66 M219.81,129.47 M231.22,75.75c-0.67-0.18-1.81,0.21-2.23,0.8
						c-1.96,2.72-4.11,1.28-6.24,0.69c-1.2-0.33-2.37-0.87-3.59-1c-3.65-0.38-7.32-0.61-10.98-0.9c-0.22-0.02-0.45-0.13-0.66-0.09
						c-5.41,1.19-10.83,2.37-15.56,5.86c4.81-2.38,9.93-3.2,15.32-4.81c-1.04,2.75-1.79,4.72-2.54,6.7
						c0.28,0.18,0.56,0.37,0.84,0.55c0.82-1.07,1.64-2.14,2.46-3.21c1.26-1.64,2.52-3.21,4.71-1.78c0.32,0.21,0.96-0.18,1.45-0.31
						c1.15-0.31,2.28-0.76,3.44-0.93c3.76-0.55,4.98,0.36,6.49,4.62c1.99-0.88,2.12,1,2.08,2.18c-0.11,3.5-0.49,6.99-0.76,10.48
						c-0.25,0.07-0.5,0.15-0.75,0.22c-0.35-1.06-0.89-2.1-1.02-3.2c-0.23-2.08-0.2-4.2-0.32-6.29c-0.23-3.92-4.29-6.51-7.18-3.72
						c-0.78,0.75-2,1.15-3.05,1.27c-4.24,0.5-6.92,4.52-6.17,9.41c2.38-0.79,4.75-1.62,7.14-2.35c2.29-0.7,4.61-1.29,6.88-1.91
						c0.01,2.44-1.19,4.15-3.06,3.67c-4.38-1.11-7.2,1.59-9.66,5.06c-0.94,1.33-1.7,2.34-3.26,1.35c-1.13-0.72-1.83-0.15-2.59,0.95
						c-1.42,2.05-2.87,4.12-4.56,5.86c-2.61,2.68-4.41,1.89-4.99-1.99c-0.2-1.32-0.13-2.69-0.33-4.01c-0.1-0.67-0.52-1.28-0.79-1.92
						c-0.57,0.46-1.42,0.78-1.66,1.4c-0.57,1.44-0.84,3.04-1.24,4.56c-0.1,0.37-0.25,0.72-0.38,1.07c-0.27-0.09-0.49-0.09-0.53-0.18
						c-1.37-3.59,1.03-9.58,4.17-10.69c0.77-0.27,1.78-0.9,2.02-1.64c1.05-3.2,2.73-5.78,5.1-7.84c0.26-0.22,0.37-0.66,0.55-1
						c-0.11-0.21-0.22-0.42-0.33-0.63c-0.76,0.41-1.79,0.6-2.23,1.28c-2.75,4.23-6.4,6.08-10.94,6.42c-1.2,0.09-2.69,1.56-3.38,2.86
						c-1.94,3.66-3.43,7.49-2.81,12.08c0.2,1.5-0.64,3.54-1.55,4.83c-1.22,1.71-0.84,2.8,0.17,4.16c1.11,1.51,2.11,3.13,3.25,4.6
						c0.52,0.67,1.19,1.37,1.91,1.6c0.77,0.24,1.78,0.18,2.47-0.23c0.29-0.17,0.17-1.66-0.05-2.43c-0.63-2.16-1.58-4.28-0.56-6.56
						c0.36-0.8,1.11-1.72,1.8-1.88c0.55-0.13,1.53,0.63,1.9,1.3c1.34,2.42,4.09,3.68,4.38,6.98c0.03,0.34,0.76,0.95,0.94,0.86
						c1.83-0.91,2.76,0.68,4.08,1.52c0.96,0.61,2.35,0.34,3.45,0.45c-0.43-1.94-1.17-3.39-0.96-4.64c0.58-3.47,3.07-4.45,5.67-2.56
						c1.67,1.21,3.36,2.41,5.09,3.53c1.02,0.66,1.87,0.56,2.02-1.09c0.14-1.56,0.89-2.06,2.14-1.52c1.88,0.8,2.83-0.24,3.64-2.09
						c0.93-2.13,2.11-4.12,3.55-6.12c-0.26,3.73-0.26,7.15,3.01,9.28c1.9-2.48,4.15-2.2,6.53-0.79c0.42,0.25,1.06,0.44,1.45,0.26
						c3.93-1.92,7.84-3.92,11.74-5.92c0.4-0.21,0.74-0.77,1.12-0.8c3.19-0.23,2.62-2.5,2.4-4.98c-0.66-7.12,0.33-14.09,2.44-21.29
						c-0.89,0.47-1.5,0.81-2.12,1.13c-0.68,0.35-1.34,0.9-2.04,0.98c-2.56,0.28-5.17,0.17-7,2.91c-0.23,0.34-1.13,0.06-1.71,0.15
						c-2.24,0.35-4.47,0.8-6.71,1.06c-1.17,0.14-2.52,0.34-3.48-0.2c-0.63-0.35-1.14-2.12-0.9-2.96c0.22-0.76,1.55-1.62,2.35-1.57
						c1.51,0.09,3.01,0.74,4.47,1.27c1.39,0.51,2.47,0.33,3.63-0.88c3.51-3.69,8.04-4.07,12.44-4.51c1.97-0.2,2.59,1.26,1.98,3.46
						c-1.84,6.61-1.85,13.41-1.61,20.23c0.35-3.77,0.62-7.56,1.09-11.32c0.36-2.91,0.86-5.81,1.53-8.64
						c0.67-2.85-0.26-4.6-2.86-4.75c-0.66-0.04-1.37-0.02-1.97,0.23c-3.48,1.45-6.96,1.26-10.47,0.33l0.05,0.08
						C236.23,77.35,233.76,76.41,231.22,75.75z M130.03,107.88c0.14-0.41,0.28-0.83,0.42-1.24c1.2,0.08,2.43,0.04,3.61,0.25
						c3.86,0.69,7.69,1.6,11.56,2.15c1.64,0.23,3.45,0.1,5.01-0.48c0.85-0.31,1.34-1.91,1.99-2.93c-0.76-0.59-1.47-1.28-2.28-1.74
						c-0.79-0.44-1.68-0.64-2.74-1.02c2.54-2.8,4.76-5.25,7.35-8.11c0.29,0.52,1.28,1.48,1.32,2.51c0.14,3.24,0.12,6.53-0.22,9.75
						c-0.32,3.01-0.34,3.29,2.33,3.53c0.36,0.03,0.74,0.08,1.06,0.25c3.12,1.66,3.65,1.55,6.18-1.28c-1.52-1.16-3.53-1.98-4.48-3.61
						c-0.95-1.63-1.26-4.11-1.07-6.14c0.16-1.82,0.69-4.23,3.49-4.4c-0.24,0.8-0.31,1.35-0.55,1.79c-1.41,2.59-1.06,5.17-0.02,7.71
						c0.7,1.71,1.99,2.25,3.51,1.65c1.61-0.63,2.33-2.05,2-3.98c-0.19-1.07-0.66-2.08-0.78-3.15c-0.12-1.12,0.04-2.28,0.07-3.42
						c0.33-0.04,0.66-0.09,0.99-0.13c0.31,1.38,0.76,2.73,0.91,4.13c0.15,1.41-0.21,2.92,0.05,4.28c0.27,1.37,0.97,2.65,1.58,3.9
						c0.43,0.86,1.57,1.78,1.42,2.38c-0.22,0.92-1.21,1.68-1.99,2.35c-0.5,0.44-1.2,0.59-1.81,0.87c-1.66-1.42-3.47-1.22-5.49,0.64
						c-2.57,2.36-3.11,2.28-5.82,0.05c-1.47-1.21-3.13-2.12-4.73-3.1c-0.25-0.15-0.65,0.03-1.42,0.09c1.23,0.85,2.09,1.45,3.13,2.18
						c-3.48,1.36-6.63,2.6-9.78,3.83c0.05,0.17,0.1,0.35,0.16,0.52c2.41-0.77,4.81-2.03,7.25-2.18c2.5-0.16,5.1,0.54,7.56,1.28
						c1.43,0.43,2.32,0.26,3.33-0.93c2.71-3.22,3.97-3.1,6.62,0.33c0.28,0.36,0.64,0.75,1.03,0.88c3.23,1.05,6.47,2.04,9.69,3.04
						c-2.49-3.61-6.15-4.32-10.29-3.98c3.55-2.11,4.08-5.84,4.67-9.34c0.22-1.31-0.57-2.86-0.98-4.27c-0.79-2.7-1.85-5.32-2.4-8.08
						c-0.92-4.6-3-8.34-5.74-11.72c-0.98-1.21-1.95-1.85-3.48-1.03c-1.59,0.85-2.28,2.14-2.08,4.01c0.16,1.58,0.54,3.13,0.76,4.71
						c0.1,0.76,0.06,1.55,0.08,2.33c-0.24,0.08-0.48,0.16-0.71,0.24c-0.53-1.29-1.17-2.54-1.58-3.88c-1.56-5.13-2.01-5.49-6.67-5.94
						c-2.13-0.21-4.23-0.73-6.34-1.13c-2.08-0.39-3.63,0.44-4.58,2.62c-0.95,2.19-1.95,4.37-2.74,6.65
						c-0.17,0.48,0.37,1.75,0.81,1.92c2.31,0.93,4.05-0.21,4.77-2.89c1.18-4.4,2.76-5.59,6.75-4.83c1.3,0.25,2.58,0.7,3.8,1.26
						c1.53,0.7,1.39,2.67-0.81,5.75c-0.09-0.69-0.05-1.16-0.21-1.52c-1.45-3.4-2.6-3.72-5.21-1.38c-0.93,0.84-1.78,1.8-2.62,2.75
						c-2.89,3.28-6.42,3.66-10.11,2.82c-2.48-0.56-2.85-2.01-1.29-4.29c1.32-1.93,2.81-3.73,4.09-5.7c1.38-2.13,1.13-3.06-1-3.94
						c-3.66-1.51-7.38-2.66-11.89-2.73c1.07,1.57,1.81,2.67,2.56,3.75c0.92,1.33,1.34,2.76,0.02,4.01c-1.4,1.33-2.19-0.19-2.84-1.19
						c-1.24-1.92-2.32-3.99-3.47-5.99c-0.32,0.17-0.64,0.33-0.97,0.5c0.22,1.66,0.31,3.36,0.69,4.97c0.99,4.31,2.14,8.57,3.14,12.87
						c0.18,0.75-0.03,1.62-0.06,2.43c-0.76-0.12-1.58-0.07-2.25-0.39c-1.11-0.54-2.13-1.33-3.18-2.01c0.22-0.41,0.26-0.62,0.37-0.68
						c3.36-1.79,3.37-1.79,2.12-6.01c-0.7-2.37-1.42-4.73-2.36-7.02c0.25,3.13,0.49,6.27,0.74,9.4c-0.27,0.05-0.54,0.09-0.81,0.14
						c-0.51-3.52-1.01-7.04-1.57-10.95c-2.2,1.87-1.82,3.98-1.65,6c0.16,1.9,0.41,3.8,0.66,6.13c-2.38-1.63-3.33-5.28-2.29-8.68
						c0.85-2.79,2.19-5.4,3.32-8.09c-0.18-0.16-0.36-0.32-0.55-0.48c-0.73,0.74-1.5,1.43-2.19,2.22c-0.62,0.72-1.07,1.66-1.74,2.29
						c-0.44,0.41-1.14,0.46-1.72,0.67c-0.16-0.76-0.56-1.57-0.43-2.26c0.54-2.86,2.66-4.77,5.26-4.95c0.57-0.04,1.14-0.06,1.95-0.56
						c-0.77-0.63-1.48-1.37-2.31-1.87c-6.49-3.94-10.31-10.04-11.47-18.33c-0.61-4.38-1.21-8.77-1.82-13.15
						c-0.22,0.01-0.44,0.03-0.66,0.04c-0.18,3.07-0.41,6.15-0.53,9.23c-0.08,1.93,0.02,3.87,0.02,5.81
						c-0.01,2.56,0.06,4.99-0.71,7.63c-1.04,3.57-0.11,7.39,1.71,10.61c1.43,2.53,3.06,4.93,4.71,7.29c1.14,1.62,2.46,3.07,3.7,4.6
						c-0.3,0.28-0.6,0.56-0.91,0.84c-0.34-0.32-0.72-0.61-1.03-0.98c-1.83-2.18-3.5-4.57-5.49-6.55
						c-4.73-4.72-5.49-10.89-4.95-17.48c0.58-7.13,1.43-14.24,2.11-21.37c0.1-1.09-0.11-2.21-0.18-3.47
						c2.19,0.17,2.65,2.14,3.16,4.05c1.56,5.77,2.92,11.63,4.76,17.29c1.03,3.16,2.84,5.98,4.3,8.95c0.21-0.14,0.42-0.28,0.62-0.41
						c-0.92-1.62-2.13-3.1-2.7-4.87c-2.12-6.61-4.03-13.31-6-19.98c-0.23-0.79-0.32-1.64-0.54-2.44c-0.52-1.9-1.5-3.32-3.37-3.48
						c-1.89-0.16-2.43,1.56-3.09,3.09c-2.65,6.1-3.72,12.69-4.14,19.34c-0.41,6.53-0.54,13.11-0.26,19.64
						c0.28,6.33,3.98,9.78,9.06,11.58c8.2,2.91,13.85,9.55,18.93,16.98c0.13,0.19,0.22,0.44,0.28,0.68
						c0.04,0.14-0.01,0.32-0.04,0.93c-1-0.17-1.98-0.34-2.95-0.5c-4.38-0.73-8.76-1.48-13.15-2.2c-1.66-0.27-2.94,0.14-3.21,2.4
						c-0.28,2.3,1.11,2.59,2.54,2.94c5.25,1.28,10.5,2.58,15.78,3.7c-5.9-1.93-12.08-2.78-17.8-5.37c0.07-0.31,0.13-0.63,0.2-0.94
						c6.89,1.17,13.79,2.33,20.9,3.53c0.34-3.96-2.52-6-3.64-8.9c0.2-0.2,0.4-0.4,0.59-0.6c1.6,1.95,3.43,3.71,4.74,5.89
						c2.3,3.82,5.29,6.57,9.05,8.05c1.53,0.6,3.36,0.24,5.05,0.32c-0.02-0.25-0.03-0.5-0.05-0.75
						C136.31,113.73,133.17,110.81,130.03,107.88z M133,192.32c-1.76,2.02-1.7,4.53-0.42,6.98c2.94,5.64,6.68,7.81,11.3,6.25
						c1.56-0.53,2.96-1.69,4.23-3.01c-1.77-0.07-3.55-0.06-5.31-0.23c-0.79-0.08-1.69-0.29-2.28-0.81
						c-0.81-0.72-1.81-1.75-1.89-2.74c-0.06-0.77,1.01-2.11,1.82-2.47c1.69-0.76,3.53-1.38,5.32-1.44c2.16-0.07,2.89-1.24,3.04-3.37
						 M180.05,93.03c0.55-2.13,1.5-4.2,3.84-4.77c1.42-0.34,2.81-1.13,2.37-3.25c-0.47-2.27-2.17-1.89-3.61-1.8
						c-1.56,0.09-3.13,0.3-4.68,0.56c-0.53,0.09-1.42,0.41-1.47,0.76c-0.59,3.83-3.37,6.97-2.6,11.25
						c0.67,3.68,0.99,7.44,1.56,11.15c0.08,0.52,0.68,1.22,1.11,1.28c0.36,0.05,0.99-0.6,1.2-1.1c0.31-0.74,0.35-1.62,0.5-2.44
						c-0.19-0.05-0.37-0.1-0.56-0.16C178.47,100.68,179.08,96.79,180.05,93.03z M200.84,98c0.39-0.44,0.64-1.19,0.7-1.82
						c0.35-3.85,0.62-7.71,0.92-11.53c-4.16,0.23-9.71,14.64-7.26,19.5C197.08,102.11,199,100.1,200.84,98z M188.78,121.13
						c1.54-0.65,2.78-0.73,4.39,0.05c2.2,1.06,4.65,1.55,7.03,2.04c1.98,0.41,3.7-0.39,5.29-1.95c0.76-0.74,2.1-1.14,3.11-1.03
						c3.4,0.39,6.77,1.07,10.2,1.32c-4.17-1-8.34-1.99-12.81-3.06c-0.4,0.46-1.13,1.39-1.95,2.21c-1.5,1.51-3.22,1.99-5.16,1.36
						c-1.27-0.42-2.55-0.83-3.84-1.18c-2.51-0.69-4.16-2.15-4.52-5.34c-0.14-1.22-0.97-2.41-1.68-3.44
						c-0.34-0.48-1.13-0.55-1.72-0.8c-0.12,0.77-0.49,1.61-0.32,2.28c0.26,1.01,0.82,1.96,1.37,2.83c1.59,2.52,0.96,4.37-1.78,4.9
						c-0.77,0.15-1.58,0.05-2.36,0.07c0.02,0.32,0.04,0.65,0.06,0.97C185.66,121.97,187.29,121.77,188.78,121.13z"/>
					<path class="st6" d="M381.45,255.08c-0.7-0.05-1.42-0.06-2.1-0.2c-0.08-0.02-0.07-1.12,0.01-1.14
						c0.67-0.13,1.37-0.12,2.07-0.16c-0.66,0.17-1.32,0.34-1.99,0.51c0.03,0.27,0.05,0.54,0.08,0.81
						C380.16,254.96,380.8,255.02,381.45,255.08z"/>
					<path class="st6" d="M381.45,255.08c-0.64-0.06-1.29-0.12-1.93-0.18c-0.03-0.27-0.05-0.54-0.08-0.81
						c0.66-0.17,1.32-0.34,1.99-0.51C381.43,254.08,381.44,254.58,381.45,255.08z"/>
				</g>
			</g>
		</g>
		<path class="st7" d="M123.29,121.48c0,0,8.63,1.13,15.02-3c4.93-3.19,12.01-7.88,12.01-7.88s9.76-0.75,17.27,0.75
			c7.51,1.5,45.05,7.13,79.59,7.51v-42.8l-100.24,3c0,0-4.5-0.75-11.26-3.75c-6.76-3-20.27-6.76-22.52-7.88
			c-2.25-1.13-4.88-3.75-6.38-8.63c-1.5-4.88-1.13-12.39-7.13-12.76c0,0-6.38-0.75-10.14,3c-3.75,3.75,0.38,40.92,0.38,40.92
			L123.29,121.48z"/>
		<path class="st8" d="M94.38,46.4c0,0-2.63,10.89-3.38,18.77c-0.75,7.88-1.5,13.51,1.88,17.64s7.88,7.13,15.39,13.14
			c7.51,6.01,18.4,19.9,19.52,25.9c0,0-7.88-0.75-18.4-3.75s-31.16-10.14-31.16-10.14s-3.38-21.02-2.25-36.04
			c0,0,0.38-10.51,5.63-19.52L94.38,46.4z"/>
	</g>
</g>
<path id="Blanket_2_" class="st10" d="M191.38,160.01l0.01-94.04c0,0,82.65-2.07,97.55-3.44c14.9-1.38,63.68-11.02,72.49-12.39
	c8.81-1.38,29.13-2.07,29.13-2.07v111.94H191.38z"/>
</svg>
