<?xml version="1.0" encoding="utf-8"?>
<!-- Generator: Adobe Illustrator 23.0.3, SVG Export Plug-In . SVG Version: 6.00 Build 0)  -->
<svg version="1.1" id="Layer_1" xmlns="http://www.w3.org/2000/svg" xmlns:xlink="http://www.w3.org/1999/xlink" x="0px" y="0px"
	 viewBox="0 0 161.92 270.11" style="enable-background:new 0 0 161.92 270.11;" xml:space="preserve">
<style type="text/css">
	.st0{clip-path:url(#SVGID_2_);}
	.st1{fill:#B7B7B7;stroke:#545454;stroke-width:1.6817;stroke-miterlimit:10;}
	.st2{fill:#B7B7B7;stroke:#545454;stroke-width:2.6714;stroke-miterlimit:10;}
	.st3{fill:#B7B7B7;stroke:#545454;stroke-width:2.3649;stroke-miterlimit:10;}
	.st4{fill:#B7B7B7;stroke:#545454;stroke-width:1.7327;stroke-miterlimit:10;}
	.st5{fill:none;stroke:#B7B7B7;stroke-width:2.6714;stroke-miterlimit:10;}
	.st6{fill:none;stroke:#545454;stroke-width:2.6714;stroke-linecap:round;stroke-miterlimit:10;}
	.st7{fill:#545454;}
	.st8{fill:#B7B7B7;}
	.st9{fill:#D7E2EA;}
	.st10{opacity:0.53;}
</style>
<g id="IV_Hanger_1_">
	<g>
		<defs>
			<rect id="SVGID_1_" x="16.03" y="-9.47" width="146.25" height="279.31"/>
		</defs>
		<clipPath id="SVGID_2_">
			<use xlink:href="#SVGID_1_"  style="overflow:visible;"/>
		</clipPath>
		<g class="st0">
			<g>
				<rect x="119.55" y="220.9" class="st1" width="8.39" height="314.91"/>
				<path class="st2" d="M181.66,555.36H65.83c-1.79,0-3.26-1.47-3.26-3.26l0,0c0-1.79,1.47-3.26,3.26-3.26l56.41-7.52l59.42,7.52
					c1.79,0,3.26,1.47,3.26,3.26l0,0C184.92,553.89,183.45,555.36,181.66,555.36z"/>
				<path class="st3" d="M131.65,531.77v10.21c0,0.2-0.16,0.36-0.36,0.36H116.2c-0.2,0-0.36-0.16-0.36-0.36v-10.21
					c0-0.2,0.16-0.36,0.36-0.36h15.09C131.49,531.41,131.65,531.57,131.65,531.77z"/>
				<path class="st4" d="M126.91,214.33h-6.33c-0.2,0-0.36-0.16-0.36-0.36V13.78c0-0.2,0.16-0.36,0.36-0.36h6.33
					c0.2,0,0.36,0.16,0.36,0.36v200.19C127.27,214.17,127.1,214.33,126.91,214.33z"/>
				<path class="st1" d="M130.07,15.97h-12.24c-0.2,0-0.36-0.16-0.36-0.36V1.88c0-0.2,0.16-0.36,0.36-0.36h12.25
					c0.2,0,0.36,0.16,0.36,0.36v13.74C130.43,15.81,130.27,15.97,130.07,15.97z"/>
				<line class="st5" x1="43.99" y1="34.49" x2="43.99" y2="24.71"/>
				<path class="st6" d="M65.8,8.26c0,0-12.03,12.01-14.29,13.78c-2.26,1.77-5.27,2.47-7.9,1.41s-1.5-10.95-1.5-12.37
					S42.48,4.02,47,4.02s69.71-0.37,69.71-0.37"/>
				
					<ellipse transform="matrix(0.6212 -0.7837 0.7837 0.6212 -421.6665 265.2983)" class="st7" cx="63.58" cy="568.8" rx="8.84" ry="9.21"/>
				
					<ellipse transform="matrix(0.0568 -0.9984 0.9984 0.0568 -507.9278 599.9432)" class="st8" cx="63.56" cy="568.79" rx="6.05" ry="6.14"/>
				<path class="st7" d="M64.44,570.81l-2.77-1.23c-0.42-0.19-0.62-0.69-0.43-1.12l6.07-13.63c0.19-0.42,0.69-0.62,1.12-0.43
					l2.77,1.23c0.42,0.19,0.62,0.69,0.43,1.12l-6.07,13.63C65.36,570.81,64.86,571,64.44,570.81z"/>
				<path class="st7" d="M183.39,570.81l2.77-1.23c0.42-0.19,0.62-0.69,0.43-1.12l-6.07-13.63c-0.19-0.42-0.69-0.62-1.12-0.43
					l-2.77,1.23c-0.42,0.19-0.62,0.69-0.43,1.12l6.07,13.63C182.46,570.81,182.96,571,183.39,570.81z"/>
				<path class="st1" d="M129.66,221.4h-11.83c-0.2,0-0.36-0.16-0.36-0.36v-16.83c0-0.2,0.16-0.36,0.36-0.36h11.84
					c0.2,0,0.36,0.16,0.36,0.36v16.83C130.02,221.24,129.86,221.4,129.66,221.4z"/>
			</g>
		</g>
	</g>
</g>
<g>
	<g id="Tube_1_">
		<g>
			<path class="st9" d="M161.23,243.99c-47.5,0-81.98-11.08-102.49-32.92c-20.22-21.54-18.91-45.46-18.85-46.47l0.05-0.81h4.63
				l-0.06,0.92c-0.01,0.23-1.09,23.17,17.72,43.17c19.58,20.82,52.88,31.37,98.99,31.37h1.55l0.01,4.73L161.23,243.99z"/>
			<path class="st7" d="M40.75,164.67h2.9c-0.01,0.23-1.15,23.5,17.95,43.82c19.75,21,53.27,31.64,99.62,31.64c0.23,0,0.45,0,0.69,0
				l0.01,3c-0.23,0-0.46,0-0.69,0c-47.26,0-81.52-10.98-101.86-32.65C39.39,189.2,40.69,165.66,40.75,164.67 M39.14,162.94
				l-0.11,1.62c-0.07,1.02-1.39,25.3,19.08,47.11c20.67,22.02,55.36,33.19,103.11,33.19h0.7l1.72-0.01v-1.72l-0.01-3v-1.73
				l-1.73,0.01h-0.68c-45.86,0-78.95-10.46-98.36-31.1c-18.49-19.66-17.5-42.31-17.49-42.54l0.1-1.82l-1.82-0.01h-2.9L39.14,162.94
				L39.14,162.94z"/>
		</g>
	</g>
	<g id="Bag_Outline_2_" class="st10">
		<path class="st7" d="M60.01,35.89h-5.89v1.68h5.89V35.89L60.01,35.89z M51.6,35.89h-5.89v1.68h5.89V35.89L51.6,35.89z
			 M43.19,35.89H37.3v1.68h5.89V35.89L43.19,35.89z M34.78,35.89H28.9v1.68h5.89L34.78,35.89L34.78,35.89z M26.38,35.89h-1.65
			c-1.54,0-3.07,0.16-4.56,0.49l0.36,1.64c1.1-0.24,2.24-0.39,3.39-0.44l0,0h0.01l0,0h0.01l0,0h0.01l0,0h0.01l0,0h0.01l0,0h0.01l0,0
			h0.01l0,0H24l0,0h0.01l0,0c0.01,0,0.01,0,0.01,0l0,0c0.01,0,0.01,0,0.02,0l0,0c0.02,0,0.04,0,0.07,0l0,0c0.01,0,0.01,0,0.02,0l0,0
			h0.01l0,0h0.01l0,0h0.01c0,0,0,0,0.01,0h0.01c0,0,0,0,0.01,0h0.01c0,0,0,0,0.01,0h0.01c0,0,0,0,0.01,0h0.01c0,0,0,0,0.01,0h0.01
			c0,0,0,0,0.01,0h0.01c0,0,0,0,0.01,0h0.01c0,0,0,0,0.01,0h0.01c0,0,0,0,0.01,0h0.01c0,0,0,0,0.01,0h0.01c0,0,0,0,0.01,0h0.01l0,0
			c0.01,0,0.01,0,0.02,0l0,0h0.01c0,0,0,0,0.01,0h0.01c0,0,0,0,0.01,0h0.01c0,0,0,0,0.01,0h0.01c0,0,0,0,0.01,0h0.01h0.01h0.01
			c0,0,0,0,0.01,0h0.01c0,0,0,0,0.01,0h0.01c0,0,0,0,0.01,0h0.01c0,0,0,0,0.01,0h0.01c0,0,0,0,0.01,0h0.01c0,0,0,0,0.01,0h0.01
			c0,0,0,0,0.01,0h0.01c0,0,0,0,0.01,0h0.01c0,0,0,0,0.01,0h0.01c0,0,0,0,0.01,0h0.01c0,0,0,0,0.01,0s0.01,0,0.02,0l0,0h1.65v-1.69
			H26.38z M17.53,37.13c-2,0.72-3.89,1.73-5.61,3.01l1,1.35c0.05-0.04,0.1-0.08,0.16-0.12l0,0c0,0,0.01,0,0.01-0.01l0,0
			c0.01-0.01,0.02-0.01,0.03-0.02l0,0c0,0,0.01,0,0.01-0.01l0,0c0.01-0.01,0.02-0.01,0.02-0.02l0,0c0,0,0,0,0.01-0.01l0,0
			c0,0,0,0,0.01-0.01l0,0l0.01-0.01c0,0,0,0,0.01,0c0,0,0,0,0.01,0c0,0,0,0,0.01,0c0,0,0,0,0.01,0c0,0,0,0,0.01,0l0,0
			c0,0,0.01,0,0.01-0.01l0,0c0,0,0,0,0.01,0l0,0c0,0,0,0,0.01,0l0,0c0,0,0.01,0,0.01-0.01c0,0,0,0,0.01,0c0,0,0,0,0.01,0l0,0
			c0,0,0,0,0.01-0.01l0,0l0.01-0.01l0,0c0,0,0.01,0,0.01-0.01l0,0c0,0,0.01,0,0.01-0.01l0,0l0.01-0.01l0,0l0.01-0.01l0,0
			c0,0,0.01,0,0.01-0.01l0,0c0.01-0.01,0.02-0.02,0.03-0.02l0,0l0.01-0.01l0,0c0.01-0.01,0.02-0.01,0.02-0.02l0,0
			c1.43-0.99,2.99-1.81,4.65-2.4L17.53,37.13L17.53,37.13z M9.84,41.9c-1.54,1.48-2.85,3.17-3.89,5.03l1.47,0.82
			c0.07-0.13,0.15-0.26,0.22-0.38l0,0c0.01-0.01,0.01-0.03,0.02-0.04l0,0c0,0,0-0.01,0.01-0.01l0,0c0-0.01,0.01-0.02,0.02-0.03l0,0
			c0,0,0-0.01,0.01-0.01l0,0c0-0.01,0.01-0.02,0.01-0.02l0,0c0,0,0-0.01,0.01-0.01l0,0c0,0,0-0.01,0.01-0.01l0,0
			c0-0.01,0.01-0.02,0.01-0.02l0,0c0,0,0-0.01,0.01-0.01l0,0c0,0,0-0.01,0.01-0.01l0,0c0,0,0-0.01,0.01-0.01l0,0v-0.01l0,0
			c0,0,0,0,0-0.01l0,0c0,0,0-0.01,0.01-0.01l0,0v-0.01l0,0c0,0,0,0,0-0.01l0,0v-0.01c0,0,0,0,0-0.01v-0.01c0,0,0,0,0-0.01
			c0,0,0,0,0-0.01c0,0,0,0,0-0.01c0,0,0,0,0-0.01c0,0,0-0.01,0.01-0.01c0,0,0,0,0-0.01c0,0,0,0,0-0.01l0,0c0,0,0,0,0-0.01l0,0
			c0,0,0,0,0-0.01l0,0l0.01-0.01l0,0c0,0,0,0,0-0.01l0,0c0,0,0,0,0-0.01l0,0c0.01-0.01,0.01-0.02,0.02-0.03l0,0
			c0,0,0-0.01,0.01-0.01l0,0c0.01-0.01,0.01-0.02,0.02-0.03l0,0c0,0,0-0.01,0.01-0.01l0,0c0.01-0.01,0.02-0.02,0.02-0.04l0,0
			c0.01-0.02,0.02-0.03,0.03-0.05l0,0c0.59-0.93,1.26-1.81,2-2.63l0,0c0.01-0.01,0.02-0.02,0.03-0.03l0,0
			c0.01-0.01,0.02-0.02,0.03-0.03l0,0c0,0,0-0.01,0.01-0.01l0,0C9.99,44.11,10,44.1,10,44.09l0,0c0,0,0-0.01,0.01-0.01l0,0
			c0,0,0,0,0.01-0.01l0,0c0.01-0.01,0.01-0.01,0.01-0.02l0,0c0,0,0,0,0.01-0.01l0,0c0,0,0,0,0.01-0.01l0,0
			c0.01-0.01,0.01-0.01,0.02-0.02l0,0c0,0,0,0,0.01-0.01l0,0c0,0,0,0,0.01-0.01l0,0l0.01-0.01l0,0c0,0,0,0,0-0.01l0,0
			c0,0,0,0,0-0.01c0,0,0,0,0.01-0.01l0,0l0.01-0.01l0,0c0,0,0,0,0.01-0.01l0,0c0,0,0,0,0.01-0.01l0,0l0.01-0.01l0,0
			c0,0,0,0,0.01-0.01l0,0c0,0,0,0,0.01-0.01l0,0l0.01-0.01l0,0c0,0,0-0.01,0.01-0.01l0,0c0,0,0,0,0.01-0.01l0,0l0.01-0.01l0,0
			l0.01-0.01l0,0c0,0,0-0.01,0.01-0.01l0,0l0.01-0.01l0,0c0.01-0.01,0.01-0.01,0.02-0.02l0,0l0.01-0.01l0,0
			c0.01-0.01,0.01-0.01,0.02-0.02l0,0l0.01-0.01l0,0c0.01-0.01,0.02-0.02,0.03-0.03l0,0c0.19-0.2,0.38-0.39,0.58-0.58L9.84,41.9
			L9.84,41.9z M4.77,49.4c-0.8,1.98-1.29,4.07-1.47,6.19l1.68,0.14c0.05-0.55,0.12-1.1,0.21-1.64l0,0c0-0.02,0.01-0.03,0.01-0.05
			l0,0c0-0.02,0.01-0.03,0.01-0.05l0,0c0-0.02,0.01-0.03,0.01-0.04l0,0c0-0.02,0.01-0.03,0.01-0.04l0,0c0-0.02,0.01-0.03,0.01-0.04
			l0,0c0-0.02,0.01-0.03,0.01-0.04l0,0c0-0.01,0.01-0.03,0.01-0.04l0,0c0-0.01,0-0.02,0.01-0.03l0,0v-0.01l0,0
			c0-0.01,0-0.02,0.01-0.03l0,0v-0.01l0,0c0-0.01,0.01-0.03,0.01-0.04l0,0c0-0.01,0-0.02,0.01-0.03l0,0v-0.01l0,0
			c0-0.01,0-0.02,0.01-0.03l0,0v-0.01l0,0c0-0.01,0-0.02,0.01-0.03l0,0v-0.01l0,0c0-0.01,0-0.02,0.01-0.03l0,0v-0.01l0,0
			c0-0.01,0-0.02,0.01-0.03l0,0v-0.01l0,0c0-0.01,0-0.02,0.01-0.03l0,0v-0.01l0,0c0-0.01,0-0.02,0.01-0.03l0,0v-0.01l0,0
			c0-0.01,0-0.02,0.01-0.03l0,0v-0.01l0,0c0-0.01,0-0.02,0.01-0.03l0,0v-0.01l0,0c0-0.01,0-0.02,0.01-0.03l0,0v-0.01l0,0
			c0-0.01,0-0.02,0.01-0.03l0,0v-0.01l0,0c0-0.01,0-0.02,0.01-0.03l0,0v-0.01l0,0c0-0.01,0-0.02,0.01-0.03l0,0v-0.01l0,0
			c0-0.01,0-0.02,0.01-0.03l0,0v-0.01l0,0c0-0.01,0-0.02,0.01-0.03l0,0v-0.01l0,0c0-0.01,0-0.02,0.01-0.03l0,0v-0.01l0,0
			c0-0.01,0-0.02,0.01-0.03l0,0v-0.01l0,0c0-0.01,0-0.02,0.01-0.03l0,0v-0.01l0,0c0-0.01,0-0.02,0.01-0.03l0,0v-0.01l0,0
			c0-0.01,0-0.01,0-0.02l0,0v-0.01l0,0v-0.01l0,0c0-0.01,0-0.02,0.01-0.03l0,0v-0.01l0,0c0-0.01,0-0.02,0.01-0.03l0,0v-0.01l0,0
			c0-0.01,0-0.01,0-0.02l0,0v-0.01l0,0v-0.01c0,0,0,0,0-0.01c0,0,0-0.01,0-0.02l0,0v-0.01l0,0V52.7l0,0c0-0.01,0-0.01,0-0.02l0,0
			v-0.01l0,0v-0.01l0,0c0-0.01,0-0.01,0-0.02l0,0v-0.01l0,0v-0.01l0,0c0-0.01,0-0.01,0-0.02l0,0v-0.01l0,0v-0.01l0,0
			c0-0.01,0-0.01,0-0.02l0,0v-0.01l0,0v-0.01l0,0c0,0,0-0.01,0-0.02l0,0v-0.01l0,0V52.5l0,0c0-0.01,0-0.01,0-0.02l0,0v-0.01l0,0
			v-0.01c0,0,0,0,0-0.01v-0.01l0,0v-0.01l0,0v-0.01l0,0c0-0.01,0-0.01,0-0.02l0,0v-0.01l0,0v-0.01l0,0c0,0,0-0.01,0-0.02l0,0v-0.01
			c0,0,0,0,0-0.01c0,0,0,0,0-0.01c0,0,0,0,0-0.01v-0.01c0,0,0,0,0-0.01c0,0,0,0,0-0.01c0,0,0,0,0-0.01v-0.01c0,0,0,0,0-0.01v-0.01
			c0,0,0,0,0-0.01c0,0,0,0,0-0.01c0,0,0,0,0-0.01v-0.01c0,0,0,0,0-0.01v-0.01c0,0,0,0,0-0.01v-0.01l0,0c0,0,0,0,0-0.01l0,0v-0.01
			c0,0,0,0,0-0.01v-0.01l0,0c0,0,0,0,0-0.01l0,0c0,0,0-0.01,0-0.02l0,0v-0.01c0,0,0,0,0-0.01c0,0,0,0,0-0.01c0,0,0,0,0-0.01v-0.01
			c0,0,0,0,0-0.01c0,0,0,0,0-0.01c0,0,0,0,0-0.01c0,0,0,0,0-0.01c0,0,0,0,0-0.01v-0.01c0,0,0,0,0-0.01c0,0,0,0,0-0.01
			c0,0,0,0,0-0.01c0,0,0,0,0-0.01l0,0v-0.01c0,0,0,0,0-0.01c0,0,0,0,0-0.01c0,0,0,0,0-0.01c0,0,0,0,0-0.01c0,0,0,0,0-0.01v-0.01
			c0,0,0,0,0-0.01v-0.01c0,0,0,0,0-0.01v-0.01c0,0,0,0,0-0.01v-0.01c0,0,0,0,0-0.01c0,0,0,0,0-0.01c0,0,0,0,0-0.01c0,0,0,0,0-0.01
			c0,0,0,0,0-0.01v-0.01c0,0,0,0,0-0.01c0,0,0,0,0-0.01c0,0,0,0,0-0.01c0,0,0,0,0-0.01v-0.01V51.7v-0.01c0,0,0,0,0-0.01
			c0,0,0,0,0-0.01c0,0,0,0,0-0.01v-0.01v-0.01v-0.01c0,0,0,0,0-0.01c0,0,0,0,0-0.01c0,0,0,0,0-0.01v-0.01c0,0,0,0,0-0.01v-0.01
			c0,0,0,0,0-0.01v-0.01c0,0,0,0,0-0.01v-0.01c0,0,0,0,0-0.01v-0.01c0,0,0,0,0-0.01c0,0,0,0,0-0.01c0,0,0,0,0-0.01v-0.01l0,0v-0.01
			l0,0v-0.01l0,0v-0.01l0,0v-0.01l0,0v-0.01l0,0v-0.01l0,0V51.4l0,0v-0.01l0,0v-0.01l0,0v-0.01l0,0v-0.01l0,0
			c0-0.01,0.01-0.02,0.01-0.03l0,0v-0.01l0,0v-0.01l0,0V51.3l0,0v-0.01l0,0c0-0.01,0.01-0.02,0.01-0.03l0,0v-0.01l0,0
			c0-0.01,0.01-0.02,0.01-0.03l0,0v-0.01l0,0c0-0.01,0.01-0.02,0.01-0.03l0,0v-0.01l0,0c0-0.01,0.01-0.02,0.01-0.03l0,0v-0.01l0,0
			c0-0.01,0.01-0.02,0.01-0.03l0,0c0-0.01,0.01-0.03,0.01-0.04l0,0c0.11-0.33,0.23-0.65,0.36-0.97L4.77,49.4L4.77,49.4z M4.91,58.25
			H3.23v5.89h1.68V58.25L4.91,58.25z M4.91,66.66H3.23v5.89h1.68V66.66L4.91,66.66z M4.91,75.07H3.23v5.89h1.68V75.07L4.91,75.07z
			 M4.91,83.48H3.23v5.89h1.68V83.48L4.91,83.48z M4.91,91.89H3.23v5.89h1.68V91.89L4.91,91.89z M4.91,100.3H3.23v5.89h1.68V100.3
			L4.91,100.3z M4.91,108.71H3.23v0.04c0,2.13,0.45,4.26,1.35,6.34l1.54-0.67c-0.03-0.07-0.06-0.15-0.09-0.22l0,0v-0.01l0,0v-0.01
			l0,0v-0.01l0,0c0,0,0,0,0-0.01c-0.69-1.68-1.11-3.48-1.11-5.41v-0.04H4.91z M7.28,116.66l-1.44,0.87
			c0.95,1.57,2.18,3.19,3.76,4.94l1.25-1.13c-0.81-0.89-1.59-1.83-2.31-2.8l0,0c-0.02-0.02-0.03-0.05-0.05-0.07l0,0
			c0,0,0,0-0.01-0.01l0,0c0,0,0,0,0-0.01l0,0c0,0,0,0-0.01-0.01l0,0c0,0,0,0,0-0.01l0,0c0,0,0,0,0-0.01l0,0c0,0,0,0,0-0.01l0,0
			c0,0,0,0,0-0.01l0,0c0,0,0-0.01-0.01-0.01l0,0c-0.01-0.01-0.01-0.02-0.02-0.02l0,0l0,0l0,0l0,0l0,0c0,0,0,0,0-0.01l0,0
			c0,0,0,0,0-0.01l0,0c0,0,0,0,0-0.01l0,0l0,0l0,0l0,0c0,0,0,0,0-0.01l0,0c0,0,0,0,0-0.01l0,0c0,0,0,0-0.01-0.01l0,0
			c0,0,0-0.01-0.01-0.01l0,0c0,0,0-0.01-0.01-0.01l0,0c0,0,0,0,0-0.01l0,0c0,0,0,0-0.01-0.01l0,0c0,0,0,0,0-0.01l0,0c0,0,0,0,0-0.01
			l0,0c0,0,0,0-0.01-0.01l0,0c0,0,0,0,0-0.01l0,0c0,0,0,0,0-0.01l0,0c0,0,0,0,0-0.01l0,0c0,0,0,0-0.01-0.01l0,0
			c-0.01-0.01-0.02-0.02-0.03-0.04l0,0c0,0,0-0.01-0.01-0.01l0,0c0,0,0,0-0.01-0.01l0,0c0,0,0-0.01-0.01-0.01l0,0
			c0,0,0-0.01-0.01-0.01l0,0C7.89,117.64,7.58,117.15,7.28,116.66L7.28,116.66z M12.58,123.17l-1.2,1.18
			c0.56,0.57,1.11,1.12,1.65,1.66c0.53,0.53,1.05,1.05,1.54,1.55l0.08,0.08l0.08,0.07c0.31,0.25,0.62,0.51,0.92,0.79l1.15-1.22
			c-0.21-0.19-0.41-0.38-0.61-0.55l0,0c-0.02-0.02-0.04-0.04-0.06-0.05l0,0c0,0,0,0-0.01-0.01l0,0c0,0,0,0-0.01-0.01l0,0
			c0,0,0,0-0.01-0.01l0,0c0,0,0,0-0.01,0l0,0c0,0,0,0-0.01,0l0,0c0,0,0,0-0.01,0l0,0l0,0l0,0l0,0l0,0l0,0l0,0l0,0l0,0l0,0l0,0l0,0
			l0,0c0,0-0.01,0-0.01-0.01l0,0l0,0c0,0,0,0-0.01-0.01l0,0c0,0,0,0-0.01,0l0,0c0,0,0,0-0.01,0l0,0l0,0l0,0c0,0,0,0-0.01,0l0,0
			c0,0,0,0-0.01,0l0,0l0,0l0,0l0,0l0,0c0,0,0,0-0.01,0l0,0c0,0,0,0-0.01,0l0,0l0,0l0,0l0,0l0,0c0,0,0,0-0.01,0l0,0
			c0,0,0,0-0.01-0.01l0,0c-0.01-0.01-0.03-0.02-0.04-0.03l0,0c0,0,0,0-0.01,0l0,0c0,0,0,0-0.01,0l0,0l0,0l0,0l0,0l0,0l0,0l0,0l0,0
			l0,0l0,0l0,0l0,0l0,0l0,0l0,0l0,0l0,0l0,0l0,0l0,0c0,0-0.01,0-0.01-0.01l0,0l0,0c-0.5-0.51-1.02-1.03-1.56-1.57
			c-0.22-0.22-0.45-0.44-0.67-0.67c0,0,0,0-0.01-0.01c0,0,0,0-0.01-0.01l-0.01-0.01l0,0l-0.01-0.01l0,0
			c-0.27-0.27-0.55-0.55-0.82-0.83l0,0l-0.01-0.01l0,0c0,0,0,0-0.01-0.01l-0.01-0.01l0,0C12.62,123.21,12.6,123.19,12.58,123.17
			L12.58,123.17z M18.49,129.13l-1.33,1.03c1.06,1.37,1.88,2.95,2.44,4.68l1.6-0.52c-0.05-0.14-0.09-0.28-0.14-0.42l0,0
			c-0.01-0.02-0.01-0.04-0.02-0.06l0,0c0,0,0-0.01-0.01-0.01l0,0c0-0.01-0.01-0.02-0.01-0.03l0,0c0,0,0-0.01-0.01-0.01l0,0
			c-0.01-0.01-0.01-0.03-0.02-0.04l0,0v-0.01l0,0c0,0,0-0.01-0.01-0.01l0,0c0-0.01,0-0.01-0.01-0.02l0,0c0,0,0-0.01-0.01-0.01l0,0
			v-0.01l0,0c0-0.01-0.01-0.02-0.01-0.03l0,0v-0.01l0,0v-0.01l0,0c0-0.01-0.01-0.02-0.01-0.03l0,0v-0.01l0,0v-0.01l0,0
			c0,0,0-0.01-0.01-0.01l0,0v-0.01l0,0v-0.01l0,0v-0.01l0,0c0,0,0-0.01-0.01-0.01l0,0v-0.01c0,0,0,0,0-0.01v-0.01c0,0,0,0,0-0.01
			v-0.01l0,0v-0.01c0,0,0,0,0-0.01v-0.01c0,0,0,0,0-0.01c0,0,0,0,0-0.01c0,0,0,0,0-0.01c0,0,0,0,0-0.01v-0.01c0,0,0,0,0-0.01
			c0,0,0,0,0-0.01c0,0,0,0,0-0.01c0,0,0,0,0-0.01c0,0,0,0,0-0.01c0,0,0,0,0-0.01c0-0.01,0,0,0-0.01v-0.01c0,0,0,0,0-0.01
			c0,0,0,0,0-0.01c0,0,0,0,0-0.01v-0.01c0,0,0,0,0-0.01s-0.01-0.02-0.01-0.03c0,0,0,0,0-0.01v-0.01l0,0v-0.01l0,0
			c0-0.01-0.01-0.02-0.01-0.03l0,0v-0.01l0,0c-0.01-0.01-0.01-0.03-0.02-0.04l0,0v-0.01l0,0c0-0.01-0.01-0.02-0.01-0.03l0,0v-0.01
			l0,0v-0.01l0,0c-0.01-0.01-0.01-0.03-0.02-0.04l0,0c-0.42-1.01-0.9-1.92-1.42-2.72l0,0c-0.01-0.01-0.02-0.02-0.02-0.04l0,0
			c0,0,0-0.01-0.01-0.01l0,0c-0.01-0.01-0.01-0.02-0.02-0.03l0,0c0,0,0,0,0-0.01l0,0c0-0.01-0.01-0.02-0.01-0.02l0,0c0,0,0,0,0-0.01
			l0,0c0,0,0,0,0-0.01l0,0c0,0,0-0.01-0.01-0.01c0,0,0,0,0-0.01c0,0,0,0,0-0.01c0,0,0,0,0-0.01c0-0.01,0,0,0-0.01s0,0,0,0
			s0,0,0-0.01c0,0,0,0,0-0.01c0,0,0,0,0-0.01c0,0,0,0,0-0.01l0,0c0,0,0,0,0-0.01l0,0c0,0,0,0,0-0.01l0,0c0,0,0-0.01-0.01-0.01l0,0
			c0,0,0-0.01-0.01-0.01l0,0c0,0,0,0,0-0.01l0,0c0,0,0-0.01-0.01-0.01l0,0c0,0,0-0.01-0.01-0.01l0,0c0,0,0-0.01-0.01-0.01l0,0
			c0,0,0-0.01-0.01-0.01l0,0c0-0.01-0.01-0.01-0.01-0.02l0,0c0,0,0-0.01-0.01-0.01l0,0c0,0,0-0.01-0.01-0.01l0,0
			c-0.01-0.01-0.01-0.02-0.02-0.03l0,0C18.86,129.63,18.68,129.38,18.49,129.13L18.49,129.13z M21.82,136.77l-1.65,0.31
			c0.13,0.69,0.22,1.4,0.28,2.13v1.76c0,1.2,0.66,2.29,1.73,2.85l0.77-1.49c-0.24-0.13-0.45-0.32-0.6-0.55l0,0
			c-0.01-0.01-0.02-0.03-0.02-0.04l0,0c-0.01-0.01-0.01-0.02-0.02-0.03l0,0c-0.01-0.01-0.01-0.02-0.02-0.03l0,0
			c-0.01-0.01-0.01-0.02-0.01-0.03l0,0v-0.01l0,0c0-0.01-0.01-0.01-0.01-0.02l0,0v-0.01l0,0v-0.01l0,0l0,0l0,0v-0.01l0,0v-0.01l0,0
			v-0.01l0,0l0,0l0,0v-0.01l0,0v-0.01l0,0l0,0l0,0c0,0,0,0,0-0.01l0,0l0,0l0,0v-0.01l0,0v-0.01l0,0l0,0l0,0c0,0,0,0,0-0.01l0,0l0,0
			l0,0v-0.01l0,0v-0.01l0,0l0,0l0,0l0,0l0,0l0,0l0,0v-0.01l0,0v-0.01l0,0l0,0l0,0l0,0l0,0l0,0l0,0l0,0l0,0l0,0l0,0l0,0l0,0l0,0l0,0
			l0,0l0,0l0,0l0,0l0,0l0,0l0,0l0,0l0,0l0,0l0,0l0,0l0,0l0,0l0,0l0,0l0,0l0,0l0,0l0,0l0,0l0,0l0,0l0,0l0,0l0,0l0,0l0,0l0,0l0,0l0,0
			l0,0l0,0l0,0l0,0l0,0l0,0l0,0l0,0l0,0l0,0l0,0l0,0l0,0l0,0l0,0l0,0l0,0l0,0l0,0l0,0l0,0l0,0l0,0l0,0l0,0l0,0l0,0l0,0l0,0l0,0l0,0
			l0,0l0,0l0,0l0,0l0,0l0,0l0,0l0,0l0,0l0,0l0,0l0,0l0,0l0,0l0,0l0,0l0,0l0,0l0,0l0,0l0,0l0,0l0,0l0,0l0,0l0,0l0,0l0,0l0,0l0,0l0,0
			l0,0l0,0l0,0l0,0l0,0l0,0l0,0l0,0l0,0l0,0l0,0l0,0l0,0l0,0l0,0l0,0l0,0l0,0l0,0l0,0l0,0l0,0l0,0l0,0l0,0l0,0l0,0l0,0l0,0l0,0l0,0
			l0,0l0,0l0,0l0,0l0,0l0,0l0,0l0,0l0,0l0,0l0,0l0,0l0,0l0,0l0,0l0,0l0,0l0,0l0,0l0,0l0,0l0,0l0,0l0,0l0,0l0,0l0,0l0,0l0,0l0,0l0,0
			l0,0l0,0l0,0l0,0l0,0l0,0l0,0l0,0l0,0l0,0l0,0l0,0l0,0l0,0l0,0l0,0l0,0l0,0l0,0l0,0l0,0l0,0l0,0l0,0v-0.01l0,0l0,0l0,0l0,0l0,0
			l0,0l0,0l0,0l0,0l0,0l0,0l0,0l0,0v-1.83c0-0.01,0-0.01,0-0.02v-0.01v-0.01v-0.01v-0.01v-0.01v-0.01v-0.01v-0.01v-0.01v-0.01v-0.01
			v-0.01v-0.01v-0.01v-0.01v-0.01v-0.01v-0.01v-0.01v-0.01v-0.01v-0.01v-0.01v-0.01v-0.01v-0.01v-0.01v-0.01v-0.01v-0.01v-0.01
			v-0.01v-0.01v-0.01v-0.01v-0.01v-0.01v-0.01v-0.01v-0.01v-0.01v-0.01v-0.01v-0.01v-0.01v-0.01v-0.01v-0.01v-0.01v-0.01v-0.01
			v-0.01v-0.01c0,0,0,0,0-0.01v-0.01c0,0,0,0,0-0.01c0-0.02,0-0.03,0-0.05l0,0v-0.01c0,0,0,0,0-0.01v-0.01c0,0,0,0,0-0.01v-0.01
			v-0.01v-0.01c0,0,0,0,0-0.01v-0.01v-0.01v-0.01c0,0,0,0,0-0.01v-0.01c0,0,0,0,0-0.01v-0.01c0,0,0,0,0-0.01v-0.01v-0.01v-0.01
			v-0.01v-0.01v-0.01v-0.01c0,0,0,0,0-0.01v-0.01v-0.01v-0.01v-0.01v-0.01v-0.01v-0.01c0,0,0,0,0-0.01v-0.01c0,0,0,0,0-0.01v-0.01
			v-0.01v-0.01c0,0,0,0,0-0.01v-0.01c0,0,0,0,0-0.01v-0.01c0,0,0,0,0-0.01v-0.01c0,0,0,0,0-0.01v-0.01c0,0,0,0,0-0.01v-0.01l0,0
			c0-0.01,0-0.01,0-0.02l0,0c0-0.01,0-0.01,0-0.02l0,0c0-0.04-0.01-0.07-0.01-0.11l0,0v-0.01l0,0v-0.01c0,0,0,0,0-0.01v-0.01
			c0,0,0,0,0-0.01v-0.01c0,0,0,0,0-0.01v-0.01c0,0,0,0,0-0.01v-0.01c0,0,0,0,0-0.01v-0.01c0,0,0,0,0-0.01v-0.01c0,0,0,0,0-0.01
			v-0.01c0,0,0,0,0-0.01v-0.01c0,0,0,0,0-0.01v-0.01c0,0,0,0,0-0.01v-0.01c0,0,0,0,0-0.01v-0.01c0,0,0,0,0-0.01v-0.01
			c0,0,0,0,0-0.01v-0.01c0,0,0,0,0-0.01v-0.01c0,0,0,0,0-0.01v-0.01c0,0,0,0,0-0.01v-0.01c0,0,0,0,0-0.01v-0.01v-0.01V138
			c0,0,0,0,0-0.01v-0.01c0,0,0,0,0-0.01v-0.01c0,0,0,0,0-0.01v-0.01c0,0,0,0,0-0.01v-0.01l0,0c0-0.01,0-0.01,0-0.02l0,0
			c0-0.02-0.01-0.04-0.01-0.06c0,0,0,0,0-0.01v-0.01v-0.01v-0.01v-0.01v-0.01v-0.01v-0.01v-0.01v-0.01v-0.01v-0.01v-0.01v-0.01
			v-0.01v-0.01v-0.01v-0.01v-0.01c0,0,0,0,0-0.01v-0.01c0,0,0,0,0-0.01v-0.01c0,0,0,0,0-0.01v-0.01c0,0,0,0,0-0.01v-0.01
			c0,0,0,0,0-0.01v-0.01c0,0,0,0,0-0.01v-0.01c0,0,0,0,0-0.01v-0.01c0,0,0,0,0-0.01v-0.01l0,0v-0.01l0,0c0-0.01,0-0.01,0-0.02l0,0
			c0-0.01,0-0.01,0-0.02l0,0c0-0.01,0-0.01,0-0.02l0,0C21.85,136.92,21.83,136.84,21.82,136.77L21.82,136.77z M25.14,142.8h-1.68
			v5.89h1.68V142.8L25.14,142.8z M25.14,151.2h-1.68v1.78c0,1.39,1.13,2.52,2.52,2.52h2.78v-1.68h-2.78c-0.46,0-0.84-0.38-0.84-0.84
			V151.2L25.14,151.2z M35.01,149.62h-1.68v3.37l0,0l0,0c0,0.46-0.38,0.84-0.84,0.84h-1.2v1.68h1.2c1.39,0,2.52-1.13,2.52-2.52
			V149.62L35.01,149.62z M35.01,142.49h-1.68v4.61h1.68V142.49L35.01,142.49z M40.07,142.49h-2.94v1.68h1.26v1.26h1.68V142.49
			L40.07,142.49z M40.07,147.95h-1.68v5.89h1.68V147.95L40.07,147.95z M40.07,156.36h-1.68v5.65v1.68h1.68h0.23v-1.68h-0.23V156.36
			L40.07,156.36z M44.69,157.99c0,2.44,0,4.02,0,4.02l0,0l0,0h-1.86v1.68h1.86h1.68v-1.68v-4.02H44.69L44.69,157.99z M44.69,149.58
			c0,0.01,0,0.01,0,0.02v0.01v0.01v0.01v0.01v0.01c0,0.01,0,0.01,0,0.02v0.01c0,0,0,0,0,0.01c0,1.48,0,2.91,0,4.25l0,0
			c0,0.01,0,0.01,0,0.02c0,0.52,0,1.02,0,1.5h1.68v-5.89L44.69,149.58L44.69,149.58z M46.01,142.49h-1.32l0,0c0,0.01,0,0.02,0,0.03
			c0,0.87,0,1.75,0,2.64c0,0.02,0,0.03,0,0.05l0,0c0,0.62,0,1.23,0,1.85h1.68v-4.57H46.01L46.01,142.49h0.36H46.01L46.01,142.49
			L46.01,142.49z M51.31,142.49h-2.77v1.68h1.09v1.43h1.68V142.49L51.31,142.49z M51.31,148.12h-1.68v4.86c0,1.05,0.66,2,1.65,2.37
			l0.58-1.58c-0.24-0.09-0.43-0.29-0.51-0.54l0,0c0,0,0,0,0-0.01l0,0c0-0.01,0-0.01-0.01-0.02l0,0l0,0l0,0l0,0l0,0l0,0l0,0
			c0,0,0,0,0-0.01l0,0l0,0l0,0c0,0,0,0,0-0.01l0,0l0,0l0,0l0,0l0,0l0,0l0,0l0,0l0,0l0,0l0,0l0,0l0,0c0,0,0,0,0-0.01l0,0l0,0l0,0
			c0,0,0,0,0-0.01l0,0l0,0l0,0l0,0l0,0l0,0l0,0l0,0l0,0l0,0l0,0l0,0l0,0l0,0l0,0l0,0l0,0l0,0l0,0l0,0l0,0l0,0l0,0l0,0l0,0l0,0l0,0
			l0,0l0,0l0,0l0,0l0,0l0,0l0,0l0,0l0,0l0,0l0,0l0,0l0,0l0,0l0,0l0,0l0,0l0,0l0,0l0,0l0,0l0,0l0,0l0,0l0,0l0,0l0,0l0,0l0,0l0,0l0,0
			l0,0l0,0l0,0l0,0l0,0l0,0l0,0l0,0l0,0l0,0l0,0l0,0l0,0l0,0l0,0l0,0l0,0l0,0l0,0l0,0l0,0l0,0l0,0l0,0l0,0l0,0l0,0l0,0l0,0l0,0l0,0
			l0,0l0,0l0,0l0,0l0,0l0,0l0,0l0,0l0,0l0,0l0,0l0,0l0,0l0,0l0,0l0,0l0,0l0,0l0,0l0,0l0,0l0,0l0,0l0,0l0,0l0,0l0,0l0,0l0,0l0,0l0,0
			l0,0v-5.04H51.31z M61.18,152.7H59.5v0.28l0,0l0,0c0,0.46-0.38,0.84-0.84,0.84h-4.28v1.68h4.28c1.39,0,2.52-1.13,2.52-2.52V152.7
			L61.18,152.7z M61.18,144.29H59.5v5.89h1.68V144.29L61.18,144.29z M62.7,138.29c-0.03,0.25-0.05,0.5-0.07,0.76l0,0
			c0,0.01,0,0.01,0,0.02l0,0c0,0.01,0,0.01,0,0.02l0,0c0,0.01,0,0.01,0,0.02l0,0c0,0.01,0,0.01,0,0.02l0,0c0,0.01,0,0.01,0,0.02l0,0
			c0,0.01,0,0.01,0,0.02l0,0v0.01l0,0c0,0.01,0,0.01,0,0.02c0,0,0,0,0,0.01c0,0.01,0,0.01,0,0.02c0,0,0,0,0,0.01
			c0,0.01,0,0.01,0,0.02c0,0,0,0,0,0.01c0,0.01,0,0.01,0,0.02c0,0,0,0,0,0.01v0.01c0,0,0,0,0,0.01v0.01v0.01v0.01v0.01v0.01
			c0,0,0,0,0,0.01v0.01v0.01v0.01v0.01v0.01v0.01v0.01v0.01v0.01v0.01v0.01v0.01v0.01v0.01v0.01v0.01v0.01v0.01v0.01v0.01v0.01v0.01
			v0.01v0.01v0.01v0.01v0.01v0.01v0.01v0.01v0.01v0.01v0.01v0.01v0.01v0.01v0.01v0.01v0.01v0.01v0.01v0.01v0.01v0.01v0.01v0.01v0.01
			v0.01v0.01v0.01v0.01v0.01v0.01v0.01v0.01v0.01v0.01v0.01v0.01v0.01v0.01V140v0.01v0.01v0.01v0.01v0.01v0.01v0.01c0,0,0,0,0,0.01
			v0.01v0.01v0.01v0.01v0.01v0.01v0.01v0.01v0.01v0.01v0.01v0.01v0.01c0,0,0,0,0,0.01c0,0.01,0,0.01,0,0.02c0,0,0,0,0,0.01
			c0,0.01,0,0.01,0,0.02c0,0,0,0,0,0.01c0,0.01,0,0.01,0,0.02c0,0,0,0,0,0.01c0,0.01,0,0.01,0,0.02c0,0,0,0,0,0.01
			c0,0.01,0,0.01,0,0.02c0,0,0,0,0,0.01c0,0.01,0,0.01,0,0.02l0,0c0,0.01,0,0.01,0,0.02c0,0,0,0,0,0.01s0,0.01,0,0.02
			c0,0,0,0,0,0.01s0,0.01,0,0.02l0,0c0,0.01,0,0.01,0,0.02l0,0c0,0.01,0,0.01,0,0.02l0,0c0,0.01,0,0.01,0,0.02l0,0
			c0,0.01,0,0.01,0,0.02l0,0c0,0.01,0,0.01,0,0.02l0,0c0,0.01,0,0.01,0,0.02l0,0c0,0.01,0,0.01,0,0.02l0,0c0,0.01,0,0.01,0,0.02l0,0
			c0,0.01,0,0.01,0,0.02l0,0c0,0.01,0,0.01,0,0.02l0,0c0,0.01,0,0.01,0,0.02l0,0c0,0.01,0,0.01,0,0.02l0,0c0,0.01,0,0.01,0,0.02l0,0
			c0,0.01,0,0.01,0,0.02l0,0c0,0.01,0,0.01,0,0.02l0,0c0,0.01,0,0.01,0,0.02l0,0c0,0.01,0,0.01,0,0.02l0,0c0,0.01,0,0.01,0,0.02l0,0
			c0,0.01,0,0.01,0,0.02l0,0c0,0.01,0,0.01,0,0.02l0,0c0,0.01,0,0.01,0,0.02l0,0c0,0.01,0,0.01,0,0.02l0,0c0,0.01,0,0.01,0,0.02l0,0
			c0,0.01,0,0.01,0,0.02l0,0c0,0.84-0.69,1.52-1.52,1.52h-0.82v1.68h0.82c1.77,0,3.21-1.44,3.21-3.21c0-0.85,0.05-1.69,0.13-2.48
			L62.7,138.29L62.7,138.29z M65.37,130.4c-0.78,1.23-1.48,2.7-1.99,4.43l0,0c0,0.01-0.01,0.02-0.01,0.04l0,0
			c0,0.01,0,0.02-0.01,0.02l0,0v0.01l0,0c0,0.01,0,0.01-0.01,0.02l0,0v0.01l0,0v0.01l0,0v0.01l0,0c0,0,0,0,0,0.01l0,0v0.01l0,0
			c0,0,0,0,0,0.01l0,0c0,0,0,0,0,0.01l0,0V135l0,0c0,0,0,0,0,0.01c0,0,0,0,0,0.01l0,0c0,0.01,0,0.01-0.01,0.02l0,0c0,0,0,0,0,0.01
			l0,0c0,0.01,0,0.02-0.01,0.02l0,0v0.01l0,0c0,0.01,0,0.02-0.01,0.03l0,0c-0.06,0.22-0.12,0.44-0.17,0.67l1.64,0.39
			c0.42-1.79,1.11-3.44,2.03-4.9L65.37,130.4L65.37,130.4z M71.09,124.27c-0.15,0.15-0.3,0.3-0.45,0.45
			c-0.39,0.39-0.77,0.77-1.15,1.15l0,0l-0.01,0.01l0,0l-0.01,0.01l0,0c-0.02,0.02-0.03,0.03-0.05,0.05l0,0
			c-0.01,0.01-0.01,0.01-0.02,0.02l0,0l-0.01,0.01l0,0c0,0,0,0.01-0.01,0.01c0,0,0,0-0.01,0.01L69.36,126l0,0l-0.01,0.01l0,0
			l-0.01,0.01l0,0l-0.01,0.01l0,0c0,0,0,0-0.01,0.01c0,0,0,0-0.01,0.01c0,0,0,0-0.01,0.01l0,0l-0.01,0.01l0,0l-0.01,0.01
			c0,0,0,0-0.01,0.01c0,0,0,0-0.01,0.01l-0.01,0.01c0,0,0,0-0.01,0.01c0,0,0,0-0.01,0.01l-0.01,0.01l0,0l-0.01,0.01l0,0l-0.01,0.01
			c0,0,0,0-0.01,0.01l0,0l-0.01,0.01c0,0,0,0-0.01,0.01l0,0l-0.01,0.01c0,0,0,0-0.01,0.01l-0.01,0.01l0,0c0,0,0,0-0.01,0.01
			c0,0,0,0-0.01,0.01l-0.01,0.01l0,0l-0.01,0.01l0,0l-0.01,0.01l0,0l-0.01,0.01l0,0c-0.01,0.01-0.01,0.01-0.02,0.02l0,0l-0.01,0.01
			l0,0l-0.01,0.01l0,0l-0.01,0.01l0,0l0,0c-0.01,0.01-0.03,0.02-0.04,0.03l0,0c0,0-0.01,0-0.01,0.01l0,0c0,0-0.01,0-0.01,0.01l0,0
			c-0.21,0.17-0.42,0.34-0.64,0.54l0,0c-0.03,0.03-0.06,0.05-0.09,0.08l0,0c-0.01,0.01-0.01,0.01-0.02,0.02l0,0l-0.01,0.01l0,0
			c0,0-0.01,0-0.01,0.01l0,0c0,0-0.01,0-0.01,0.01l0,0c0,0-0.01,0-0.01,0.01l0,0c0,0-0.01,0-0.01,0.01l0,0c0,0-0.01,0-0.01,0.01l0,0
			c0,0-0.01,0-0.01,0.01l0,0c0,0-0.01,0-0.01,0.01l0,0c0,0-0.01,0-0.01,0.01l0,0c0,0-0.01,0-0.01,0.01l0,0c0,0-0.01,0-0.01,0.01l0,0
			c0,0-0.01,0-0.01,0.01l0,0c0,0,0,0-0.01,0.01l0,0c0,0,0,0-0.01,0.01l0,0c0,0,0,0-0.01,0.01l0,0c0,0,0,0-0.01,0.01l0,0
			c0,0,0,0-0.01,0.01l0,0c0,0,0,0-0.01,0.01l0,0c0,0,0,0-0.01,0.01l0,0c0,0,0,0-0.01,0.01l0,0c0,0,0,0-0.01,0.01l0,0
			c0,0,0,0-0.01,0.01l0,0c0,0,0,0-0.01,0.01l0,0c0,0,0,0-0.01,0.01l0,0c0,0,0,0-0.01,0.01l0,0c0,0,0,0-0.01,0.01l0,0
			c0,0,0,0-0.01,0.01l0,0c0,0,0,0-0.01,0.01l0,0c0,0,0,0-0.01,0.01l0,0c0,0,0,0-0.01,0.01l0,0c0,0,0,0-0.01,0.01l0,0
			c0,0,0,0-0.01,0.01l0,0c0,0,0,0-0.01,0.01l0,0c0,0,0,0-0.01,0.01l0,0c0,0,0,0-0.01,0.01l0,0c0,0,0,0-0.01,0.01l0,0
			c0,0,0,0-0.01,0.01l0,0c0,0,0,0-0.01,0.01l0,0c0,0,0,0-0.01,0.01l0,0c0,0,0,0-0.01,0.01l0,0c0,0,0,0-0.01,0.01l0,0
			c0,0,0,0-0.01,0.01l0,0c0,0,0,0-0.01,0.01l0,0c0,0,0,0-0.01,0.01l0,0c0,0,0,0-0.01,0.01l0,0l0,0l0,0l0,0l0,0l0,0
			c0,0,0,0-0.01,0.01l0,0c0,0,0,0-0.01,0.01l0,0c0,0,0,0-0.01,0.01l0,0c0,0,0,0-0.01,0.01l0,0c0,0,0,0-0.01,0.01l0,0
			c0,0,0,0-0.01,0.01l0,0l-0.01,0.01l0,0c0,0-0.01,0-0.01,0.01l0,0l-0.01,0.01l0,0c0,0,0,0-0.01,0.01l0,0
			c-0.01,0.01-0.02,0.02-0.03,0.02l0,0c-0.27,0.27-0.55,0.56-0.83,0.88l1.26,1.11c0.58-0.67,1.23-1.28,1.92-1.82l0.09-0.07
			l0.08-0.08c0.52-0.53,1.05-1.07,1.6-1.61l0.45-0.45L71.09,124.27L71.09,124.27z M76.65,117.98c-1.11,1.6-2.43,3.08-3.79,4.5
			l1.21,1.16c1.69-1.76,2.95-3.26,3.95-4.7L76.65,117.98L76.65,117.98z M79.74,110.26c-0.07,0.66-0.19,1.3-0.34,1.92l0,0v0.01l0,0
			v0.01l0,0c-0.01,0.03-0.01,0.05-0.02,0.08l0,0v0.01l0,0v0.01l0,0c-0.01,0.03-0.01,0.05-0.02,0.08l0,0v0.01l0,0v0.01l0,0v0.01l0,0
			v0.01l0,0c-0.01,0.02-0.01,0.04-0.02,0.06l0,0v0.01l0,0v0.01l0,0v0.01l0,0v0.01l0,0v0.01l0,0c0,0.01-0.01,0.03-0.01,0.04l0,0v0.01
			l0,0c0,0,0,0,0,0.01l0,0c0,0,0,0,0,0.01l0,0c0,0,0,0,0,0.01l0,0c0,0,0,0,0,0.01l0,0c0,0,0,0,0,0.01l0,0c0,0,0,0,0,0.01l0,0
			c0,0.01,0,0.02-0.01,0.02l0,0c0,0,0,0,0,0.01l0,0c0,0,0,0,0,0.01l0,0c0,0,0,0,0,0.01c0,0,0,0,0,0.01c0,0,0,0,0,0.01
			c0,0,0,0,0,0.01c0,0,0,0,0,0.01c0,0,0,0,0,0.01c0,0,0,0,0,0.01l0,0c0,0,0,0,0,0.01c0,0,0,0,0,0.01c0,0,0,0,0,0.01v0.01l0,0v0.01
			l0,0c0,0,0,0,0,0.01l0,0c0,0,0,0,0,0.01l0,0c0,0,0,0,0,0.01l0,0c0,0,0,0,0,0.01c0,0,0,0,0,0.01c0,0,0,0,0,0.01c0,0,0,0,0,0.01
			c0,0,0,0,0,0.01l0,0c0,0,0,0,0,0.01l0,0v0.01l0,0v0.01l0,0c0,0,0,0,0,0.01l0,0c0,0,0,0,0,0.01l0,0c0,0,0,0,0,0.01l0,0
			c0,0,0,0,0,0.01l0,0c0,0,0,0,0,0.01l0,0c0,0,0,0,0,0.01l0,0c0,0,0,0,0,0.01l0,0c0,0.01,0,0.01-0.01,0.02l0,0v0.01l0,0
			c0,0,0,0,0,0.01l0,0c0,0,0,0,0,0.01l0,0c0,0,0,0,0,0.01l0,0c0,0,0,0,0,0.01l0,0c0,0,0,0,0,0.01l0,0v0.01l0,0v0.01l0,0
			c0,0.01,0,0.01-0.01,0.02l0,0v0.01l0,0v0.01l0,0v0.01l0,0v0.01l0,0v0.01l0,0v0.01l0,0v0.01l0,0c0,0.01,0,0.01-0.01,0.02l0,0v0.01
			l0,0v0.01l0,0v0.01l0,0v0.01l0,0v0.01l0,0v0.01l0,0c-0.01,0.02-0.01,0.04-0.02,0.05l0,0v0.01l0,0v0.01l0,0v0.01l0,0v0.01l0,0
			c-0.01,0.02-0.01,0.04-0.02,0.06l0,0v0.01l0,0v0.01l0,0c-0.01,0.03-0.02,0.06-0.03,0.09l0,0c-0.28,0.8-0.63,1.58-1.03,2.32
			l1.48,0.79c1.09-2.04,1.73-4.07,1.96-6.19L79.74,110.26L79.74,110.26z M81.51,101.85h-1.68v5.89h1.68V101.85L81.51,101.85z
			 M81.51,93.44h-1.68v5.89h1.68V93.44L81.51,93.44z M81.51,85.03h-1.68v5.89h1.68V85.03L81.51,85.03z M81.51,76.63h-1.68v5.89h1.68
			V76.63L81.51,76.63z M81.51,68.22h-1.68v5.89h1.68V68.22L81.51,68.22z M81.51,59.81h-1.68v5.89h1.68V59.81L81.51,59.81z
			 M80.53,50.99l-1.6,0.5c0.18,0.57,0.33,1.16,0.46,1.75l0,0c0,0.01,0.01,0.03,0.01,0.04l0,0c0,0.01,0,0.02,0.01,0.03l0,0v0.01l0,0
			c0,0.01,0,0.02,0.01,0.03l0,0c0,0.01,0.01,0.03,0.01,0.04l0,0v0.01l0,0c0,0.01,0,0.01,0,0.02l0,0v0.01l0,0v0.01l0,0
			c0,0.01,0,0.01,0,0.02l0,0v0.01l0,0v0.01l0,0c0,0.01,0,0.01,0,0.02l0,0v0.01l0,0v0.01l0,0c0,0.01,0,0.01,0,0.02l0,0v0.01
			c0,0,0,0,0,0.01c0,0,0,0,0,0.01v0.01v0.01c0,0,0,0,0,0.01v0.01c0,0,0,0,0,0.01v0.01c0,0,0,0,0,0.01v0.01c0,0,0,0,0,0.01
			c0,0,0,0,0,0.01c0,0,0,0,0,0.01v0.01v0.01v0.01c0,0,0,0,0,0.01c0,0,0,0,0,0.01v0.01v0.01v0.01c0,0,0,0,0,0.01c0,0,0,0,0,0.01
			c0,0,0,0,0,0.01v0.01c0,0,0,0,0,0.01v0.01c0,0,0,0,0,0.01v0.01c0,0,0,0,0,0.01v0.01c0,0,0,0,0,0.01v0.01c0,0,0,0,0,0.01v0.01
			c0,0,0,0,0,0.01v0.01c0,0,0,0,0,0.01v0.01c0,0,0,0,0,0.01v0.01c0,0,0,0,0,0.01v0.01l0,0v0.01l0,0V54l0,0v0.01l0,0v0.01l0,0v0.01
			l0,0v0.01l0,0v0.01l0,0v0.01l0,0v0.01l0,0v0.01l0,0v0.01l0,0v0.01l0,0v0.01l0,0v0.01l0,0v0.01l0,0v0.01l0,0c0,0.01,0,0.01,0,0.01
			l0,0v0.01l0,0c0,0.01,0,0.02,0,0.03l0,0v0.01l0,0c0,0.01,0,0.02,0,0.03l0,0v0.01l0,0c0,0.01,0,0.02,0,0.03l0,0v0.01l0,0
			c0,0.01,0,0.02,0,0.03l0,0v0.01l0,0c0,0.01,0,0.02,0,0.03l0,0c0,0.02,0,0.03,0.01,0.05l0,0c0,0.02,0,0.03,0.01,0.05l0,0
			c0.13,0.91,0.21,1.84,0.21,2.79l1.68-0.01C81.5,55.14,81.17,53.02,80.53,50.99L80.53,50.99z M76.06,43.12l-1.26,1.12
			c0.83,0.93,1.58,1.95,2.22,3.03l0,0c0.01,0.02,0.02,0.03,0.03,0.05l0,0c0.01,0.01,0.01,0.02,0.02,0.03l0,0c0,0,0,0.01,0.01,0.01
			l0,0c0,0,0,0.01,0.01,0.01l0,0c0.01,0.01,0.01,0.02,0.02,0.03l0,0v0.01l0,0c0.01,0.01,0.01,0.02,0.02,0.03l0,0v0.01l0,0
			c0,0,0,0,0,0.01l0,0l0.01,0.01l0,0c0,0,0,0,0,0.01c0,0,0,0,0,0.01c0,0,0,0,0,0.01c0,0,0,0,0,0.01c0,0,0,0,0,0.01
			c0,0,0,0.01,0.01,0.01c0,0,0,0,0,0.01c0,0,0,0,0,0.01c0,0,0,0,0,0.01c0,0,0,0,0,0.01c0,0,0,0,0,0.01c0,0,0,0.01,0.01,0.01
			c0,0,0,0,0,0.01c0,0,0,0,0,0.01s0,0,0,0.01c0,0,0,0,0,0.01l0,0c0,0,0,0.01,0.01,0.01c0,0,0,0,0,0.01v0.01l0,0c0,0,0,0,0,0.01l0,0
			v0.01l0,0c0,0,0,0.01,0.01,0.01l0,0v0.01l0,0c0,0,0,0.01,0.01,0.01l0,0c0,0,0,0.01,0.01,0.01l0,0c0,0,0,0.01,0.01,0.01l0,0
			c0,0,0,0.01,0.01,0.01l0,0c0,0.01,0.01,0.02,0.01,0.02l0,0c0,0,0,0.01,0.01,0.01l0,0c0,0.01,0.01,0.02,0.01,0.02l0,0
			c0,0,0,0.01,0.01,0.01l0,0c0.25,0.44,0.48,0.89,0.69,1.35l1.53-0.7C78.65,46.5,77.48,44.71,76.06,43.12L76.06,43.12z M68.76,37.76
			l-0.69,1.53c1.1,0.5,2.15,1.09,3.14,1.77l0,0c0.01,0.01,0.02,0.02,0.04,0.03l0,0l0.01,0.01l0,0c0.01,0.01,0.02,0.02,0.04,0.03l0,0
			c0.01,0.01,0.02,0.02,0.04,0.02l0,0c0,0,0.01,0,0.01,0.01l0,0c0.01,0.01,0.02,0.01,0.02,0.02l0,0c0,0,0.01,0,0.01,0.01l0,0
			l0.01,0.01l0,0l0.01,0.01l0,0c0,0,0.01,0,0.01,0.01l0,0c0,0,0.01,0,0.01,0.01l0,0l0.01,0.01l0,0c0,0,0.01,0,0.01,0.01l0,0
			c0,0,0.01,0,0.01,0.01l0,0c0.01,0.01,0.01,0.01,0.02,0.02l0,0c0,0,0.01,0,0.01,0.01l0,0c0,0,0.01,0,0.01,0.01l0,0l0.01,0.01l0,0
			c0,0,0.01,0,0.01,0.01l0,0c0,0,0.01,0,0.01,0.01l0,0l0.01,0.01l0,0c0,0,0.01,0,0.01,0.01l0,0c0,0,0.01,0,0.01,0.01l0,0
			c0,0,0.01,0,0.01,0.01l0,0c0,0,0.01,0,0.01,0.01l0,0c0,0,0,0,0.01,0l0,0c0,0,0,0,0.01,0.01l0,0c0,0,0.01,0,0.01,0.01
			c0,0,0,0,0.01,0c0,0,0,0,0.01,0c0,0,0,0,0.01,0c0,0,0,0,0.01,0c0,0,0,0,0.01,0c0,0,0.01,0,0.01,0.01c0,0,0,0,0.01,0
			c0,0,0,0,0.01,0c0,0,0,0,0.01,0c0,0,0,0,0.01,0c0,0,0,0,0.01,0c0,0,0,0,0.01,0c0,0,0.01,0,0.01,0.01c0,0,0,0,0.01,0
			c0,0,0,0,0.01,0l0,0c0,0,0,0,0.01,0l0,0l0.01,0.01l0,0c0,0,0,0,0.01,0l0,0c0,0,0,0,0.01,0l0,0c0,0,0,0,0.01,0l0,0l0.01,0.01l0,0
			c0,0,0,0,0.01,0.01l0,0c0,0,0,0,0.01,0.01l0,0l0.01,0.01l0,0c0,0,0,0,0.01,0l0,0c0,0,0,0,0.01,0l0,0l0.01,0.01l0,0
			c0,0,0.01,0,0.01,0.01l0,0c0,0,0,0,0.01,0.01l0,0c0.01,0.01,0.02,0.01,0.02,0.02l0,0c0,0,0,0,0.01,0.01l0,0c0,0,0,0,0.01,0.01l0,0
			c0.01,0,0.01,0.01,0.02,0.01l0,0c0,0,0.01,0,0.01,0.01l0,0c0,0,0.01,0,0.01,0.01l0,0c0.01,0.01,0.02,0.01,0.02,0.02l0,0
			c0,0,0,0,0.01,0.01l0,0c0.01,0.01,0.02,0.01,0.03,0.02l0,0c0,0,0.01,0,0.01,0.01l0,0c0.01,0.01,0.02,0.02,0.04,0.03l0,0
			c0.02,0.01,0.03,0.02,0.04,0.03l0,0c0.3,0.23,0.58,0.47,0.87,0.71l1.11-1.27C72.51,39.79,70.71,38.63,68.76,37.76L68.76,37.76z
			 M60.01,35.89v1.68h0.01l0,0h0.01l0,0h0.01l0,0h0.01l0,0h0.01l0,0h0.01l0,0h0.01l0,0h0.01l0,0h0.01l0,0h0.01l0,0h0.01l0,0h0.01
			l0,0h0.01l0,0h0.01l0,0h0.01l0,0h0.01l0,0h0.01l0,0h0.01l0,0h0.01l0,0h0.01l0,0h0.01l0,0c0,0,0.01,0,0.02,0l0,0h0.01l0,0
			c0.01,0,0.02,0,0.03,0l0,0h0.01l0,0h0.01l0,0h0.01l0,0h0.01l0,0h0.01l0,0h0.01l0,0c0.01,0,0.02,0,0.03,0l0,0h0.01l0,0h0.01l0,0
			h0.01l0,0h0.01l0,0c0,0,0.01,0,0.02,0l0,0h0.01l0,0c0.01,0,0.02,0,0.03,0l0,0h0.01l0,0c0.01,0,0.01,0,0.02,0l0,0h0.01l0,0
			c0.01,0,0.02,0,0.03,0l0,0h0.01l0,0c0.01,0,0.02,0,0.03,0l0,0h0.01l0,0c0.01,0,0.02,0,0.03,0l0,0c0.01,0,0.02,0,0.03,0l0,0h0.01
			l0,0c0.01,0,0.02,0,0.03,0l0,0h0.01l0,0c0.01,0,0.02,0,0.03,0l0,0c0.01,0,0.02,0,0.03,0l0,0h0.01l0,0c0.01,0,0.02,0,0.03,0l0,0
			h0.01l0,0c0.01,0,0.02,0,0.03,0l0,0c0.02,0,0.03,0,0.05,0l0,0c0.01,0,0.02,0,0.03,0l0,0c0.02,0,0.03,0,0.05,0l0,0
			c1.55,0.09,3.06,0.37,4.5,0.81l0.49-1.61C64.2,36.19,62.11,35.89,60.01,35.89L60.01,35.89z"/>
	</g>
	<path class="st5" d="M44.31,21.45c0,0,5.27-2.63,4.51,7.15c-0.75,9.78,1.13,10.15-1.88,10.91"/>
</g>
</svg>
